<svg width="75" height="75" viewBox="0 0 75 75" fill="none" xmlns="http://www.w3.org/2000/svg">
<g clip-path="url(#clip0_27_537)">
<path d="M55.6532 6.54946C55.6532 7.31049 55.0358 7.9279 54.2747 7.9279C53.5137 7.9279 52.8963 7.31049 52.8963 6.54946C52.8963 5.78843 53.5137 5.17102 54.2747 5.17102C55.0358 5.17102 55.6532 5.78843 55.6532 6.54946Z" fill="url(#paint0_linear_27_537)"/>
<path d="M62.2604 6.54946C62.2604 7.31049 61.643 7.9279 60.882 7.9279C60.1209 7.9279 59.5035 7.31049 59.5035 6.54946C59.5035 5.78843 60.1209 5.17102 60.882 5.17102C61.643 5.17102 62.2604 5.78843 62.2604 6.54946Z" fill="url(#paint1_linear_27_537)"/>
<path d="M68.8677 6.54946C68.8677 7.31049 68.2503 7.9279 67.4892 7.9279C66.7282 7.9279 66.1108 7.31049 66.1108 6.54946C66.1108 5.78843 66.7282 5.17102 67.4892 5.17102C68.2503 5.17102 68.8677 5.78843 68.8677 6.54946Z" fill="url(#paint2_linear_27_537)"/>
<path d="M34.2058 5.45081H7.45007C6.84354 5.45081 6.35144 5.94233 6.35144 6.54944C6.35144 7.15655 6.84354 7.64807 7.45007 7.64807H34.2058C34.8123 7.64807 35.3044 7.15655 35.3044 6.54944C35.3044 5.94233 34.8123 5.45081 34.2058 5.45081Z" fill="url(#paint3_linear_27_537)"/>
<path d="M73.9014 25.6113C73.2948 25.6113 72.8027 26.1029 72.8027 26.71V71.1634C72.8027 72.0675 72.0675 72.8028 71.1634 72.8028H3.83663C2.93255 72.8028 2.19727 72.0675 2.19727 71.1634V61.6024C2.19727 60.9953 1.70517 60.5038 1.09863 60.5038C0.492096 60.5038 0 60.9953 0 61.6024V71.1634C0 73.2788 1.72119 75 3.83663 75H71.1634C73.2788 75 75 73.2788 75 71.1634V26.71C75 26.1029 74.5079 25.6113 73.9014 25.6113Z" fill="url(#paint4_linear_27_537)"/>
<path d="M71.1634 0H3.83663C1.72119 0 0 1.72119 0 3.83663V57.2124C0 57.8196 0.492096 58.3111 1.09863 58.3111C1.70517 58.3111 2.19727 57.8196 2.19727 57.2124V13.0989H72.8027V22.2868C72.8027 22.8939 73.2948 23.3854 73.9014 23.3854C74.5079 23.3854 75 22.8939 75 22.2868V3.83663C75 1.72119 73.2788 0 71.1634 0ZM2.19727 10.9016V3.83663C2.19727 2.93255 2.93255 2.19727 3.83663 2.19727H71.1634C72.0675 2.19727 72.8027 2.93255 72.8027 3.83663V10.9016H2.19727Z" fill="url(#paint5_linear_27_537)"/>
<path d="M18.2974 41.1862H15.2006C14.7371 39.7505 13.3879 38.7097 11.8 38.7097C9.82992 38.7097 8.22717 40.3124 8.22717 42.2825C8.22717 44.2526 9.82992 45.8553 11.8 45.8553C13.3862 45.8553 14.7343 44.8162 15.1995 43.3834H18.2968C18.3947 43.8812 18.5572 44.3573 18.7758 44.8048C18.7769 44.8071 18.7781 44.8088 18.7792 44.8111C18.7849 44.8231 18.7912 44.8351 18.7969 44.8471L18.8244 44.9021C18.8255 44.9032 18.8261 44.9049 18.8267 44.9066C19.3331 45.8954 20.1216 46.7474 21.1189 47.3562C21.0217 47.7762 20.9725 48.206 20.9725 48.6408C20.9725 48.6654 20.9725 48.6895 20.973 48.7141V48.7353C20.9736 48.7524 20.9736 48.7696 20.9742 48.7868C20.9742 48.7948 20.9747 48.8028 20.9747 48.8114C20.9753 48.8285 20.9759 48.8451 20.9765 48.8623C20.977 48.8691 20.977 48.8766 20.9776 48.8835C20.9782 48.9029 20.9793 48.9218 20.9805 48.9412C20.9805 48.9458 20.9805 48.951 20.981 48.9556C20.985 49.0311 20.9908 49.106 20.9976 49.181C20.9982 49.1816 20.9982 49.1833 20.9982 49.1839C21.0554 49.7864 21.2065 50.3643 21.4382 50.9039H17.5129C16.9058 50.9039 16.4143 51.396 16.4143 52.0025V58.4793C14.9798 58.944 13.9401 60.2921 13.9401 61.8794C13.9401 63.8495 15.5428 65.4522 17.5129 65.4522C19.483 65.4522 21.0852 63.8495 21.0852 61.8794C21.0852 60.2921 20.0455 58.944 18.6115 58.4793V53.1012H23.0604C23.818 53.7541 24.7439 54.2393 25.7727 54.4916C25.7481 54.7056 25.7361 54.9208 25.7361 55.1371C25.7361 58.4713 28.6211 61.1841 32.1671 61.1841C34.3844 61.1841 36.343 60.1238 37.5 58.5137C38.657 60.1238 40.6157 61.1841 42.833 61.1841C46.3789 61.1841 49.264 58.4713 49.264 55.1371C49.264 55.1108 49.264 55.0839 49.2634 55.0575C49.2634 55.0512 49.2634 55.045 49.2634 55.0387C49.2628 55.0181 49.2623 54.9975 49.2617 54.9769C49.2617 54.9717 49.2611 54.966 49.2611 54.9603C49.2605 54.9391 49.26 54.9174 49.2588 54.8962C49.2588 54.8922 49.2583 54.8882 49.2583 54.8842C49.2571 54.8613 49.256 54.8378 49.2548 54.8144C49.2548 54.8126 49.2542 54.8109 49.2542 54.8086C49.2485 54.7022 49.2394 54.5963 49.2274 54.4911C50.2562 54.2393 51.1814 53.7541 51.9396 53.1012H56.3885V58.4793C54.9545 58.9434 53.9143 60.2921 53.9143 61.8788C53.9143 63.8489 55.517 65.4516 57.4871 65.4516C59.4572 65.4516 61.06 63.8495 61.06 61.8788C61.06 60.2921 60.0203 58.9434 58.5858 58.4793V52.0025C58.5858 51.3954 58.0942 50.9039 57.4871 50.9039H53.5618C53.8622 50.2041 54.0276 49.4396 54.0276 48.6408C54.0276 48.2054 53.9784 47.7762 53.8811 47.3557C55.3614 46.4516 56.3822 45.0113 56.7026 43.3834H59.8005C60.2658 44.8162 61.6139 45.8548 63.2 45.8548C65.1701 45.8548 66.7729 44.2526 66.7729 42.2825C66.7729 40.3124 65.1701 38.7097 63.2 38.7097C61.6121 38.7097 60.2629 39.7505 59.7988 41.1862H56.7032C56.6019 40.6717 56.432 40.1808 56.202 39.7207C56.1939 39.7041 56.1854 39.6876 56.1768 39.6704C56.1751 39.667 56.1733 39.6629 56.1711 39.6595C55.6647 38.6725 54.8773 37.8216 53.8811 37.2133C53.9784 36.7933 54.0276 36.3636 54.0276 35.9282C54.0276 35.1294 53.8622 34.3655 53.5618 33.6651H57.4871C58.0942 33.6651 58.5858 33.1736 58.5858 32.5665V26.0903C60.0203 25.6256 61.06 24.2775 61.06 22.6902C61.06 20.7201 59.4572 19.1174 57.4871 19.1174C55.517 19.1174 53.9143 20.7201 53.9143 22.6902C53.9143 24.2775 54.9545 25.6256 56.3885 26.0903V31.4678H51.9396C51.182 30.8149 50.2562 30.3303 49.2274 30.0779C49.252 29.8639 49.264 29.6482 49.264 29.4325C49.264 26.0977 46.3789 23.3854 42.833 23.3854C40.6157 23.3854 38.657 24.4457 37.5 26.0554C36.343 24.4457 34.3844 23.3854 32.1671 23.3854C28.6211 23.3854 25.7361 26.0983 25.7361 29.4325C25.7361 29.4588 25.7361 29.4851 25.7366 29.512V29.5309C25.7372 29.5515 25.7378 29.5721 25.7384 29.5927C25.7384 29.5984 25.7389 29.6036 25.7389 29.6093C25.7395 29.6305 25.7401 29.6522 25.7412 29.6728C25.7412 29.6774 25.7412 29.682 25.7418 29.686C25.7424 29.7089 25.7435 29.7318 25.7452 29.7541V29.7621C25.7469 29.7867 25.7481 29.8113 25.7498 29.8359C25.7498 29.8365 25.7504 29.8371 25.7504 29.8376C25.7561 29.9183 25.7635 29.9984 25.7721 30.0779C24.7439 30.3303 23.818 30.8149 23.0604 31.4678H18.6115V26.0903C20.0455 25.6256 21.0852 24.2775 21.0852 22.6902C21.0852 20.7201 19.483 19.1174 17.5129 19.1174C15.5428 19.1174 13.9401 20.7201 13.9401 22.6902C13.9401 24.2775 14.9798 25.6256 16.4143 26.0903V32.5665C16.4143 33.1736 16.9058 33.6651 17.5129 33.6651H21.4382C21.1378 34.3655 20.9725 35.1294 20.9725 35.9282C20.9725 36.3636 21.0211 36.7933 21.1189 37.2133C19.6381 38.118 18.6173 39.5582 18.2974 41.1862ZM17.5129 63.2544C16.7542 63.2544 16.1373 62.6375 16.1373 61.8788C16.1373 61.1206 16.7542 60.5032 17.5129 60.5032C18.2711 60.5032 18.8879 61.1206 18.8879 61.8788C18.8879 62.6375 18.2711 63.2544 17.5129 63.2544ZM57.4871 63.2544C56.729 63.2544 56.1121 62.6375 56.1121 61.8788C56.1121 61.1206 56.729 60.5032 57.4871 60.5032C58.2459 60.5032 58.8627 61.1206 58.8627 61.8788C58.8627 62.6375 58.2459 63.2544 57.4871 63.2544ZM57.4871 21.3152C58.2459 21.3152 58.8627 21.932 58.8627 22.6908C58.8627 23.449 58.2459 24.0658 57.4871 24.0658C56.729 24.0658 56.1121 23.449 56.1121 22.6908C56.1121 21.932 56.729 21.3152 57.4871 21.3152ZM17.5129 21.3152C18.2711 21.3152 18.8879 21.932 18.8879 22.6908C18.8879 23.449 18.2711 24.0658 17.5129 24.0658C16.7542 24.0658 16.1373 23.449 16.1373 22.6908C16.1373 21.932 16.7542 21.3152 17.5129 21.3152ZM11.8 43.6575C11.0418 43.6575 10.4244 43.0407 10.4244 42.2825C10.4244 41.5238 11.0418 40.9069 11.8 40.9069C12.5588 40.9069 13.1756 41.5238 13.1756 42.2825C13.1756 43.0407 12.5582 43.6575 11.8 43.6575ZM63.2 40.9069C63.9582 40.9069 64.5756 41.5238 64.5756 42.2825C64.5756 43.0407 63.9582 43.6581 63.2 43.6581C62.4413 43.6581 61.8244 43.0407 61.8244 42.2825C61.8244 41.5238 62.4418 40.9069 63.2 40.9069ZM42.833 25.5827C45.1676 25.5827 47.0667 27.3096 47.0667 29.4325C47.0667 29.5904 47.0564 29.7478 47.0347 29.9046C45.5429 30.0247 44.1548 30.625 43.0779 31.624C42.6333 32.0372 42.6075 32.7318 43.0201 33.177C43.2364 33.4105 43.5305 33.5283 43.8257 33.5283C44.093 33.5283 44.3613 33.4311 44.5725 33.2348C45.3758 32.4898 46.4499 32.0789 47.5966 32.0789C47.6681 32.0789 47.7396 32.0807 47.8117 32.0841C47.8203 32.0847 47.83 32.0852 47.8386 32.0858C48.9224 32.1413 49.8923 32.5653 50.6046 33.2199C50.6705 33.3086 50.7494 33.387 50.8381 33.4522C51.4584 34.1234 51.8303 34.9886 51.8303 35.9287C51.8303 36.0827 51.8206 36.2354 51.8006 36.3871C51.3428 36.2892 50.8667 36.2377 50.3781 36.2377C49.7715 36.2377 49.2794 36.7298 49.2794 37.3364C49.2794 37.9435 49.7715 38.435 50.3781 38.435C50.9909 38.435 51.5734 38.554 52.0992 38.7674C52.109 38.772 52.1187 38.776 52.1279 38.78C53.5784 39.3803 54.5357 40.674 54.6084 42.1091C54.6089 42.1274 54.6101 42.1457 54.6107 42.1641C54.6107 42.1692 54.6112 42.1744 54.6112 42.1801C54.6112 42.1858 54.6112 42.1921 54.6118 42.1984C54.6118 42.2075 54.6118 42.2167 54.6124 42.2264V42.2413C54.6124 42.2556 54.6129 42.2699 54.6129 42.2848C54.6129 43.7891 53.6373 45.1647 52.1284 45.7895C51.8566 45.9017 51.6409 46.1186 51.5305 46.3909C51.4195 46.6639 51.4229 46.9694 51.5396 47.2395C51.7325 47.6875 51.8309 48.159 51.8309 48.6408C51.8309 50.4553 50.4433 51.9917 48.5613 52.3894C47.4953 50.4324 45.3278 49.09 42.833 49.09C42.2264 49.09 41.7343 49.5821 41.7343 50.1887C41.7343 50.7958 42.2264 51.2873 42.833 51.2873C44.6995 51.2873 46.2879 52.3911 46.8498 53.9183C46.8533 53.9292 46.8567 53.9395 46.8607 53.9503C46.9832 54.2931 47.0513 54.6478 47.065 55.0072C47.065 55.0146 47.0656 55.0221 47.0656 55.0295C47.0656 55.0358 47.0661 55.0421 47.0661 55.049C47.0661 55.0581 47.0667 55.0678 47.0667 55.077V55.0924C47.0673 55.1073 47.0673 55.1222 47.0673 55.1371C47.0673 57.2594 45.1676 58.9863 42.833 58.9863C40.4984 58.9863 38.5992 57.2594 38.5992 55.1371V29.4325C38.5987 27.3096 40.4984 25.5827 42.833 25.5827ZM22.8722 38.78C23.144 38.6673 23.3591 38.4504 23.4701 38.1781C23.5806 37.9057 23.5771 37.6002 23.4604 37.3301C23.2676 36.8815 23.1697 36.4105 23.1697 35.9287C23.1697 34.9526 23.5703 34.0576 24.234 33.3767C24.2581 33.3544 24.2809 33.3315 24.3027 33.3075C24.8652 32.7576 25.6033 32.3565 26.4387 32.1797C27.5047 34.1366 29.6723 35.479 32.1671 35.479C32.7736 35.479 33.2657 34.9875 33.2657 34.3804C33.2657 33.7738 32.7736 33.2817 32.1671 33.2817C30.3005 33.2817 28.7121 32.1779 28.1502 30.6502C28.1468 30.6399 28.1433 30.6296 28.1399 30.6193C28.0174 30.2759 27.9488 29.9212 27.9356 29.5618C27.935 29.5544 27.935 29.5469 27.9345 29.5395C27.9345 29.5332 27.9345 29.5269 27.9339 29.5206C27.9339 29.5109 27.9339 29.5012 27.9333 29.4914C27.9333 29.4869 27.9333 29.4817 27.9333 29.4766C27.9333 29.4617 27.9328 29.4468 27.9328 29.4319C27.9328 27.3096 29.8325 25.5827 32.1671 25.5827C34.5017 25.5827 36.4014 27.3096 36.4014 29.4319V55.1371C36.4014 57.26 34.5017 58.9869 32.1671 58.9869C29.8325 58.9869 27.9328 57.26 27.9328 55.1371C27.9328 54.9786 27.9436 54.8212 27.9648 54.665C29.4565 54.5443 30.8447 53.9446 31.9222 52.945C32.3668 52.5324 32.3925 51.8372 31.98 51.3926C31.5674 50.948 30.8722 50.9216 30.4276 51.3342C29.6242 52.0798 28.5502 52.4906 27.404 52.4906C27.3319 52.4906 27.2598 52.4889 27.1883 52.4855C27.1797 52.4849 27.1706 52.4843 27.1614 52.4838C26.9526 52.4729 26.7489 52.4489 26.5497 52.4117C24.8303 52.0901 23.4873 50.8175 23.2189 49.2279C23.2189 49.2268 23.2184 49.2256 23.2184 49.2245C23.2161 49.2108 23.2138 49.1964 23.2115 49.1827C23.2109 49.1799 23.2104 49.1776 23.2104 49.1753C23.2081 49.1621 23.2063 49.149 23.2046 49.1364C23.2041 49.1329 23.2035 49.1301 23.2029 49.1266C23.2012 49.1141 23.2001 49.1015 23.1983 49.0894C23.1978 49.0854 23.1972 49.082 23.1966 49.078C23.1955 49.066 23.1938 49.054 23.192 49.0414C23.192 49.0379 23.1915 49.0339 23.1909 49.0299C23.1898 49.0185 23.1886 49.007 23.1875 48.9956C23.1869 48.9905 23.1863 48.9859 23.1857 48.9807C23.1846 48.9699 23.184 48.959 23.1829 48.9475C23.1823 48.943 23.1823 48.9378 23.1817 48.9327C23.1806 48.9218 23.18 48.9109 23.1789 48.9C23.1789 48.8949 23.1783 48.8892 23.1777 48.884C23.1772 48.8737 23.1766 48.8634 23.176 48.8537C23.1754 48.8474 23.1754 48.8411 23.1749 48.8354C23.1743 48.8251 23.1737 48.8148 23.1732 48.8045C23.1732 48.7988 23.1726 48.793 23.1726 48.7873C23.172 48.7765 23.172 48.7656 23.1714 48.7547C23.1714 48.7496 23.1709 48.7438 23.1709 48.7381C23.1703 48.7272 23.1703 48.7158 23.1703 48.7044C23.1697 48.6992 23.1697 48.6946 23.1697 48.6895C23.1697 48.6735 23.1697 48.6569 23.1697 48.6408C23.1697 48.4869 23.1795 48.3341 23.1995 48.1825C23.6572 48.2798 24.1333 48.3313 24.622 48.3313C25.2285 48.3313 25.7206 47.8398 25.7206 47.2326C25.7206 46.6261 25.2285 46.134 24.622 46.134C24.0091 46.134 23.4266 46.0156 22.9008 45.8016C22.8911 45.7976 22.8813 45.7935 22.8722 45.7895C21.4216 45.1893 20.4643 43.8955 20.3917 42.4605C20.3911 42.4421 20.39 42.4238 20.3894 42.4055C20.3894 42.4004 20.3888 42.3947 20.3888 42.3895C20.3888 42.3832 20.3888 42.3775 20.3882 42.3712C20.3882 42.362 20.3882 42.3523 20.3877 42.3432C20.3877 42.338 20.3877 42.3334 20.3877 42.3283C20.3877 42.314 20.3871 42.2991 20.3871 42.2848C20.3877 40.7805 21.3627 39.4049 22.8722 38.78Z" fill="url(#paint6_linear_27_537)"/>
</g>
<defs>
<linearGradient id="paint0_linear_27_537" x1="54.2747" y1="5.17102" x2="54.2747" y2="7.9279" gradientUnits="userSpaceOnUse">
<stop stop-color="#9C42F5"/>
<stop offset="1" stop-color="white"/>
</linearGradient>
<linearGradient id="paint1_linear_27_537" x1="60.882" y1="5.17102" x2="60.882" y2="7.9279" gradientUnits="userSpaceOnUse">
<stop stop-color="#9C42F5"/>
<stop offset="1" stop-color="white"/>
</linearGradient>
<linearGradient id="paint2_linear_27_537" x1="67.4892" y1="5.17102" x2="67.4892" y2="7.9279" gradientUnits="userSpaceOnUse">
<stop stop-color="#9C42F5"/>
<stop offset="1" stop-color="white"/>
</linearGradient>
<linearGradient id="paint3_linear_27_537" x1="20.8279" y1="5.45081" x2="20.8279" y2="7.64807" gradientUnits="userSpaceOnUse">
<stop stop-color="#9C42F5"/>
<stop offset="1" stop-color="white"/>
</linearGradient>
<linearGradient id="paint4_linear_27_537" x1="37.5" y1="25.6113" x2="37.5" y2="75" gradientUnits="userSpaceOnUse">
<stop stop-color="#9C42F5"/>
<stop offset="1" stop-color="white"/>
</linearGradient>
<linearGradient id="paint5_linear_27_537" x1="37.5" y1="0" x2="37.5" y2="58.3111" gradientUnits="userSpaceOnUse">
<stop stop-color="#9C42F5"/>
<stop offset="1" stop-color="white"/>
</linearGradient>
<linearGradient id="paint6_linear_27_537" x1="37.5" y1="19.1174" x2="37.5" y2="65.4522" gradientUnits="userSpaceOnUse">
<stop stop-color="#9C42F5"/>
<stop offset="1" stop-color="white"/>
</linearGradient>
<clipPath id="clip0_27_537">
<rect width="75" height="75" fill="white"/>
</clipPath>
</defs>
</svg>
