<svg width="38" height="36" viewBox="0 0 38 36" fill="none" xmlns="http://www.w3.org/2000/svg">
<path id="Vector" d="M36.5131 3.1002C36.5131 3.1002 36.5131 3.1002 36.5126 3.1002C36.4794 3.09677 36.454 3.09425 19.2993 3.09402V2.89307C19.9049 2.89307 20.3979 2.40005 20.3979 1.79443V1.64795C20.3979 0.739288 19.6587 0 18.75 0C17.8413 0 17.1021 0.739288 17.1021 1.64795V1.79443C17.1021 2.40005 17.5951 2.89307 18.2007 2.89307V3.09402C13.8579 3.09402 8.48465 3.09425 1.8322 3.09448H1.09863C0.493011 3.09448 0 3.58749 0 4.19312V5.29175C0 5.89737 0.493011 6.39038 1.09863 6.39038H3.66211V18.9111C3.27049 19.2101 2.90268 19.5392 2.56348 19.8953V8.03856C2.56348 7.73529 2.31743 7.48924 2.01416 7.48924C1.71089 7.48924 1.46484 7.73529 1.46484 8.03856V21.2936C0.537872 22.7378 0 24.4544 0 26.2939C0 31.4129 4.16451 35.5774 9.28345 35.5774C13.5599 35.5774 17.1696 32.6706 18.2421 28.7292H27.7579L28.7201 30.8672C28.3472 31.0432 28.0884 31.4218 28.0884 31.8604V32.0068C28.0884 32.9155 28.8277 33.6548 29.7363 33.6548C30.645 33.6548 31.3843 32.9155 31.3843 32.0068V31.8604C31.3843 31.2547 30.8913 30.7617 30.2856 30.7617H29.8771L28.9625 28.7292H33.9274C35.0896 28.7292 36.0349 27.7837 36.0349 26.6219V6.38718C36.4948 6.38649 36.5039 6.38557 36.5131 6.38466C37.0757 6.32744 37.5 5.85777 37.5 5.29175V4.19312C37.5 3.62732 37.0757 3.1572 36.5131 3.1002ZM18.2007 1.64795C18.2007 1.34491 18.447 1.09863 18.75 1.09863C19.053 1.09863 19.2993 1.34491 19.2993 1.64795V1.79443H18.2007V1.64795ZM30.2856 32.0068C30.2856 32.3099 30.0394 32.5562 29.7363 32.5562C29.4333 32.5562 29.187 32.3099 29.187 32.0068V31.8604H30.2856V32.0068ZM4.76074 15.7313L8.54851 11.9437L12.3495 15.7448C12.5638 15.9595 12.9117 15.9595 13.1264 15.7448L14.691 14.1801L20.6808 20.17C20.7838 20.273 20.9235 20.3307 21.0695 20.3307C21.2151 20.3307 21.3547 20.273 21.4579 20.17L30.5418 11.0859V11.7737C30.5418 12.077 30.7878 12.323 31.0911 12.323C31.3946 12.323 31.6404 12.077 31.6404 11.7737V9.76021C31.6404 9.7419 31.6395 9.72359 31.6379 9.70528C31.637 9.69772 31.6358 9.69063 31.6347 9.68353C31.6333 9.67278 31.6319 9.66248 31.6296 9.65195C31.628 9.64348 31.6257 9.63501 31.6237 9.62654C31.6214 9.61761 31.6196 9.60869 31.6168 9.59999C31.6143 9.59152 31.6111 9.58328 31.6081 9.57504C31.6051 9.56635 31.6022 9.55788 31.5985 9.54918C31.5953 9.54163 31.5916 9.53407 31.588 9.52629C31.5839 9.51782 31.5802 9.5089 31.5756 9.50066C31.5717 9.49356 31.5674 9.48669 31.563 9.47937C31.5582 9.47113 31.5534 9.46266 31.5479 9.45465C31.5427 9.44687 31.5372 9.43977 31.5317 9.43222C31.5264 9.42535 31.5216 9.41826 31.5161 9.41139C31.5054 9.39857 31.4939 9.38599 31.4822 9.37386C31.4813 9.37294 31.4806 9.37225 31.4799 9.37134C31.479 9.37042 31.4781 9.36996 31.4777 9.36928C31.4653 9.35738 31.4527 9.34547 31.4394 9.33472C31.4333 9.32991 31.4266 9.32533 31.42 9.3203C31.4122 9.31458 31.4044 9.3084 31.396 9.3029C31.3886 9.29787 31.3806 9.29329 31.3728 9.28871C31.3651 9.28413 31.358 9.27956 31.3499 9.27521C31.3419 9.27086 31.3339 9.26743 31.3257 9.26353C31.3177 9.25964 31.3097 9.25552 31.3014 9.25209C31.2932 9.24889 31.2854 9.24637 31.2769 9.24316C31.2685 9.23996 31.2595 9.23676 31.2506 9.23401C31.2426 9.23149 31.2344 9.22966 31.2261 9.2276C31.217 9.22531 31.208 9.22279 31.1987 9.22119C31.1893 9.21913 31.1797 9.21799 31.1703 9.21684C31.162 9.21547 31.1536 9.21387 31.1453 9.21318C31.1282 9.21135 31.111 9.21043 31.0936 9.21043C31.0931 9.21043 31.0922 9.21021 31.0913 9.21021H29.0771C28.7737 9.21021 28.5278 9.45625 28.5278 9.75952C28.5278 10.063 28.7737 10.3088 29.0771 10.3088H29.7649L21.0695 19.0047L15.0797 13.0149C14.8654 12.8002 14.5175 12.8004 14.3028 13.0149L12.7382 14.5795L8.93692 10.7783C8.72246 10.5638 8.37456 10.5638 8.15987 10.7783L4.76074 14.1776V6.39061H16.2609C24.9561 6.39061 29.9121 6.39015 32.7393 6.38947V25.2869H18.5122C18.0084 20.6401 14.0623 17.0105 9.28345 17.0105C7.64236 17.0105 6.0997 17.4392 4.76074 18.1892V15.7313ZM9.28345 34.4788C4.77036 34.4788 1.09863 30.807 1.09863 26.2939C1.09863 21.7811 4.77036 18.1091 9.28345 18.1091C13.6043 18.1091 17.1529 21.4746 17.4479 25.7217C17.4403 25.7586 17.436 25.797 17.436 25.8362C17.436 25.8955 17.4454 25.952 17.4625 26.0053C17.466 26.1012 17.4683 26.1974 17.4683 26.2939C17.4683 30.807 13.7965 34.4788 9.28345 34.4788ZM34.9365 26.6219C34.9365 27.1781 34.4838 27.6306 33.9276 27.6306H18.4703C18.5291 27.2234 18.5619 26.8078 18.5658 26.3855H32.7393C33.3449 26.3855 33.8379 25.8925 33.8379 25.2869V6.38901C34.2707 6.38901 34.633 6.38878 34.9365 6.38832V26.6219ZM4.21349 5.29175C4.2128 5.29175 4.21188 5.29175 4.21143 5.29175C4.21097 5.29175 4.21005 5.29175 4.20937 5.29175C3.14461 5.29175 2.11739 5.29175 1.14212 5.29175H1.09863V4.19312H1.83243C7.02644 4.19289 11.6977 4.19289 15.8054 4.19289C28.4464 4.19289 35.7394 4.19403 36.4014 4.19563L36.4023 5.28923C35.3323 5.29198 17.0183 5.29243 4.21349 5.29175Z" fill="url(#paint0_linear_183_867)"/>
<defs>
<linearGradient id="paint0_linear_183_867" x1="-9.5" y1="-7" x2="42" y2="36" gradientUnits="userSpaceOnUse">
<stop stop-color="#00FFAA"/>
<stop offset="0.535" stop-color="#4579F5"/>
<stop offset="1" stop-color="#9C42F5"/>
</linearGradient>
</defs>
</svg>
