<svg width="75" height="75" viewBox="0 0 75 75" fill="none" xmlns="http://www.w3.org/2000/svg">
<g clip-path="url(#clip0_27_531)">
<path d="M15.7765 22.0301C16.2519 22.3998 16.9436 22.3191 17.3181 21.8375L17.3272 21.8259C17.6997 21.3469 17.6134 20.6568 17.1346 20.2843C16.6556 19.9116 15.9652 19.9979 15.593 20.4769C15.2171 20.9603 15.2949 21.6555 15.7765 22.0301ZM20.1713 18.731C20.6228 18.3133 20.6609 17.6161 20.2392 17.1646C19.8259 16.7222 19.1309 16.6992 18.687 17.111C18.241 17.5248 18.207 18.2186 18.619 18.6664C19.0307 19.1137 19.7269 19.142 20.1713 18.731ZM11.9292 29.9208C12.046 29.9603 12.1648 29.9791 12.2815 29.9791C12.7396 29.9791 13.167 29.6903 13.322 29.2323L13.3267 29.2184C13.5212 28.6437 13.213 28.02 12.6382 27.8256C12.0637 27.6308 11.44 27.9393 11.2455 28.5141L11.2408 28.528C11.0462 29.1026 11.3544 29.7264 11.9292 29.9208ZM11.2113 34.2457C11.7397 34.2457 12.2057 33.8634 12.2941 33.3249C12.2943 33.3242 12.2968 33.3088 12.2969 33.3079C12.3939 32.7089 11.9868 32.1448 11.3878 32.0479C10.7881 31.9515 10.2248 32.3581 10.1278 32.9569L10.1259 32.9688C10.0146 33.6338 10.5385 34.2457 11.2113 34.2457ZM12.2999 41.7104C12.1948 41.1145 11.6279 40.7191 11.032 40.8218C10.4358 40.9245 10.0354 41.4932 10.1355 42.0898L10.1361 42.0937C10.2343 42.698 10.8107 43.0963 11.3982 42.9999C11.9971 42.9016 12.4027 42.3366 12.3044 41.7378L12.2999 41.7104ZM13.5164 25.8107C14.0389 26.0981 14.7132 25.9148 15.0085 25.3774L15.0223 25.3521C15.3069 24.8184 15.105 24.1583 14.5729 23.8712C14.0407 23.5843 13.3748 23.7841 13.0852 24.3151L13.0833 24.3185C12.7909 24.8503 12.9848 25.5183 13.5164 25.8107ZM62.6956 41.7388C62.6024 42.3995 63.1179 42.9974 63.784 42.9974C64.3148 42.9974 64.7804 42.6119 64.8672 42.0738C64.9717 41.4781 64.5747 40.9096 63.9788 40.8028C63.3611 40.6922 62.7829 41.1199 62.6956 41.7388ZM63.0453 37.4515C63.0453 37.4596 63.0454 37.4676 63.0456 37.4757C63.0454 37.4837 63.0453 37.4918 63.0453 37.5V37.5146C63.0453 38.1214 63.537 38.6133 64.1439 38.6133C64.7508 38.6133 65.2425 38.1214 65.2425 37.5146V37.5C65.2425 37.4919 65.2424 37.4839 65.2422 37.4757C65.2424 37.4676 65.2425 37.4596 65.2425 37.4515C65.2425 36.8394 64.7543 36.3382 64.1439 36.3382C63.5307 36.3382 63.0453 36.8398 63.0453 37.4515ZM62.6921 33.2408C62.7939 33.8379 63.3517 34.2406 63.9368 34.1546C64.5602 34.0629 64.966 33.473 64.856 32.8595C64.749 32.2625 64.178 31.8668 63.5818 31.9731C62.9873 32.0792 62.5906 32.6464 62.6921 33.2408ZM57.6426 21.7871C58.0269 22.2608 58.7109 22.3381 59.1831 21.9656C59.6587 21.5903 59.7395 20.8994 59.3651 20.423L59.3619 20.4187C58.9894 19.9397 58.2989 19.8539 57.8203 20.2261C57.3413 20.5986 57.2552 21.2889 57.6277 21.7677C57.6294 21.7704 57.6404 21.7844 57.6426 21.7871ZM61.6518 29.1564C61.8486 29.7382 62.4825 30.035 63.0447 29.8449C63.6195 29.6503 63.9275 29.0268 63.7332 28.4521C63.7326 28.4505 63.7273 28.435 63.7267 28.4333C63.5298 27.8606 62.9096 27.5621 62.3354 27.7576C61.7621 27.953 61.4577 28.5826 61.6518 29.1564ZM56.327 18.6166C56.7415 18.1661 56.7016 17.4681 56.2516 17.0543C55.805 16.6436 55.1155 16.6774 54.7046 17.1239C54.2937 17.5704 54.3281 18.2704 54.7746 18.6812C55.2201 19.0912 55.9154 19.0641 56.327 18.6166ZM59.9662 25.3299C60.1695 25.6828 60.5391 25.8803 60.919 25.8803C61.1052 25.8803 61.2939 25.833 61.4666 25.7334C61.9875 25.4332 62.1696 24.7708 61.8781 24.2473C61.5911 23.7151 60.928 23.5145 60.394 23.7992C59.8586 24.0847 59.6562 24.7501 59.9417 25.2855C59.9473 25.2962 59.9602 25.3195 59.9662 25.3299ZM10.8561 38.6301C11.4628 38.6301 11.9547 38.1382 11.9547 37.5315C11.9547 36.9193 11.4665 36.4182 10.8561 36.4182C10.2432 36.4182 9.75747 36.9196 9.75747 37.5315C9.75747 38.1382 10.2494 38.6301 10.8561 38.6301ZM65.4785 62.5488H61.8164C59.9991 62.5488 58.5205 61.0704 58.5205 59.2529C58.5205 58.6462 58.0288 58.1543 57.4219 58.1543C56.815 58.1543 56.3232 58.6462 56.3232 59.2529C56.3232 62.2819 58.7874 64.7461 61.8164 64.7461H65.4785C68.5075 64.7461 70.9717 62.2819 70.9717 59.2529C70.9717 56.2239 68.5075 53.7598 65.4785 53.7598H64.0137C63.4068 53.7598 62.915 54.2517 62.915 54.8584C62.915 55.4651 63.4068 55.957 64.0137 55.957H65.4785C67.2958 55.957 68.7744 57.4355 68.7744 59.2529C68.7744 61.0704 67.2958 62.5488 65.4785 62.5488ZM34.9365 10.2539H31.2744C28.2454 10.2539 25.7812 12.7181 25.7812 15.7471C25.7812 18.7761 28.2454 21.2402 31.2744 21.2402H32.7393C33.346 21.2402 33.8379 20.7483 33.8379 20.1416C33.8379 19.5349 33.346 19.043 32.7393 19.043H31.2744C29.457 19.043 27.9785 17.5645 27.9785 15.7471C27.9785 13.9296 29.457 12.4512 31.2744 12.4512H34.9365C36.754 12.4512 38.2324 13.9296 38.2324 15.7471C38.2324 16.3538 38.7242 16.8457 39.3311 16.8457C39.9379 16.8457 40.4297 16.3538 40.4297 15.7471C40.4297 12.7181 37.9655 10.2539 34.9365 10.2539ZM43.7256 19.043H40.0635C38.2462 19.043 36.7676 17.5645 36.7676 15.7471C36.7676 15.1403 36.2757 14.6484 35.6689 14.6484C35.0622 14.6484 34.5703 15.1403 34.5703 15.7471C34.5703 18.7761 37.0345 21.2402 40.0635 21.2402H43.7256C46.7546 21.2402 49.2188 18.7761 49.2188 15.7471C49.2188 12.7181 46.7546 10.2539 43.7256 10.2539H42.2607C41.6539 10.2539 41.1621 10.7458 41.1621 11.3525C41.1621 11.9593 41.6539 12.4512 42.2607 12.4512H43.7256C45.5429 12.4512 47.0215 13.9296 47.0215 15.7471C47.0215 17.5645 45.5429 19.043 43.7256 19.043ZM39.6204 62.9585C39.0152 63.0031 38.5608 63.5297 38.6052 64.1348C38.6499 64.7427 39.1831 65.1971 39.7813 65.1499C39.7868 65.1495 39.8067 65.1479 39.812 65.1475C40.4164 65.0941 40.8639 64.5609 40.8104 63.9564C40.7572 63.3519 40.2217 62.907 39.6204 62.9585ZM59.2529 43.5059C55.6463 43.5059 52.2529 44.6924 49.4392 46.9371C48.965 47.3155 48.8871 48.0067 49.2656 48.4811C49.6437 48.9554 50.335 49.033 50.8096 48.6548C53.2299 46.7238 56.1495 45.7031 59.2529 45.7031C66.7244 45.7031 72.8027 51.7815 72.8027 59.2529C72.8027 66.7244 66.7244 72.8027 59.2529 72.8027C51.7815 72.8027 45.7031 66.7244 45.7031 59.2529C45.7031 56.7457 46.3929 54.2974 47.6977 52.1726C48.0152 51.6557 47.8535 50.9791 47.3364 50.6615C46.8196 50.3438 46.143 50.5056 45.8254 51.0227C44.308 53.4935 43.5059 56.3395 43.5059 59.2529C43.5059 67.9359 50.5701 75 59.2529 75C67.9358 75 75 67.9359 75 59.2529C75 50.5699 67.9358 43.5059 59.2529 43.5059ZM56.6895 53.7598H53.0273C49.9983 53.7598 47.5342 56.2239 47.5342 59.2529C47.5342 62.2819 49.9983 64.7461 53.0273 64.7461H54.4922C55.0991 64.7461 55.5908 64.2542 55.5908 63.6475C55.5908 63.0407 55.0991 62.5488 54.4922 62.5488H53.0273C51.2101 62.5488 49.7314 61.0704 49.7314 59.2529C49.7314 57.4355 51.2101 55.957 53.0273 55.957H56.6895C58.5067 55.957 59.9854 57.4355 59.9854 59.2529C59.9854 59.8597 60.4771 60.3516 61.084 60.3516C61.6909 60.3516 62.1826 59.8597 62.1826 59.2529C62.1826 56.2239 59.7185 53.7598 56.6895 53.7598ZM20.5078 53.7598C19.9011 53.7598 19.4092 54.2517 19.4092 54.8584C19.4092 55.4651 19.9011 55.957 20.5078 55.957H21.9727C23.7901 55.957 25.2686 57.4355 25.2686 59.2529C25.2686 61.0704 23.7901 62.5488 21.9727 62.5488H18.3105C16.4931 62.5488 15.0146 61.0704 15.0146 59.2529C15.0146 58.6462 14.5228 58.1543 13.916 58.1543C13.3093 58.1543 12.8174 58.6462 12.8174 59.2529C12.8174 62.2819 15.2815 64.7461 18.3105 64.7461H21.9727C25.0017 64.7461 27.4658 62.2819 27.4658 59.2529C27.4658 56.2239 25.0017 53.7598 21.9727 53.7598H20.5078ZM10.9863 62.5488H9.52148C7.70405 62.5488 6.22559 61.0704 6.22559 59.2529C6.22559 57.4355 7.70405 55.957 9.52148 55.957H13.1836C15.001 55.957 16.4795 57.4355 16.4795 59.2529C16.4795 59.8597 16.9714 60.3516 17.5781 60.3516C18.1849 60.3516 18.6768 59.8597 18.6768 59.2529C18.6768 56.2239 16.2126 53.7598 13.1836 53.7598H9.52148C6.49248 53.7598 4.02832 56.2239 4.02832 59.2529C4.02832 62.2819 6.49248 64.7461 9.52148 64.7461H10.9863C11.5931 64.7461 12.085 64.2542 12.085 63.6475C12.085 63.0407 11.5931 62.5488 10.9863 62.5488ZM53.2471 15.7471C53.2471 7.06406 46.1829 0 37.5 0C33.7175 0 30.0608 1.36113 27.2033 3.83247C24.3756 6.27817 22.5057 9.64966 21.9381 13.3257C21.8455 13.9254 22.2565 14.4864 22.8562 14.5792C23.4554 14.6716 24.017 14.2607 24.1097 13.661C24.5979 10.4996 26.2071 7.59932 28.6409 5.49434C31.0989 3.36826 34.2453 2.19727 37.5 2.19727C44.9714 2.19727 51.0498 8.27563 51.0498 15.7471C51.0498 23.2185 44.9714 29.2969 37.5 29.2969C31.1043 29.2969 25.524 24.7588 24.231 18.5061C24.1081 17.9118 23.5267 17.5296 22.9327 17.6527C22.3384 17.7756 21.9564 18.3568 22.0793 18.951C23.5822 26.2191 30.0675 31.4941 37.5 31.4941C46.1829 31.4941 53.2471 24.4301 53.2471 15.7471ZM35.4129 62.9612C35.4076 62.9607 35.3877 62.9591 35.3823 62.9587C34.7801 62.9146 34.2583 63.3653 34.2105 63.9678C34.1626 64.5702 34.6143 65.0984 35.2165 65.1497L35.2198 65.1499C35.8167 65.2028 36.3573 64.7599 36.4107 64.1521C36.4641 63.5479 36.0173 63.0146 35.4129 62.9612ZM15.7471 43.5059C7.06406 43.5059 0 50.5699 0 59.2529C0 67.9359 7.06406 75 15.7471 75C24.4301 75 31.4941 67.9359 31.4941 59.2529C31.4941 50.5699 24.4301 43.5059 15.7471 43.5059ZM15.7471 72.8027C8.27563 72.8027 2.19727 66.7244 2.19727 59.2529C2.19727 51.7815 8.27563 45.7031 15.7471 45.7031C23.2185 45.7031 29.2969 51.7815 29.2969 59.2529C29.2969 66.7244 23.2185 72.8027 15.7471 72.8027Z" fill="url(#paint0_linear_27_531)"/>
</g>
<defs>
<linearGradient id="paint0_linear_27_531" x1="37.5" y1="0" x2="37.5" y2="75" gradientUnits="userSpaceOnUse">
<stop stop-color="#00FFAA"/>
<stop offset="1" stop-color="white"/>
</linearGradient>
<clipPath id="clip0_27_531">
<rect width="75" height="75" fill="white"/>
</clipPath>
</defs>
</svg>
