<svg width="40" height="40" viewBox="0 0 40 40" fill="none" xmlns="http://www.w3.org/2000/svg">
<g id="Capa_1">
<g id="Group">
<path id="Vector" d="M39.4142 23.7559C39.0905 23.7559 38.8282 24.0182 38.8282 24.3418V27.3108C38.8282 28.2384 38.0735 28.9932 37.1459 28.9932H34.9504C34.4185 28.9932 33.9858 29.4259 33.9858 29.9578V33.0298L29.5963 29.2286C29.4211 29.0768 29.1968 28.9932 28.9649 28.9932H22.4438C22.1202 28.9932 21.8579 29.2555 21.8579 29.5791C21.8579 29.9027 22.1202 30.1651 22.4438 30.1651H28.8877L33.5616 34.2127C34.1724 34.7419 35.1577 34.2934 35.1577 33.4836V30.1651H37.1458C38.7197 30.1651 40 28.8847 40 27.3108V24.3418C40.0001 24.0182 39.7378 23.7559 39.4142 23.7559Z" fill="url(#paint0_linear_183_854)"/>
<path id="Vector_2" d="M37.1458 12.5847H25.6034V8.41184C25.6034 6.83801 24.323 5.55762 22.7492 5.55762H8.25679C7.9332 5.55762 7.67086 5.81996 7.67086 6.14355C7.67086 6.46715 7.9332 6.72949 8.25679 6.72949H22.7491C23.6768 6.72949 24.4315 7.48418 24.4315 8.41184V20.2835C24.4315 21.2111 23.6768 21.9658 22.7491 21.9658H11.0351C10.8032 21.9658 10.5789 22.0494 10.4036 22.2013L6.01422 26.0025V22.9305C6.01422 22.3986 5.58148 21.9659 5.04961 21.9659H2.85422C1.92656 21.9659 1.17187 21.2112 1.17187 20.2836V8.41184C1.17187 7.48418 1.92656 6.72949 2.85422 6.72949H5.70312C6.02672 6.72949 6.28906 6.46715 6.28906 6.14355C6.28906 5.81996 6.02672 5.55762 5.70312 5.55762H2.85422C1.28039 5.55762 0 6.83801 0 8.41184V20.2835C0 21.8573 1.28039 23.1377 2.85422 23.1377H4.84234V26.4562C4.84234 27.2654 5.82695 27.7149 6.43836 27.1853L11.1123 23.1377H14.3966V27.3106C14.3966 28.8845 15.6769 30.1649 17.2508 30.1649H19.8901C20.2137 30.1649 20.476 29.9025 20.476 29.5789C20.476 29.2553 20.2137 28.993 19.8901 28.993H17.2508C16.3231 28.993 15.5684 28.2382 15.5684 27.3106V23.1377H22.7491C24.323 23.1377 25.6034 21.8573 25.6034 20.2835V13.7566H37.1457C38.0734 13.7566 38.828 14.5114 38.828 15.439V21.7881C38.828 22.1117 39.0903 22.374 39.414 22.374C39.7376 22.374 39.9999 22.1117 39.9999 21.7881V15.439C40 13.8652 38.7196 12.5847 37.1458 12.5847Z" fill="url(#paint1_linear_183_854)"/>
<path id="Vector_3" d="M28.3071 17.3096H35.5467C35.8704 17.3096 36.1327 17.0472 36.1327 16.7236C36.1327 16.4 35.8704 16.1377 35.5467 16.1377H28.3071C27.9835 16.1377 27.7212 16.4 27.7212 16.7236C27.7212 17.0472 27.9835 17.3096 28.3071 17.3096Z" fill="url(#paint2_linear_183_854)"/>
<path id="Vector_4" d="M28.3071 21.6748H35.5467C35.8704 21.6748 36.1327 21.4125 36.1327 21.0889C36.1327 20.7653 35.8704 20.5029 35.5467 20.5029H28.3071C27.9835 20.5029 27.7212 20.7653 27.7212 21.0889C27.7212 21.4125 27.9835 21.6748 28.3071 21.6748Z" fill="url(#paint3_linear_183_854)"/>
<path id="Vector_5" d="M18.1899 25.4541C18.1899 25.7777 18.4523 26.04 18.7759 26.04H35.5467C35.8704 26.04 36.1327 25.7777 36.1327 25.4541C36.1327 25.1305 35.8704 24.8682 35.5467 24.8682H18.7759C18.4523 24.8682 18.1899 25.1305 18.1899 25.4541Z" fill="url(#paint4_linear_183_854)"/>
<path id="Vector_6" d="M12.8019 19.1575C13.1291 19.1575 13.3943 18.8923 13.3943 18.5651C13.3943 18.2379 13.1291 17.9727 12.8019 17.9727C12.4747 17.9727 12.2095 18.2379 12.2095 18.5651C12.2095 18.8923 12.4747 19.1575 12.8019 19.1575Z" fill="url(#paint5_linear_183_854)"/>
<path id="Vector_7" d="M15.5889 11.5467C15.5136 10.094 14.3144 8.93322 12.859 8.90392C11.4447 8.87471 10.2327 9.90807 10.0376 11.306C10.0198 11.4338 10.0107 11.5645 10.0107 11.6944C10.0107 12.018 10.2731 12.2803 10.5967 12.2803C10.9203 12.2803 11.1826 12.018 11.1826 11.6944C11.1826 11.6185 11.1879 11.5422 11.1982 11.4678C11.3113 10.6576 12.0154 10.0594 12.8354 10.0756C13.6795 10.0926 14.3749 10.7655 14.4186 11.6074C14.4419 12.0568 14.2847 12.4835 13.9759 12.8087C13.6668 13.1342 13.2499 13.3135 12.8018 13.3135C12.4782 13.3135 12.2158 13.5758 12.2158 13.8994V16.2052C12.2158 16.5288 12.4782 16.7911 12.8018 16.7911C13.1254 16.7911 13.3877 16.5288 13.3877 16.2052V14.4224C13.9325 14.3045 14.4375 14.0245 14.8257 13.6156C15.358 13.0549 15.629 12.3201 15.5889 11.5467Z" fill="url(#paint6_linear_183_854)"/>
</g>
</g>
<defs>
<linearGradient id="paint0_linear_183_854" x1="20.724" y1="21.8846" x2="37.0589" y2="38.688" gradientUnits="userSpaceOnUse">
<stop stop-color="#00FFAA"/>
<stop offset="0.535" stop-color="#4579F5"/>
<stop offset="1" stop-color="#9C42F5"/>
</linearGradient>
<linearGradient id="paint1_linear_183_854" x1="-2.5" y1="1.24843" x2="35.1267" y2="38.3074" gradientUnits="userSpaceOnUse">
<stop stop-color="#00FFAA"/>
<stop offset="0.535" stop-color="#4579F5"/>
<stop offset="1" stop-color="#9C42F5"/>
</linearGradient>
<linearGradient id="paint2_linear_183_854" x1="27.1955" y1="15.9325" x2="27.9782" y2="19.3367" gradientUnits="userSpaceOnUse">
<stop stop-color="#00FFAA"/>
<stop offset="0.535" stop-color="#4579F5"/>
<stop offset="1" stop-color="#9C42F5"/>
</linearGradient>
<linearGradient id="paint3_linear_183_854" x1="27.1955" y1="20.2977" x2="27.9782" y2="23.7019" gradientUnits="userSpaceOnUse">
<stop stop-color="#00FFAA"/>
<stop offset="0.535" stop-color="#4579F5"/>
<stop offset="1" stop-color="#9C42F5"/>
</linearGradient>
<linearGradient id="paint4_linear_183_854" x1="17.0685" y1="24.6629" x2="17.4504" y2="28.206" gradientUnits="userSpaceOnUse">
<stop stop-color="#00FFAA"/>
<stop offset="0.535" stop-color="#4579F5"/>
<stop offset="1" stop-color="#9C42F5"/>
</linearGradient>
<linearGradient id="paint5_linear_183_854" x1="12.1354" y1="17.7652" x2="13.7415" y2="18.7383" gradientUnits="userSpaceOnUse">
<stop stop-color="#00FFAA"/>
<stop offset="0.535" stop-color="#4579F5"/>
<stop offset="1" stop-color="#9C42F5"/>
</linearGradient>
<linearGradient id="paint6_linear_183_854" x1="9.66186" y1="7.52202" x2="18.3998" y2="11.2687" gradientUnits="userSpaceOnUse">
<stop stop-color="#00FFAA"/>
<stop offset="0.535" stop-color="#4579F5"/>
<stop offset="1" stop-color="#9C42F5"/>
</linearGradient>
</defs>
</svg>
