<svg width="75" height="75" viewBox="0 0 75 75" fill="none" xmlns="http://www.w3.org/2000/svg">
<path d="M72.4365 3.6936H19.0093C17.5545 3.74399 17.5557 5.84106 19.0093 5.89087H72.4365C72.6385 5.89087 72.8027 6.05508 72.8027 6.25708V8.69165C72.8027 8.89365 72.6385 9.05786 72.4365 9.05786H2.56348C2.36147 9.05786 2.19727 8.89365 2.19727 8.69165V6.25708C2.19727 6.05508 2.36147 5.89087 2.56348 5.89087H13.8823C15.3371 5.84048 15.3359 3.74341 13.8823 3.6936H2.56348C1.15005 3.6936 0 4.84365 0 6.25708V8.69165C0 10.1051 1.15005 11.2551 2.56348 11.2551H3.9126V53.5144C3.9126 55.0701 5.17822 56.3357 6.73389 56.3357H36.4014V63.7021C32.1655 65.032 33.0094 71.2106 37.5 71.3064C41.9914 71.2102 42.8338 65.0312 38.5986 63.7021V56.3357H48.4248C49.8795 56.2853 49.8784 54.1882 48.4248 54.1384H6.73389C6.3898 54.1384 6.10986 53.8585 6.10986 53.5144V11.2551H68.8901V53.5144C68.8901 53.8585 68.6102 54.1384 68.2661 54.1384H53.5518C52.097 54.1888 52.0982 56.2859 53.5518 56.3357H68.2661C69.8218 56.3357 71.0874 55.0701 71.0874 53.5144V11.2551H72.4365C73.85 11.2551 75 10.1051 75 8.69165V6.25708C75 4.84351 73.85 3.6936 72.4365 3.6936ZM39.1846 67.4246C39.1846 68.3534 38.4289 69.1091 37.5 69.1091C35.2683 69.0243 35.2689 65.8244 37.5 65.74C38.4289 65.74 39.1846 66.4957 39.1846 67.4246Z" fill="url(#paint0_linear_27_557)"/>
<path d="M17.8113 28.4247C18.2404 28.8538 18.9359 28.8536 19.3649 28.4246L20.8662 26.9232L22.3675 28.4246C23.4263 29.4201 24.9162 27.9288 23.9213 26.8711L22.4198 25.3696L23.9213 23.8682C24.9165 22.8094 23.4255 21.3196 22.3675 22.3147L20.8662 23.816L19.3649 22.3147C18.9359 21.8855 18.2402 21.8856 17.8113 22.3145C17.3821 22.7437 17.3821 23.4392 17.8112 23.8682L19.3126 25.3696L17.8112 26.8711C17.3821 27.3 17.3821 27.9955 17.8113 28.4247Z" fill="url(#paint1_linear_27_557)"/>
<path d="M48.5906 40.7344C48.1614 40.3055 47.4659 40.3055 47.0369 40.7344L45.5356 42.2357L44.0342 40.7344C43.605 40.3055 42.9095 40.3055 42.4805 40.7344C42.0514 41.1636 42.0514 41.8591 42.4805 42.2882L43.9818 43.7895L42.4805 45.2908C42.0514 45.72 42.0514 46.4155 42.4805 46.8446C42.9097 47.2735 43.605 47.2735 44.0342 46.8446L45.5356 45.3432L47.0369 46.8446C47.4661 47.2735 48.1614 47.2735 48.5906 46.8446C49.0197 46.4154 49.0197 45.7199 48.5906 45.2908L47.0893 43.7895L48.5906 42.2882C49.0197 41.8591 49.0197 41.1636 48.5906 40.7344Z" fill="url(#paint2_linear_27_557)"/>
<path d="M61.8952 29.2472C61.466 28.8183 60.7705 28.8183 60.3414 29.2472L58.8401 30.7485L57.3388 29.2472C56.9096 28.8183 56.2141 28.8183 55.785 29.2472C55.356 29.6764 55.356 30.3719 55.785 30.801L57.2864 32.3023L55.785 33.8036C55.356 34.2328 55.356 34.9283 55.785 35.3574C56.2142 35.7863 56.9096 35.7863 57.3388 35.3574L58.8401 33.8561L60.3414 35.3574C60.7706 35.7863 61.466 35.7863 61.8952 35.3574C62.3243 34.9282 62.3243 34.2327 61.8952 33.8036L60.3939 32.3023L61.8952 30.801C62.3243 30.3719 62.3243 29.6764 61.8952 29.2472Z" fill="url(#paint3_linear_27_557)"/>
<path d="M47.8136 30.1457C47.2495 30.1457 46.7137 30.2676 46.2296 30.485L44.1167 28.3719C44.5153 27.741 44.7407 26.9657 44.7074 26.1716L57.9974 21.3322C60.1845 24.3083 64.9911 22.7696 65.0001 19.0267C64.7701 13.7266 57.1418 13.9665 57.2446 19.2679L44.0083 24.0877C41.8668 21.0153 36.9602 22.5158 36.9473 26.3112C36.8988 29.0983 39.9738 31.0488 42.4667 29.8294L44.5566 31.9193C44.3559 32.2284 44.198 32.5675 44.0912 32.9285H32.5794C32.1044 31.3215 30.6158 30.1453 28.857 30.1453C26.152 30.0867 24.1922 33.0382 25.2677 35.5038L16.0929 42.8796C13.5857 41.0904 9.97 42.9643 9.99988 46.0675C9.99988 48.208 11.7411 49.9494 13.8817 49.9494C16.5865 50.0078 18.5464 47.0569 17.4712 44.5911L26.6462 37.2153C28.7616 38.7449 31.8984 37.6007 32.5796 35.1259H44.0912C45.4216 39.3625 51.5998 38.5176 51.6956 34.0274C51.6955 31.8871 49.9542 30.1457 47.8136 30.1457ZM61.1182 17.3424C62.0471 17.3424 62.8028 18.0981 62.8028 19.027C62.718 21.2586 59.518 21.2581 59.4337 19.027C59.4337 18.0981 60.1895 17.3424 61.1182 17.3424ZM39.1447 26.3113C39.1447 25.3825 39.9004 24.6268 40.8293 24.6268C43.061 24.7116 43.0604 27.9115 40.8293 27.9959C39.9004 27.9959 39.1447 27.2402 39.1447 26.3113ZM13.8817 47.7523C12.9529 47.7523 12.1971 46.9965 12.1971 46.0677C12.282 43.836 15.4819 43.8366 15.5663 46.0677C15.5663 46.9965 14.8104 47.7523 13.8817 47.7523ZM28.857 35.712C27.9281 35.712 27.1724 34.9563 27.1724 34.0274C27.2572 31.7957 30.4572 31.7963 30.5415 34.0274C30.5415 34.9563 29.7858 35.712 28.857 35.712ZM47.8136 35.7121C46.8848 35.7121 46.1291 34.9564 46.1291 34.0275C46.2139 31.7959 49.4138 31.7964 49.4982 34.0275C49.4982 34.9564 48.7425 35.7121 47.8136 35.7121Z" fill="url(#paint4_linear_27_557)"/>
<defs>
<linearGradient id="paint0_linear_27_557" x1="37.5" y1="3.6936" x2="37.5" y2="71.3064" gradientUnits="userSpaceOnUse">
<stop stop-color="#F43F5E"/>
<stop offset="1" stop-color="white"/>
</linearGradient>
<linearGradient id="paint1_linear_27_557" x1="20.8692" y1="21.9869" x2="20.8692" y2="28.7524" gradientUnits="userSpaceOnUse">
<stop stop-color="#F43F5E"/>
<stop offset="1" stop-color="white"/>
</linearGradient>
<linearGradient id="paint2_linear_27_557" x1="45.5356" y1="40.4127" x2="45.5356" y2="47.1662" gradientUnits="userSpaceOnUse">
<stop stop-color="#F43F5E"/>
<stop offset="1" stop-color="white"/>
</linearGradient>
<linearGradient id="paint3_linear_27_557" x1="58.8401" y1="28.9255" x2="58.8401" y2="35.6791" gradientUnits="userSpaceOnUse">
<stop stop-color="#F43F5E"/>
<stop offset="1" stop-color="white"/>
</linearGradient>
<linearGradient id="paint4_linear_27_557" x1="37.4999" y1="15.1697" x2="37.4999" y2="49.9502" gradientUnits="userSpaceOnUse">
<stop stop-color="#F43F5E"/>
<stop offset="1" stop-color="white"/>
</linearGradient>
</defs>
</svg>
