<svg width="40" height="40" viewBox="0 0 40 40" fill="none" xmlns="http://www.w3.org/2000/svg">
<g id="Capa_1" clip-path="url(#clip0_183_872)">
<g id="Group">
<path id="Vector" d="M0.585938 27.1719C0.262266 27.1719 0 27.4341 0 27.7578V34.1552C0 34.4788 0.262266 34.7411 0.585938 34.7411C0.909609 34.7411 1.17188 34.4788 1.17188 34.1552V27.7578C1.17188 27.4341 0.909609 27.1719 0.585938 27.1719Z" fill="url(#paint0_linear_183_872)"/>
<path id="Vector_2" d="M38.2442 19.0075L37.5016 18.359C37.7661 17.8781 37.9166 17.326 37.9166 16.7394V16.6018C37.9166 16.2782 37.6544 16.0159 37.3307 16.0159C37.007 16.0159 36.7448 16.2782 36.7448 16.6018V16.7394C36.7448 17.9524 35.7579 18.9393 34.5449 18.9393C33.3319 18.9393 32.345 17.9524 32.345 16.7394V14.1989C32.345 12.9859 33.3319 11.999 34.5449 11.999C35.7579 11.999 36.7448 12.9859 36.7448 14.1989V14.3362C36.7448 14.6599 37.007 14.9221 37.3307 14.9221C37.6544 14.9221 37.9166 14.6599 37.9166 14.3362V14.1989C37.9166 12.3397 36.4041 10.8271 34.5449 10.8271C32.6857 10.8271 31.1731 12.3397 31.1731 14.1989V16.7394C31.1731 17.3194 31.3203 17.8656 31.5793 18.3427L30.7958 18.9797C29.8137 19.7783 29.1006 20.8936 28.788 22.1203C28.676 22.5596 28.2973 22.8789 27.8454 22.915L24.7368 23.1632C24.0927 23.2146 23.4934 23.5347 23.0923 24.0412C22.6977 24.5395 22.523 25.1833 22.6103 25.8121H17.3897C17.477 25.1833 17.3023 24.5395 16.9077 24.0412C16.5067 23.5347 15.9073 23.2146 15.2632 23.1632L12.1547 22.915C11.7028 22.8789 11.324 22.5596 11.2121 22.1202C10.8995 20.8936 10.1864 19.7782 9.2043 18.9797L8.4207 18.3427C8.67969 17.8656 8.82687 17.3194 8.82687 16.7394V14.1989C8.82687 12.3397 7.31437 10.8271 5.45516 10.8271C3.59594 10.8271 2.08344 12.3397 2.08344 14.1989V16.7394C2.08344 17.326 2.23406 17.8781 2.49852 18.359L1.75578 19.0075C0.639922 19.9818 0 21.3903 0 22.8716V25.4916C0 25.8153 0.262266 26.0775 0.585938 26.0775C0.909609 26.0775 1.17188 25.8153 1.17188 25.4916V22.8716C1.17188 21.7286 1.66562 20.642 2.52656 19.8902L3.23305 19.2733C3.8268 19.7946 4.60469 20.1111 5.45508 20.1111C6.3125 20.1111 7.09617 19.7894 7.6918 19.2604L8.46492 19.889C9.2532 20.53 9.82555 21.4251 10.0765 22.4096C10.3122 23.3347 11.1098 24.0072 12.0614 24.0832L15.1698 24.3314C15.4953 24.3575 15.7863 24.5127 15.9889 24.7688C16.1916 25.0247 16.276 25.3434 16.2266 25.6662L16.2044 25.8122H10.7771C10.3016 25.8122 9.83836 25.6771 9.43742 25.4216L6.97164 23.8503C6.69875 23.6764 6.33664 23.7567 6.16266 24.0296C5.98875 24.3025 6.06906 24.6646 6.34195 24.8386L7.90305 25.8334V34.1546C7.90305 34.4783 8.16531 34.7406 8.48898 34.7406C8.81266 34.7406 9.07492 34.4783 9.07492 34.1546V26.5647C9.46602 26.77 9.88977 26.9025 10.3272 26.9564C10.2074 27.2118 10.1404 27.4966 10.1404 27.7968V28.5637C10.1404 28.8874 10.4027 29.1496 10.7263 29.1496H18.2595V34.1546C18.2595 34.4782 18.5218 34.7405 18.8455 34.7405C19.1691 34.7405 19.4314 34.4782 19.4314 34.1546V29.1496H20.5688V34.1546C20.5688 34.4782 20.831 34.7405 21.1547 34.7405C21.4784 34.7405 21.7406 34.4782 21.7406 34.1546V29.1496H29.2738C29.5975 29.1496 29.8598 28.8874 29.8598 28.5637V27.7968C29.8598 27.4966 29.7927 27.2118 29.673 26.9564C30.1105 26.9025 30.5342 26.77 30.9252 26.5647V34.1546C30.9252 34.4783 31.1875 34.7406 31.5112 34.7406C31.8348 34.7406 32.0971 34.4783 32.0971 34.1546V25.8332L33.6582 24.8385C33.9311 24.6645 34.0114 24.3024 33.8375 24.0295C33.6635 23.7566 33.3015 23.6764 33.0285 23.8502L30.5626 25.4216C30.1617 25.6771 29.6985 25.8121 29.223 25.8121H23.7958L23.7734 25.6661C23.7241 25.3433 23.8085 25.0246 24.0112 24.7687C24.2139 24.5127 24.5048 24.3574 24.8302 24.3314L27.9387 24.0832C28.8904 24.0071 29.688 23.3346 29.9237 22.4096C30.1746 21.425 30.747 20.5299 31.5352 19.8889L32.3084 19.2604C32.904 19.7895 33.6877 20.1111 34.5451 20.1111C35.3955 20.1111 36.1734 19.7946 36.7671 19.2733L37.4735 19.8902C38.3345 20.642 38.8282 21.7287 38.8282 22.8716V34.1546C38.8282 34.4782 39.0905 34.7405 39.4141 34.7405C39.7378 34.7405 40.0001 34.4782 40.0001 34.1546V22.8716C40 21.3903 39.3601 19.9818 38.2442 19.0075ZM5.45508 18.9393C4.24211 18.9393 3.25523 17.9524 3.25523 16.7394V14.1989C3.25523 12.9859 4.24211 11.999 5.45508 11.999C6.66805 11.999 7.65492 12.9859 7.65492 14.1989V16.7394C7.65492 17.9524 6.66812 18.9393 5.45508 18.9393ZM27.8752 26.9839C28.3233 26.9839 28.6878 27.3485 28.6878 27.7966V27.9776H11.3123V27.7966C11.3123 27.3485 11.6768 26.9839 12.1248 26.9839H27.8752Z" fill="url(#paint1_linear_183_872)"/>
<path id="Vector_3" d="M12.9741 12.5455V16.2659C12.9741 17.167 13.7072 17.9001 14.6082 17.9001H20.6733C20.997 17.9001 21.2592 17.6379 21.2592 17.3142C21.2592 16.9905 20.997 16.7282 20.6733 16.7282H14.6082C14.3533 16.7282 14.1459 16.5209 14.1459 16.2659V13.0489L19.4139 14.8459V15.1977C19.4139 15.5214 19.6762 15.7836 19.9998 15.7836C20.3235 15.7836 20.5858 15.5214 20.5858 15.1977V14.8459L25.8538 13.0488V16.2658C25.8538 16.5207 25.6464 16.7282 25.3915 16.7282H22.9389C22.6152 16.7282 22.353 16.9904 22.353 17.3141C22.353 17.6378 22.6152 17.9 22.9389 17.9H25.3915C26.2926 17.9 27.0257 17.1669 27.0257 16.2658V12.5454C27.2821 12.3158 27.4374 11.9838 27.4374 11.6246V9.05887C27.4374 8.37754 26.883 7.82332 26.2018 7.82332H23.3597V6.54105C23.3597 5.83402 22.7845 5.25879 22.0774 5.25879H17.9225C17.2155 5.25879 16.6402 5.83402 16.6402 6.54105V7.8234H13.7981C13.1167 7.8234 12.5625 8.3777 12.5625 9.05895V11.6246C12.5624 11.9839 12.7177 12.316 12.9741 12.5455ZM17.812 6.54105C17.812 6.48019 17.8616 6.43066 17.9224 6.43066H22.0773C22.1382 6.43066 22.1877 6.48019 22.1877 6.54105V7.8234H17.812V6.54105ZM13.7343 9.05895C13.7343 9.02387 13.7629 8.99527 13.798 8.99527H26.2017C26.2369 8.99527 26.2655 9.02387 26.2655 9.05895V11.6246C26.2655 11.6519 26.2481 11.6761 26.2223 11.6849C26.2223 11.6849 26.2223 11.6849 26.2222 11.6849L20.5858 13.6077V13.3399C20.5858 13.0162 20.3235 12.7539 19.9998 12.7539C19.6762 12.7539 19.4139 13.0162 19.4139 13.3399V13.6077L13.7774 11.685C13.7516 11.6762 13.7343 11.6519 13.7343 11.6247V9.05895Z" fill="url(#paint2_linear_183_872)"/>
</g>
</g>
<defs>
<linearGradient id="paint0_linear_183_872" x1="-0.0878905" y1="26.3352" x2="2.09262" y2="26.5445" gradientUnits="userSpaceOnUse">
<stop stop-color="#00FFAA"/>
<stop offset="0.535" stop-color="#4579F5"/>
<stop offset="1" stop-color="#9C42F5"/>
</linearGradient>
<linearGradient id="paint1_linear_183_872" x1="-3" y1="8.1839" x2="33.2026" y2="45.7163" gradientUnits="userSpaceOnUse">
<stop stop-color="#00FFAA"/>
<stop offset="0.535" stop-color="#4579F5"/>
<stop offset="1" stop-color="#9C42F5"/>
</linearGradient>
<linearGradient id="paint2_linear_183_872" x1="11.4469" y1="3.86149" x2="29.681" y2="17.1598" gradientUnits="userSpaceOnUse">
<stop stop-color="#00FFAA"/>
<stop offset="0.535" stop-color="#4579F5"/>
<stop offset="1" stop-color="#9C42F5"/>
</linearGradient>
<clipPath id="clip0_183_872">
<rect width="40" height="40" fill="white"/>
</clipPath>
</defs>
</svg>
