<svg width="86" height="86" viewBox="0 0 86 86" fill="none" xmlns="http://www.w3.org/2000/svg">
<g clip-path="url(#clip0_293_1148)">
<path d="M26 26L28.2969 24.3411C27.5774 23.3448 26.2976 22.926 25.1283 23.3041C23.9589 23.6822 23.1667 24.7711 23.1667 26H26ZM43 79.8333C22.6575 79.8333 6.16667 63.3428 6.16667 43H0.5C0.5 66.4719 19.5279 85.5 43 85.5V79.8333ZM79.8333 43C79.8333 63.3428 63.3428 79.8333 43 79.8333V85.5C66.4719 85.5 85.5 66.4719 85.5 43H79.8333ZM43 6.16667C63.3428 6.16667 79.8333 22.6575 79.8333 43H85.5C85.5 19.5279 66.4719 0.5 43 0.5V6.16667ZM43 0.5C19.5279 0.5 0.5 19.5279 0.5 43H6.16667C6.16667 22.6575 22.6575 6.16667 43 6.16667V0.5ZM28.8333 68.5V26H23.1667V68.5H28.8333ZM23.7031 27.6589L60.5366 78.6586L65.13 75.3414L28.2969 24.3411L23.7031 27.6589ZM57.1667 23.1667V57.1667H62.8333V23.1667H57.1667Z" fill="#E2E8F0"/>
</g>
<defs>
<clipPath id="clip0_293_1148">
<rect width="85" height="85" fill="white" transform="translate(0.5 0.5)"/>
</clipPath>
</defs>
</svg>
