<svg width="86" height="86" viewBox="0 0 86 86" fill="none" xmlns="http://www.w3.org/2000/svg">
<path d="M42.929 50.0549C46.8567 50.0549 50.0407 46.8709 50.0407 42.9432C50.0407 39.0155 46.8567 35.8315 42.929 35.8315C39.0014 35.8315 35.8174 39.0155 35.8174 42.9432C35.8174 46.8709 39.0014 50.0549 42.929 50.0549Z" fill="#E2E8F0"/>
<path d="M42.9294 59.2351C32.9419 59.2351 24.2153 58.0593 17.6844 55.821C13.4486 54.376 9.85026 52.4493 7.28609 50.2535C4.56609 47.9301 3.12109 45.3943 3.12109 42.9435C3.12109 38.2401 8.27776 33.636 16.9336 30.6326C24.0169 28.1676 33.2536 26.7935 42.9153 26.7935C52.4069 26.7935 61.5161 28.1251 68.5569 30.5618C72.6794 31.9785 76.1503 33.8201 78.6153 35.8601C81.2928 38.0985 82.7094 40.5493 82.7094 42.9435C82.7094 47.831 76.9436 52.7751 67.6503 55.8493C61.0769 58.031 52.2936 59.2351 42.9294 59.2351ZM42.9294 30.1935C33.7636 30.1935 24.6969 31.5251 18.0669 33.8343C10.1053 36.611 6.53526 40.4076 6.53526 42.9435C6.53526 45.5785 10.3744 49.7293 18.7894 52.6051C24.9661 54.716 33.3244 55.8351 42.9294 55.8351C51.9394 55.8351 60.3403 54.7018 66.5878 52.6193C75.3286 49.7151 79.3236 45.5643 79.3236 42.9435C79.3236 41.5976 78.3036 40.011 76.4478 38.4668C74.3086 36.6818 71.1919 35.0526 67.4661 33.7635C60.7653 31.4685 52.0528 30.1935 42.9294 30.1935Z" fill="#E2E8F0"/>
<path d="M26.7938 78.3884C25.3488 78.3884 24.0738 78.0768 22.9971 77.4534C18.9313 75.1018 17.5146 68.3301 19.2288 59.3343C20.6312 51.9534 24.0596 43.2834 28.8904 34.9109C33.6362 26.6943 39.3312 19.4693 44.9554 14.5818C48.2421 11.7201 51.5713 9.62343 54.5746 8.51843C57.8471 7.31426 60.6804 7.31426 62.7487 8.50426C66.9846 10.9409 68.3871 18.4209 66.4037 27.9976C65.0012 34.7976 61.6579 43.0001 56.9829 51.1176C51.9963 59.7593 46.6129 66.7293 41.4137 71.2768C38.0421 74.2234 34.5712 76.3768 31.3979 77.4959C29.7404 78.0909 28.1821 78.3884 26.7938 78.3884ZM30.3496 35.7609L31.8229 36.6109C27.2471 44.5443 23.8612 53.0584 22.5579 59.9718C20.9854 68.2593 22.5012 73.2459 24.6829 74.5068C25.2212 74.8184 25.9296 74.9884 26.7938 74.9884C29.6129 74.9884 34.0471 73.2034 39.1754 68.7268C44.0912 64.4343 49.2337 57.7476 54.0362 49.4318C58.5412 41.6259 61.7429 33.7776 63.0746 27.3318C64.9304 18.3076 63.3296 12.7826 61.0487 11.4651C59.8871 10.7993 58.0029 10.8843 55.7362 11.7201C53.1154 12.6834 50.1546 14.5676 47.1796 17.1601C41.8387 21.8068 36.3846 28.7201 31.8229 36.6251L30.3496 35.7609Z" fill="#E2E8F0"/>
<path d="M59.0653 78.4308C55.212 78.4308 50.3245 76.1075 45.2245 71.7158C39.5295 66.8141 33.7353 59.5183 28.8903 51.1458C24.1303 42.9291 20.7303 34.3866 19.2995 27.0624C18.4637 22.7841 18.3078 18.8599 18.8462 15.7008C19.4412 12.2583 20.8437 9.80744 22.9262 8.60327C27.1478 6.15244 34.3303 8.67411 41.6403 15.1766C46.8253 19.7808 52.2653 26.7791 56.9545 34.8825C61.9553 43.5241 65.3128 51.67 66.6445 58.4416C67.5087 62.8333 67.6503 66.9133 67.0412 70.2283C66.3895 73.7558 64.9162 76.2633 62.7912 77.4958C61.7287 78.1191 60.4678 78.4308 59.0653 78.4308ZM31.837 49.4458C36.427 57.3791 42.122 64.5616 47.4487 69.1375C53.8378 74.6341 58.9095 75.8241 61.1053 74.5491C63.3862 73.2316 65.0578 67.8341 63.3295 59.1075C62.0545 52.7041 58.8387 44.9125 54.022 36.5966C49.5028 28.7908 44.3037 22.0899 39.3878 17.7266C32.5028 11.6066 26.9212 10.2324 24.6403 11.5499C23.4787 12.2158 22.6145 13.9016 22.2037 16.2816C21.7362 19.0299 21.8778 22.5433 22.6428 26.4108C24.0028 33.3666 27.2612 41.5408 31.837 49.4458Z" fill="#E2E8F0"/>
</svg>
