<svg width="72" height="60" viewBox="0 0 72 60" fill="none" xmlns="http://www.w3.org/2000/svg">
<path d="M5 30.9923H21.6253C26.0297 30.9923 29.0074 34.3422 29.0074 38.3745V47.618C29.0074 51.6502 26.0297 55.0001 21.6253 55.0001H12.3822C8.34989 55.0001 5 51.6502 5 47.618V30.9923Z" stroke="#1E293B" stroke-width="9.5" stroke-linecap="round" stroke-linejoin="round"/>
<path d="M5 30.9926C5 13.6849 8.22578 10.7692 17.9652 5" stroke="#1E293B" stroke-width="9.5" stroke-linecap="round" stroke-linejoin="round"/>
<path d="M43.0869 30.9923H59.7123C64.1167 30.9923 67.0943 34.3422 67.0943 38.3745V47.618C67.0943 51.6502 64.1167 55.0001 59.7123 55.0001H50.4691C46.4368 55.0001 43.0869 51.6502 43.0869 47.618V30.9923Z" stroke="#1E293B" stroke-width="9.5" stroke-linecap="round" stroke-linejoin="round"/>
<path d="M43.0869 30.9926C43.0869 13.6849 46.3127 10.7692 56.0522 5" stroke="#1E293B" stroke-width="9.5" stroke-linecap="round" stroke-linejoin="round"/>
</svg>
