<svg width="75" height="75" viewBox="0 0 75 75" fill="none" xmlns="http://www.w3.org/2000/svg">
<g clip-path="url(#clip0_27_545)">
<path d="M7.63036 10.1292C7.0181 10.1292 6.52142 10.6253 6.52142 11.2381C6.52142 11.8503 7.0181 12.347 7.63036 12.347H7.66011C8.27294 12.347 8.76905 11.8503 8.76905 11.2381C8.76905 10.6253 8.27294 10.1292 7.66011 10.1292H7.63036Z" fill="url(#paint0_linear_27_545)"/>
<path d="M12.3207 10.1292C11.7085 10.1292 11.2118 10.6253 11.2118 11.2381C11.2118 11.8503 11.7085 12.347 12.3207 12.347H12.3465C12.9593 12.347 13.4554 11.8503 13.4554 11.2381C13.4554 10.6253 12.9593 10.1292 12.3465 10.1292H12.3207Z" fill="url(#paint1_linear_27_545)"/>
<path d="M17.0077 10.1503C16.3948 10.1503 15.8982 10.6469 15.8982 11.2592C15.8982 11.872 16.3948 12.3681 17.0077 12.3681H17.0374C17.6503 12.3681 18.1469 11.872 18.1469 11.2592C18.1469 10.6469 17.6497 10.1503 17.0374 10.1503H17.0077Z" fill="url(#paint2_linear_27_545)"/>
<path d="M17.2217 30.5094C17.6966 30.5094 18.1361 30.2016 18.282 29.7238L20.7985 21.4777C20.9776 20.8918 20.6475 20.2721 20.0615 20.0936C19.4756 19.915 18.8559 20.2446 18.6774 20.8306L16.1608 29.076C15.9817 29.662 16.3119 30.2817 16.8978 30.4608C17.006 30.4934 17.1147 30.5094 17.2217 30.5094Z" fill="url(#paint3_linear_27_545)"/>
<path d="M21.6975 29.4388C21.9138 29.6528 22.1953 29.7593 22.4768 29.7593C22.7629 29.7593 23.049 29.6494 23.2659 29.4302L25.672 26.9961C26.4474 26.2104 26.4479 24.931 25.6709 24.1442L23.2659 21.7112C22.835 21.2752 22.1329 21.2717 21.6975 21.702C21.2615 22.1323 21.2575 22.8344 21.6883 23.2704L23.9623 25.5707L21.6883 27.871C21.2575 28.3064 21.2615 29.0085 21.6975 29.4388Z" fill="url(#paint4_linear_27_545)"/>
<path d="M14.8522 21.7541C14.4167 21.3232 13.7146 21.3266 13.2838 21.7615L10.8725 24.1962C10.0971 24.9824 10.0971 26.2619 10.8748 27.0498L13.2843 29.4788C13.5012 29.6974 13.7861 29.8067 14.0717 29.8067C14.3538 29.8067 14.6359 29.6991 14.8527 29.4851C15.2876 29.0537 15.2905 28.3516 14.859 27.9167L12.5822 25.6222L14.8596 23.3225C15.2905 22.887 15.287 22.1849 14.8522 21.7541Z" fill="url(#paint5_linear_27_545)"/>
<path d="M11.4899 34.1034C11.4899 34.7157 11.9866 35.2124 12.5988 35.2124H49.5982C50.2105 35.2124 50.7072 34.7157 50.7072 34.1034C50.7072 33.4906 50.2105 32.9945 49.5982 32.9945H12.5994C11.9866 32.9945 11.4899 33.4906 11.4899 34.1034Z" fill="url(#paint6_linear_27_545)"/>
<path d="M12.5994 42.5967H50.0818C50.694 42.5967 51.1907 42.1006 51.1907 41.4877C51.1907 40.8755 50.694 40.3788 50.0818 40.3788H12.5994C11.9866 40.3788 11.4905 40.8755 11.4905 41.4877C11.4899 42.1006 11.9866 42.5967 12.5994 42.5967Z" fill="url(#paint7_linear_27_545)"/>
<path d="M49.1187 27.8275C49.731 27.8275 50.2276 27.3308 50.2276 26.7186C50.2276 26.1057 49.731 25.6096 49.1187 25.6096H32.1494C31.5365 25.6096 31.0404 26.1057 31.0404 26.7186C31.0404 27.3308 31.5371 27.8275 32.1494 27.8275H49.1187Z" fill="url(#paint8_linear_27_545)"/>
<path d="M72.0584 51.3702H71.6104C71.5486 51.2031 71.4828 51.0366 71.4124 50.8712L71.7191 50.5628C72.249 50.0358 72.5402 49.3332 72.5402 48.5836C72.5402 47.834 72.249 47.1307 71.7214 46.6066L69.8926 44.7761C69.3656 44.2457 68.663 43.9533 67.9134 43.9533C67.1638 43.9533 66.4605 44.2457 65.937 44.7732L65.7281 44.9821C65.5301 44.89 65.331 44.8036 65.1296 44.7223V44.4391C65.1296 42.8947 63.8759 41.6381 62.3344 41.6381H62.2068V9.43039C62.2068 7.38018 60.5399 5.71277 58.4914 5.71277H3.56885C1.52035 5.71277 -0.146484 7.38018 -0.146484 9.43039V51.4125C-0.146484 53.4628 1.52035 55.1302 3.56885 55.1302H21.8176C22.4305 55.1302 22.9271 54.6335 22.9271 54.0212C22.9271 53.409 22.4305 52.9123 21.8176 52.9123H3.56885C2.74315 52.9123 2.07138 52.2394 2.07138 51.4125V17.3457H24.5568C25.1696 17.3457 25.6657 16.849 25.6657 16.2368C25.6657 15.6245 25.169 15.1278 24.5568 15.1278H2.07138V9.43039C2.07138 8.60355 2.74315 7.93064 3.56885 7.93064H58.4914C59.3171 7.93064 59.9889 8.60355 59.9889 9.43039V15.1278H31.0279C30.4156 15.1278 29.9189 15.6245 29.9189 16.2368C29.9189 16.8496 30.4156 17.3457 31.0279 17.3457H59.9889V41.6381H59.7451C58.2042 41.6381 56.9499 42.8947 56.9499 44.4391V44.7223C56.7491 44.803 56.5499 44.89 56.352 44.9821L56.1454 44.7761C55.619 44.2457 54.9163 43.9533 54.1661 43.9533C53.4177 43.9533 52.7145 44.2445 52.1846 44.7744L50.361 46.6043C49.8317 47.1307 49.5399 47.834 49.5399 48.5836C49.5399 49.3332 49.8311 50.0364 50.3564 50.5582L50.6677 50.8712C50.5973 51.0366 50.5309 51.2031 50.4691 51.3702H50.0216C48.9316 51.3702 47.9875 51.9996 47.5268 52.9123H27.1037C26.4908 52.9123 25.9947 53.409 25.9947 54.0212C25.9947 54.6341 26.4914 55.1302 27.1037 55.1302H47.2264V56.7581C47.2264 58.3031 48.4807 59.5596 50.0216 59.5596H50.5721C50.6276 59.6998 50.6866 59.8383 50.7478 59.9756L50.361 60.3624C49.8322 60.8883 49.541 61.5898 49.5393 62.3377C49.5381 63.0884 49.8288 63.7934 50.3575 64.3221L52.188 66.1589C52.7162 66.6836 53.4188 66.9731 54.1661 66.9731C54.9146 66.9731 55.6167 66.683 56.1431 66.156L56.5345 65.7646C56.6724 65.8258 56.8109 65.8842 56.9499 65.9397V66.4907C56.9499 68.0323 58.2042 69.2871 59.7451 69.2871H62.3344C63.8759 69.2871 65.1296 68.0328 65.1296 66.4907V65.9397C65.2686 65.8842 65.4077 65.8258 65.545 65.7646L65.937 66.156C66.4628 66.683 67.1649 66.9731 67.9134 66.9731C68.6618 66.9731 69.3633 66.683 69.8898 66.156L71.7214 64.3232C72.2507 63.7934 72.5414 63.0884 72.5402 62.3377C72.5391 61.5898 72.2473 60.8883 71.7214 60.3653L71.3323 59.9756C71.3935 59.8383 71.4519 59.6998 71.508 59.5596H72.0584C73.5994 59.5596 74.8537 58.3031 74.8537 56.7581V54.1671C74.8537 52.6245 73.6 51.3702 72.0584 51.3702ZM72.6352 56.7581C72.6352 57.0745 72.3714 57.3412 72.0584 57.3412H70.7275C70.244 57.3412 69.816 57.6547 69.6701 58.1154C69.4978 58.659 69.2764 59.1814 69.012 59.6695C68.778 60.1009 68.8552 60.6348 69.2026 60.9821L70.1553 61.9348C70.3 62.0796 70.3224 62.2518 70.3224 62.3417C70.3224 62.4327 70.3006 62.6072 70.1524 62.7554L68.3208 64.5887C68.176 64.7335 68.0038 64.7547 67.9134 64.7547C67.8235 64.7547 67.6507 64.7335 67.5065 64.5887L66.5561 63.6377C66.2116 63.2927 65.6818 63.2131 65.2509 63.442C64.7416 63.7127 64.2164 63.9341 63.6876 64.1006C63.2259 64.246 62.9123 64.674 62.9123 65.1581V66.4902C62.9123 66.8095 62.6531 67.0692 62.3349 67.0692H59.7451C59.427 67.0692 59.1684 66.8095 59.1684 66.4902V65.1581C59.1684 64.674 58.8542 64.246 58.3924 64.1006C57.8637 63.9341 57.3379 63.7127 56.8292 63.442C56.665 63.3545 56.4864 63.3121 56.309 63.3121C56.0212 63.3121 55.7374 63.4243 55.524 63.6377L54.5741 64.5887C54.4294 64.7335 54.2565 64.7547 54.1661 64.7547C54.0752 64.7547 53.9006 64.7329 53.7559 64.5893L51.9277 62.7554C51.7795 62.6072 51.7577 62.4321 51.7577 62.3417C51.7577 62.2518 51.78 62.0796 51.9277 61.9325L52.8775 60.9815C53.2243 60.6348 53.3015 60.1009 53.0681 59.6695C52.8031 59.1808 52.5823 58.6578 52.41 58.1154C52.2641 57.6547 51.8361 57.3412 51.3526 57.3412H50.0216C49.7087 57.3412 49.4443 57.0745 49.4443 56.7581V54.1671C49.4443 53.853 49.7087 53.5881 50.0216 53.5881H51.2713C51.7663 53.5881 52.2012 53.2602 52.3374 52.7847C52.4959 52.2314 52.7145 51.6775 52.988 51.139C53.2043 50.7122 53.123 50.1949 52.7854 49.8556L51.9248 48.9904C51.7795 48.8456 51.7571 48.6734 51.7571 48.5836C51.7571 48.4937 51.7789 48.3215 51.9282 48.1733L53.7547 46.3411C53.9023 46.1935 54.0757 46.1717 54.1661 46.1717C54.2554 46.1717 54.4271 46.1935 54.5741 46.3411L55.3523 47.1204C55.7031 47.4712 56.2438 47.5467 56.6764 47.3058C57.2332 46.9963 57.8111 46.7445 58.3959 46.5585C58.8559 46.4115 59.1684 45.9846 59.1684 45.5017V44.4397C59.1684 44.1232 59.4321 43.8566 59.7451 43.8566H62.3344C62.6474 43.8566 62.9117 44.1232 62.9117 44.4397V45.5017C62.9117 45.9846 63.2236 46.4115 63.6836 46.5585C64.2684 46.7451 64.8469 46.9963 65.4025 47.3058C65.8351 47.5467 66.3764 47.4718 66.7266 47.121L67.5083 46.3388C67.6525 46.1935 67.8235 46.1717 67.9128 46.1717C68.0026 46.1717 68.1737 46.1935 68.3202 46.3417L70.1547 48.1767C70.3 48.3221 70.3218 48.4943 70.3218 48.5836C70.3218 48.6734 70.3 48.8456 70.1501 48.995L69.2941 49.8561C68.9571 50.1955 68.8753 50.7127 69.0916 51.139C69.3645 51.6781 69.5836 52.2319 69.7421 52.7847C69.8783 53.2608 70.3132 53.5886 70.8082 53.5886H72.0579C72.3709 53.5886 72.6346 53.8536 72.6346 54.1671V56.7581H72.6352Z" fill="url(#paint9_linear_27_545)"/>
<path d="M65.1325 51.1111C64.0201 50.064 62.5673 49.4872 61.0412 49.4872C59.4001 49.4872 57.8145 50.1727 56.6901 51.3686C54.4345 53.7679 54.5507 57.557 56.9482 59.8149C58.06 60.8621 59.5128 61.4383 61.0389 61.4383C62.68 61.4383 64.2656 60.7528 65.3894 59.5569C67.6456 57.1576 67.53 53.3685 65.1325 51.1111ZM63.7735 58.0377C63.0565 58.8004 62.0855 59.2204 61.0389 59.2204C60.0799 59.2204 59.1672 58.8576 58.4686 58.1996C56.9608 56.7799 56.8881 54.3967 58.3066 52.8878C59.0236 52.1251 59.9946 51.7051 61.0412 51.7051C61.9996 51.7051 62.9123 52.0673 63.6115 52.7253C65.1199 54.1455 65.1925 56.5287 63.7735 58.0377Z" fill="url(#paint10_linear_27_545)"/>
</g>
<defs>
<linearGradient id="paint0_linear_27_545" x1="7.64524" y1="10.1292" x2="7.64524" y2="12.347" gradientUnits="userSpaceOnUse">
<stop stop-color="#4579F5"/>
<stop offset="1" stop-color="white"/>
</linearGradient>
<linearGradient id="paint1_linear_27_545" x1="12.3336" y1="10.1292" x2="12.3336" y2="12.347" gradientUnits="userSpaceOnUse">
<stop stop-color="#4579F5"/>
<stop offset="1" stop-color="white"/>
</linearGradient>
<linearGradient id="paint2_linear_27_545" x1="17.0225" y1="10.1503" x2="17.0225" y2="12.3681" gradientUnits="userSpaceOnUse">
<stop stop-color="#4579F5"/>
<stop offset="1" stop-color="white"/>
</linearGradient>
<linearGradient id="paint3_linear_27_545" x1="18.4797" y1="20.045" x2="18.4797" y2="30.5094" gradientUnits="userSpaceOnUse">
<stop stop-color="#4579F5"/>
<stop offset="1" stop-color="white"/>
</linearGradient>
<linearGradient id="paint4_linear_27_545" x1="23.8107" y1="21.3817" x2="23.8107" y2="29.7593" gradientUnits="userSpaceOnUse">
<stop stop-color="#4579F5"/>
<stop offset="1" stop-color="white"/>
</linearGradient>
<linearGradient id="paint5_linear_27_545" x1="12.736" y1="21.4331" x2="12.736" y2="29.8067" gradientUnits="userSpaceOnUse">
<stop stop-color="#4579F5"/>
<stop offset="1" stop-color="white"/>
</linearGradient>
<linearGradient id="paint6_linear_27_545" x1="31.0985" y1="32.9945" x2="31.0985" y2="35.2124" gradientUnits="userSpaceOnUse">
<stop stop-color="#4579F5"/>
<stop offset="1" stop-color="white"/>
</linearGradient>
<linearGradient id="paint7_linear_27_545" x1="31.3406" y1="40.3788" x2="31.3406" y2="42.5967" gradientUnits="userSpaceOnUse">
<stop stop-color="#4579F5"/>
<stop offset="1" stop-color="white"/>
</linearGradient>
<linearGradient id="paint8_linear_27_545" x1="40.634" y1="25.6096" x2="40.634" y2="27.8275" gradientUnits="userSpaceOnUse">
<stop stop-color="#4579F5"/>
<stop offset="1" stop-color="white"/>
</linearGradient>
<linearGradient id="paint9_linear_27_545" x1="37.3536" y1="5.71277" x2="37.3536" y2="69.2871" gradientUnits="userSpaceOnUse">
<stop stop-color="#4579F5"/>
<stop offset="1" stop-color="white"/>
</linearGradient>
<linearGradient id="paint10_linear_27_545" x1="61.0401" y1="49.4872" x2="61.0401" y2="61.4383" gradientUnits="userSpaceOnUse">
<stop stop-color="#4579F5"/>
<stop offset="1" stop-color="white"/>
</linearGradient>
<clipPath id="clip0_27_545">
<rect width="75" height="75" fill="white"/>
</clipPath>
</defs>
</svg>
