<svg width="86" height="86" viewBox="0 0 86 86" fill="none" xmlns="http://www.w3.org/2000/svg">
<g clip-path="url(#clip0_293_1159)">
<path d="M0.5 43V0.5H85.5V85.5H0.5" fill="#E2E8F0"/>
<path d="M19.1367 43.1488V46.6125H30.1867V78.0625H38.028V46.6125H49.078V43.2125C49.078 41.3 49.078 39.7488 48.993 39.7063C48.993 39.6425 42.2567 39.6213 34.0755 39.6213L19.2005 39.685V43.17L19.1367 43.1488ZM68.798 39.6C70.9655 40.11 72.623 41.0875 74.1105 42.6388C74.8967 43.4888 76.0655 44.9763 76.1505 45.3588C76.1505 45.4863 72.4742 47.9725 70.243 49.3538C70.158 49.4175 69.818 49.0563 69.478 48.5038C68.373 46.9313 67.2467 46.2513 65.483 46.1238C62.933 45.9538 61.233 47.2925 61.233 49.5238C61.233 50.2038 61.3605 50.5863 61.6155 51.1388C62.1892 52.3075 63.2517 53.0088 66.5455 54.4538C72.623 57.0675 75.258 58.7888 76.8517 61.2538C78.658 64.0163 79.0617 68.3513 77.8505 71.6025C76.4905 75.1513 73.1755 77.5525 68.4367 78.3388C66.9492 78.5938 63.5492 78.5513 61.9555 78.275C58.5555 77.6375 55.3042 75.9375 53.3067 73.7488C52.5205 72.8988 51.0117 70.625 51.0967 70.4763L51.9042 69.9663L55.0917 68.1175L57.493 66.715L58.0455 67.4588C58.7467 68.5638 60.3192 70.0513 61.233 70.5613C63.9955 71.985 67.693 71.7938 69.5205 70.1363C70.3067 69.4138 70.6467 68.6488 70.6467 67.5863C70.6467 66.6088 70.498 66.1625 70.0092 65.4188C69.3292 64.4838 67.9692 63.7188 64.1442 62.0188C59.7455 60.1488 57.8755 58.9588 56.133 57.1313C55.1342 56.0263 54.2205 54.305 53.7955 52.8813C53.4767 51.6488 53.3705 48.6313 53.668 47.42C54.5817 43.17 57.7905 40.195 62.3805 39.345C63.868 39.0475 67.3742 39.175 68.8405 39.5575L68.798 39.6Z" fill="#1E293B"/>
</g>
<defs>
<clipPath id="clip0_293_1159">
<rect width="85" height="85" fill="white" transform="translate(0.5 0.5)"/>
</clipPath>
</defs>
</svg>
