<svg width="592" height="517" viewBox="0 0 592 517" fill="none" xmlns="http://www.w3.org/2000/svg">
<path d="M286.86 274.092L239.519 246.712V301.473L286.86 328.853L334.201 301.473V246.712L286.86 274.092Z" fill="url(#paint0_linear_488_792)"/>
<path d="M286.86 328.853L239.519 301.473V246.712L286.86 274.092V328.853Z" fill="url(#paint1_linear_488_792)"/>
<path d="M334.201 301.473L286.86 328.853V274.092L334.201 246.712V301.473Z" fill="url(#paint2_linear_488_792)"/>
<path d="M286.86 274.092L239.519 246.712L286.86 219.331L334.201 246.712L286.86 274.092Z" fill="url(#paint3_linear_488_792)"/>
<path d="M286.86 274.092L241.562 247.895L239.519 249.097L286.86 276.459L334.201 249.097L332.139 247.895L286.86 274.092Z" fill="white"/>
<path d="M348.357 309.248L301.015 281.867V336.609L348.357 363.99L395.698 336.609V281.867L348.357 309.248Z" fill="url(#paint4_linear_488_792)"/>
<path d="M348.357 363.99L301.015 336.609V281.867L348.357 309.248V363.99Z" fill="url(#paint5_linear_488_792)"/>
<path d="M395.698 336.609L348.357 363.99V309.248L395.698 281.867V336.609Z" fill="url(#paint6_linear_488_792)"/>
<path d="M348.357 309.248L301.015 281.867L348.357 254.487L395.698 281.867L348.357 309.248Z" fill="url(#paint7_linear_488_792)"/>
<path d="M348.357 309.248L303.059 283.05L301.015 284.233L348.357 311.614L395.698 284.233L393.635 283.05L348.357 309.248Z" fill="white"/>
<path d="M409.853 344.384L362.512 317.004V371.765L409.853 399.145L457.195 371.765V317.004L409.853 344.384Z" fill="url(#paint8_linear_488_792)"/>
<path d="M409.853 399.145L362.512 371.765V317.004L409.853 344.384V399.145Z" fill="url(#paint9_linear_488_792)"/>
<path d="M457.195 371.765L409.853 399.145V344.384L457.195 317.004V371.765Z" fill="url(#paint10_linear_488_792)"/>
<path d="M409.853 344.384L362.512 317.004L409.853 289.623L457.195 317.004L409.853 344.384Z" fill="url(#paint11_linear_488_792)"/>
<path d="M409.853 344.384L364.556 318.187L362.512 319.389L409.853 346.75L457.195 319.389V317.004L409.853 344.384Z" fill="white"/>
<path d="M225.363 311.614L178.022 284.233V338.994L225.363 366.375L272.704 338.994V284.233L225.363 311.614Z" fill="url(#paint12_linear_488_792)"/>
<path d="M225.363 366.375L178.022 338.994V284.233L225.363 311.614V366.375Z" fill="url(#paint13_linear_488_792)"/>
<path d="M272.704 338.994L225.363 366.375V311.614L272.704 284.233V338.994Z" fill="url(#paint14_linear_488_792)"/>
<path d="M225.363 311.614L178.022 284.233L225.363 256.853L272.704 284.233L225.363 311.614Z" fill="url(#paint15_linear_488_792)"/>
<path d="M225.363 311.614L180.066 285.416L178.022 286.6L225.363 313.98L272.704 286.618L270.642 285.416L225.363 311.614Z" fill="white"/>
<path d="M286.86 346.75L239.519 319.389V374.131L286.86 401.511L334.201 374.131V319.389L286.86 346.75Z" fill="url(#paint16_linear_488_792)"/>
<path d="M286.86 401.511L239.519 374.131V319.389L286.86 346.75V401.511Z" fill="url(#paint17_linear_488_792)"/>
<path d="M334.201 374.131L286.86 401.511V346.75L334.201 319.389V374.131Z" fill="url(#paint18_linear_488_792)"/>
<path d="M286.86 346.75L239.519 319.389L286.86 292.008L334.201 319.389L286.86 346.75Z" fill="url(#paint19_linear_488_792)"/>
<path d="M286.86 346.75L241.562 320.572L239.519 321.755L286.86 349.135L334.201 321.755L332.139 320.572L286.86 346.75Z" fill="white"/>
<path d="M348.357 381.906L301.015 354.525V409.286L348.357 436.648L395.698 409.286V354.525L348.357 381.906Z" fill="url(#paint20_linear_488_792)"/>
<path d="M348.357 436.648L301.015 409.286V354.525L348.357 381.906V436.648Z" fill="url(#paint21_linear_488_792)"/>
<path d="M395.698 409.286L348.357 436.648V381.906L395.698 354.525V409.286Z" fill="url(#paint22_linear_488_792)"/>
<path d="M348.357 381.906L301.015 354.525L348.357 327.145L395.698 354.525L348.357 381.906Z" fill="url(#paint23_linear_488_792)"/>
<path d="M348.357 381.906L303.059 355.708L301.015 356.891L348.357 384.272L395.698 356.891V354.525L348.357 381.906Z" fill="white"/>
<path d="M163.866 349.135L116.525 321.755V376.516L163.866 403.896L211.208 376.516V321.755L163.866 349.135Z" fill="url(#paint24_linear_488_792)"/>
<path d="M163.866 403.896L116.525 376.516V321.755L163.866 349.135V403.896Z" fill="url(#paint25_linear_488_792)"/>
<path d="M211.208 376.516L163.866 403.896V349.135L211.208 321.755V376.516Z" fill="url(#paint26_linear_488_792)"/>
<path d="M163.866 349.135L116.525 321.755L163.866 294.374L211.208 321.755L163.866 349.135Z" fill="url(#paint27_linear_488_792)"/>
<path d="M163.866 349.135L116.525 321.755V324.14L163.866 351.502L211.208 324.14L209.145 322.938L163.866 349.135Z" fill="white"/>
<path d="M225.363 384.272L178.022 356.891V411.652L225.363 439.033L272.704 411.652V356.891L225.363 384.272Z" fill="url(#paint28_linear_488_792)"/>
<path d="M225.363 439.033L178.022 411.652V356.891L225.363 384.272V439.033Z" fill="url(#paint29_linear_488_792)"/>
<path d="M272.704 411.652L225.363 439.033V384.272L272.704 356.891V411.652Z" fill="url(#paint30_linear_488_792)"/>
<path d="M225.363 384.272L178.022 356.891L225.363 329.53L272.704 356.891L225.363 384.272Z" fill="url(#paint31_linear_488_792)"/>
<path d="M225.363 384.272L178.022 356.891V359.276L225.363 386.657L272.704 359.276L270.642 358.093L225.363 384.272Z" fill="white"/>
<path d="M286.86 419.427L239.519 392.047V446.808L286.86 474.169L334.201 446.808V392.047L286.86 419.427Z" fill="url(#paint32_linear_488_792)"/>
<path d="M286.86 474.169L239.519 446.808V392.047L286.86 419.427V474.169Z" fill="url(#paint33_linear_488_792)"/>
<path d="M334.201 446.808L286.86 474.169V419.427L334.201 392.047V446.808Z" fill="url(#paint34_linear_488_792)"/>
<path d="M286.86 419.427L239.519 392.047L286.86 364.666L334.201 392.047L286.86 419.427Z" fill="url(#paint35_linear_488_792)"/>
<path d="M286.86 419.427L239.519 392.047V394.413L286.86 421.793L334.201 394.413V392.047L286.86 419.427Z" fill="white"/>
<path d="M286.86 201.434L239.519 174.054V228.796L286.86 256.177L334.201 228.796V174.054L286.86 201.434Z" fill="url(#paint36_linear_488_792)"/>
<path d="M286.86 256.177L239.519 228.796V174.054L286.86 201.434V256.177Z" fill="url(#paint37_linear_488_792)"/>
<path d="M334.201 228.796L286.86 256.177V201.434L334.201 174.054V228.796Z" fill="url(#paint38_linear_488_792)"/>
<path d="M286.86 201.434L239.519 174.054L286.86 146.673L334.201 174.054L286.86 201.434Z" fill="url(#paint39_linear_488_792)"/>
<path d="M286.86 201.434L241.562 175.237L239.519 176.42L286.86 203.801L334.201 176.42L332.139 175.237L286.86 201.434Z" fill="white"/>
<path opacity="0.7" d="M286.86 410.507L254.555 391.821L286.86 373.154L319.146 391.821L286.86 410.507Z" fill="url(#paint40_linear_488_792)"/>
<path opacity="0.7" d="M225.363 375.37L193.059 356.685L225.363 337.999L257.649 356.685L225.363 375.37Z" fill="url(#paint41_linear_488_792)"/>
<path opacity="0.7" d="M348.357 372.985L316.052 354.319L348.357 335.633L380.642 354.319L348.357 372.985Z" fill="url(#paint42_linear_488_792)"/>
<path opacity="0.7" d="M409.966 335.896L377.68 317.229L409.966 298.543L442.252 317.229L409.966 335.896Z" fill="url(#paint43_linear_488_792)"/>
<path opacity="0.7" d="M163.866 340.215L131.562 321.548L163.866 302.863L196.152 321.548L163.866 340.215Z" fill="url(#paint44_linear_488_792)"/>
<path d="M348.357 236.571L301.015 209.19V263.952L348.357 291.332L395.698 263.952V209.19L348.357 236.571Z" fill="url(#paint45_linear_488_792)"/>
<path d="M348.357 291.332L301.015 263.952V209.19L348.357 236.571V291.332Z" fill="url(#paint46_linear_488_792)"/>
<path d="M395.698 263.952L348.357 291.332V236.571L395.698 209.19V263.952Z" fill="url(#paint47_linear_488_792)"/>
<path d="M348.357 236.571L301.015 209.19L348.357 181.81L395.698 209.19L348.357 236.571Z" fill="url(#paint48_linear_488_792)"/>
<path d="M348.357 236.571L303.059 210.392L301.015 211.575L348.357 238.956L395.698 211.575L393.635 210.392L348.357 236.571Z" fill="white"/>
<path d="M409.853 271.726L362.512 244.346V299.088L409.853 326.468L457.195 299.088V244.346L409.853 271.726Z" fill="url(#paint49_linear_488_792)"/>
<path d="M409.853 326.468L362.512 299.088V244.346L409.853 271.726V326.468Z" fill="url(#paint50_linear_488_792)"/>
<path d="M457.195 299.088L409.853 326.468V271.726L457.195 244.346V299.088Z" fill="url(#paint51_linear_488_792)"/>
<path d="M409.853 271.726L362.512 244.346L409.853 216.965L457.195 244.346L409.853 271.726Z" fill="url(#paint52_linear_488_792)"/>
<path d="M409.853 271.726L364.556 245.529L362.512 246.712L409.853 274.092L457.195 246.712V244.346L409.853 271.726Z" fill="white"/>
<path d="M225.363 238.956L178.022 211.575V266.318L225.363 293.698L272.704 266.318V211.575L225.363 238.956Z" fill="url(#paint53_linear_488_792)"/>
<path d="M225.363 293.698L178.022 266.318V211.575L225.363 238.956V293.698Z" fill="url(#paint54_linear_488_792)"/>
<path d="M272.704 266.318L225.363 293.698V238.956L272.704 211.575V266.318Z" fill="url(#paint55_linear_488_792)"/>
<path d="M225.363 238.956L178.022 211.575L225.363 184.195L272.704 211.575L225.363 238.956Z" fill="url(#paint56_linear_488_792)"/>
<path d="M225.363 238.956L180.066 212.759L178.022 213.942L225.363 241.322L272.704 213.942L270.642 212.759L225.363 238.956Z" fill="white"/>
<path d="M286.86 274.092L239.519 246.712V301.473L286.86 328.853L334.201 301.473V246.712L286.86 274.092Z" fill="url(#paint57_linear_488_792)"/>
<path d="M286.86 328.853L239.519 301.473V246.712L286.86 274.092V328.853Z" fill="url(#paint58_linear_488_792)"/>
<path d="M334.201 301.473L286.86 328.853V274.092L334.201 246.712V301.473Z" fill="url(#paint59_linear_488_792)"/>
<path d="M286.86 274.092L239.519 246.712L286.86 219.331L334.201 246.712L286.86 274.092Z" fill="url(#paint60_linear_488_792)"/>
<path d="M286.86 274.092L241.562 247.895L239.519 249.097L286.86 276.459L334.201 249.097L332.139 247.914L286.86 274.092Z" fill="white"/>
<path d="M348.357 309.248L301.015 281.867V336.609L348.357 363.99L395.698 336.609V281.867L348.357 309.248Z" fill="url(#paint61_linear_488_792)"/>
<path d="M348.357 363.99L301.015 336.609V281.867L348.357 309.248V363.99Z" fill="url(#paint62_linear_488_792)"/>
<path d="M395.698 336.609L348.357 363.99V309.248L395.698 281.867V336.609Z" fill="url(#paint63_linear_488_792)"/>
<path d="M348.357 309.248L301.015 281.867L348.357 254.487L395.698 281.867L348.357 309.248Z" fill="url(#paint64_linear_488_792)"/>
<path d="M348.357 309.248L303.059 283.05L301.015 284.233L348.357 311.614L395.698 284.233V281.867L348.357 309.248Z" fill="white"/>
<path d="M163.866 276.459L116.525 249.097V303.839L163.866 331.22L211.208 303.839V249.097L163.866 276.459Z" fill="url(#paint65_linear_488_792)"/>
<path d="M163.866 331.22L116.525 303.839V249.097L163.866 276.459V331.22Z" fill="url(#paint66_linear_488_792)"/>
<path d="M211.208 303.839L163.866 331.22V276.459L211.208 249.097V303.839Z" fill="url(#paint67_linear_488_792)"/>
<path d="M163.866 276.459L116.525 249.097L163.866 221.716L211.208 249.097L163.866 276.459Z" fill="url(#paint68_linear_488_792)"/>
<path d="M163.866 276.459L118.569 250.28L116.525 251.463L163.866 278.844L211.208 251.463L209.145 250.28L163.866 276.459Z" fill="white"/>
<path d="M225.363 311.614L178.022 284.233V338.994L225.363 366.375L272.704 338.994V284.233L225.363 311.614Z" fill="url(#paint69_linear_488_792)"/>
<path d="M225.363 366.375L178.022 338.994V284.233L225.363 311.614V366.375Z" fill="url(#paint70_linear_488_792)"/>
<path d="M272.704 338.994L225.363 366.375V311.614L272.704 284.233V338.994Z" fill="url(#paint71_linear_488_792)"/>
<path d="M225.363 311.614L178.022 284.233L225.363 256.853L272.704 284.233L225.363 311.614Z" fill="url(#paint72_linear_488_792)"/>
<path d="M225.363 311.614L178.022 284.233V286.618L225.363 313.98L272.704 286.618L270.642 285.416L225.363 311.614Z" fill="white"/>
<path d="M286.86 346.75L239.519 319.389V374.131L286.86 401.511L334.201 374.131V319.389L286.86 346.75Z" fill="url(#paint73_linear_488_792)"/>
<path d="M286.86 401.511L239.519 374.131V319.389L286.86 346.75V401.511Z" fill="url(#paint74_linear_488_792)"/>
<path d="M334.201 374.131L286.86 401.511V346.75L334.201 319.389V374.131Z" fill="url(#paint75_linear_488_792)"/>
<path d="M286.86 346.75L239.519 319.389L286.86 292.008L334.201 319.389L286.86 346.75Z" fill="url(#paint76_linear_488_792)"/>
<path d="M286.86 346.75L239.519 319.389V321.755L286.86 349.135L334.201 321.755V319.389L286.86 346.75Z" fill="white"/>
<path opacity="0.7" d="M409.966 263.557L377.68 244.871L409.966 226.205L442.252 244.871L409.966 263.557Z" fill="url(#paint77_linear_488_792)"/>
<path opacity="0.7" d="M163.866 267.876L131.562 249.191L163.866 230.524L196.152 249.191L163.866 267.876Z" fill="url(#paint78_linear_488_792)"/>
<path d="M286.86 128.758L239.519 101.377V156.138L286.86 183.519L334.201 156.138V101.377L286.86 128.758Z" fill="url(#paint79_linear_488_792)"/>
<path d="M286.86 183.519L239.519 156.138V101.377L286.86 128.758V183.519Z" fill="url(#paint80_linear_488_792)"/>
<path d="M334.201 156.138L286.86 183.519V128.758L334.201 101.377V156.138Z" fill="url(#paint81_linear_488_792)"/>
<path d="M286.86 128.758L239.519 101.377L286.86 74.0155L334.201 101.377L286.86 128.758Z" fill="url(#paint82_linear_488_792)"/>
<path d="M286.86 128.758L239.519 101.377V103.762L286.86 131.143L334.201 103.762V101.377L286.86 128.758Z" fill="white"/>
<path d="M348.357 163.913L301.015 136.532V191.294L348.357 218.655L395.698 191.294V136.532L348.357 163.913Z" fill="url(#paint83_linear_488_792)"/>
<path d="M348.357 218.655L301.015 191.294V136.532L348.357 163.913V218.655Z" fill="url(#paint84_linear_488_792)"/>
<path d="M395.698 191.294L348.357 218.655V163.913L395.698 136.532V191.294Z" fill="url(#paint85_linear_488_792)"/>
<path d="M348.357 163.913L301.015 136.532L348.357 109.152L395.698 136.532L348.357 163.913Z" fill="url(#paint86_linear_488_792)"/>
<path d="M348.357 163.913L301.015 136.532V138.899L348.357 166.279L395.698 138.899V136.532L348.357 163.913Z" fill="white"/>
<path d="M409.853 199.049L362.512 171.669V226.43L409.853 253.811L457.195 226.43V171.669L409.853 199.049Z" fill="url(#paint87_linear_488_792)"/>
<path d="M409.853 253.811L362.512 226.43V171.669L409.853 199.049V253.811Z" fill="url(#paint88_linear_488_792)"/>
<path d="M457.195 226.43L409.853 253.811V199.049L457.195 171.669V226.43Z" fill="url(#paint89_linear_488_792)"/>
<path d="M409.853 199.049L362.512 171.669L409.853 144.307L457.195 171.669L409.853 199.049Z" fill="url(#paint90_linear_488_792)"/>
<path d="M409.853 199.049L362.512 171.669V174.054L409.853 201.434L457.195 174.054V171.669L409.853 199.049Z" fill="white"/>
<path d="M225.363 166.279L178.022 138.899V193.66L225.363 221.04L272.704 193.66V138.899L225.363 166.279Z" fill="url(#paint91_linear_488_792)"/>
<path d="M225.363 221.04L178.022 193.66V138.899L225.363 166.279V221.04Z" fill="url(#paint92_linear_488_792)"/>
<path d="M272.704 193.66L225.363 221.04V166.279L272.704 138.899V193.66Z" fill="url(#paint93_linear_488_792)"/>
<path d="M225.363 166.279L178.022 138.899L225.363 111.537L272.704 138.899L225.363 166.279Z" fill="url(#paint94_linear_488_792)"/>
<path d="M225.363 166.279L178.022 138.899V141.284L225.363 168.664L272.704 141.284V138.899L225.363 166.279Z" fill="white"/>
<path d="M163.866 203.801L116.525 176.42V231.181L163.866 258.562L211.208 231.181V176.42L163.866 203.801Z" fill="url(#paint95_linear_488_792)"/>
<path d="M163.866 258.562L116.525 231.181V176.42L163.866 203.801V258.562Z" fill="url(#paint96_linear_488_792)"/>
<path d="M211.208 231.181L163.866 258.562V203.801L211.208 176.42V231.181Z" fill="url(#paint97_linear_488_792)"/>
<path d="M163.866 203.801L116.525 176.42L163.866 149.058L211.208 176.42L163.866 203.801Z" fill="url(#paint98_linear_488_792)"/>
<path d="M163.866 203.801L116.525 176.42V178.805L163.866 206.186L211.208 178.805V176.42L163.866 203.801Z" fill="white"/>
<path opacity="0.1" d="M553.677 381.906L515.354 359.746V404.065L553.677 426.225L592 404.065V359.746L553.677 381.906Z" fill="url(#paint99_linear_488_792)"/>
<path opacity="0.1" d="M553.677 426.225L515.354 404.065V359.746L553.677 381.906V426.225Z" fill="url(#paint100_linear_488_792)"/>
<path opacity="0.1" d="M592 404.065L553.677 426.225V381.906L592 359.746V404.065Z" fill="url(#paint101_linear_488_792)"/>
<path opacity="0.1" d="M553.677 381.906L515.354 359.746L553.677 337.586L592 359.746L553.677 381.906Z" fill="url(#paint102_linear_488_792)"/>
<g opacity="0.1">
<path d="M553.677 381.906L517.004 360.704L515.354 361.661L553.677 383.821L592 361.661L590.331 360.704L553.677 381.906Z" fill="white"/>
</g>
<path opacity="0.4" d="M553.677 362.375L515.354 340.215L553.677 318.055L592 340.215L553.677 362.375Z" fill="#03002D"/>
<path d="M553.677 278.844L515.354 256.684V301.003L553.677 323.163L592 301.003V256.684L553.677 278.844Z" fill="url(#paint103_linear_488_792)"/>
<path d="M553.677 323.163L515.354 301.003V256.684L553.677 278.844V323.163Z" fill="url(#paint104_linear_488_792)"/>
<path d="M592 301.003L553.677 323.163V278.844L592 256.684V301.003Z" fill="url(#paint105_linear_488_792)"/>
<path d="M553.677 278.844L515.354 256.684L553.677 234.524L592 256.684L553.677 278.844Z" fill="url(#paint106_linear_488_792)"/>
<path d="M553.677 278.844L517.004 257.642L515.354 258.599L553.677 280.759L592 258.599L590.331 257.642L553.677 278.844Z" fill="white"/>
<path d="M36.9543 115.537L11.0994 100.589V130.485L36.9543 145.434L62.7905 130.485V100.589L36.9543 115.537Z" fill="url(#paint107_linear_488_792)"/>
<path d="M36.9543 145.434L11.0994 130.485V100.589L36.9543 115.537V145.434Z" fill="url(#paint108_linear_488_792)"/>
<path d="M62.7904 130.485L36.9543 145.434V115.537L62.7904 100.589V130.485Z" fill="url(#paint109_linear_488_792)"/>
<path d="M36.9543 115.537L11.0994 100.589L36.9543 85.64L62.7905 100.589L36.9543 115.537Z" fill="url(#paint110_linear_488_792)"/>
<path opacity="0.4" d="M36.9543 196.758L11.0994 181.81L36.9543 166.861L62.7905 181.81L36.9543 196.758Z" fill="#03002D"/>
<path d="M36.9543 115.537L12.2244 101.227L11.0994 101.884L36.9543 116.833L62.7905 101.884L61.6843 101.227L36.9543 115.537Z" fill="white"/>
<path opacity="0.1" d="M36.9543 238.956L11.0994 224.007V253.904L36.9543 268.853L62.7905 253.904V224.007L36.9543 238.956Z" fill="url(#paint111_linear_488_792)"/>
<path opacity="0.1" d="M36.9543 268.853L11.0994 253.904V224.007L36.9543 238.956V268.853Z" fill="url(#paint112_linear_488_792)"/>
<path opacity="0.1" d="M62.7904 253.904L36.9543 268.853V238.956L62.7904 224.007V253.904Z" fill="url(#paint113_linear_488_792)"/>
<path opacity="0.1" d="M36.9543 238.956L11.0994 224.007L36.9543 209.059L62.7905 224.007L36.9543 238.956Z" fill="url(#paint114_linear_488_792)"/>
<g opacity="0.1">
<path d="M36.9543 238.956L12.2244 224.646L11.0994 225.303L36.9543 240.252L62.7905 225.303L61.6843 224.646L36.9543 238.956Z" fill="white"/>
</g>
<path opacity="0.1" d="M36.9543 474.169L0 452.817V495.54L36.9543 516.912L73.9086 495.54V452.817L36.9543 474.169Z" fill="url(#paint115_linear_488_792)"/>
<path opacity="0.1" d="M36.9543 516.912L0 495.54V452.817L36.9543 474.169V516.912Z" fill="url(#paint116_linear_488_792)"/>
<path opacity="0.1" d="M73.9086 495.54L36.9543 516.912V474.169L73.9086 452.817V495.54Z" fill="url(#paint117_linear_488_792)"/>
<path opacity="0.1" d="M36.9543 474.169L0 452.817L36.9543 431.446L73.8898 452.817L36.9543 474.169Z" fill="url(#paint118_linear_488_792)"/>
<g opacity="0.1">
<path d="M36.9543 474.169L1.59367 453.737L0 454.657L36.9543 476.029L73.8898 454.657L72.2962 453.737L36.9543 474.169Z" fill="white"/>
</g>
<path opacity="0.4" d="M36.9543 460.404L0 439.033L36.9543 417.662L73.8898 439.033L36.9543 460.404Z" fill="#03002D"/>
<path d="M36.9543 393.568L0 372.197V414.939L36.9543 436.31L73.9086 414.939V372.197L36.9543 393.568Z" fill="url(#paint119_linear_488_792)"/>
<path d="M36.9543 436.31L0 414.939V372.197L36.9543 393.568V436.31Z" fill="url(#paint120_linear_488_792)"/>
<path d="M73.9086 414.939L36.9543 436.31V393.568L73.9086 372.197V414.939Z" fill="url(#paint121_linear_488_792)"/>
<path d="M36.9543 393.568L0 372.197L36.9543 350.826L73.8898 372.197L36.9543 393.568Z" fill="url(#paint122_linear_488_792)"/>
<path d="M36.9543 393.568L1.59367 373.136L0 374.056L36.9543 395.427L73.8898 374.056L72.2962 373.136L36.9543 393.568Z" fill="white"/>
<path d="M179.597 130.88C171.591 125.622 159.217 110.053 163.435 103.631C167.654 97.2082 186.815 102.41 194.821 107.668C202.827 112.927 205.902 122.41 201.702 128.814C197.502 135.218 187.603 136.138 179.597 130.88Z" fill="url(#paint123_radial_488_792)"/>
<path style="mix-blend-mode:lighten" d="M179.597 130.88C171.591 125.622 159.217 110.053 163.435 103.631C167.654 97.2082 186.815 102.41 194.821 107.668C202.827 112.927 205.902 122.41 201.702 128.814C197.502 135.218 187.603 136.138 179.597 130.88Z" fill="url(#paint124_linear_488_792)"/>
<path d="M232.956 145.622C232.481 145.626 232.01 145.536 231.569 145.359L198.552 132.213C197.634 131.843 196.899 131.123 196.508 130.212C196.117 129.301 196.102 128.271 196.466 127.349C196.83 126.427 197.543 125.686 198.45 125.288C199.358 124.891 200.385 124.869 201.308 125.227L234.344 138.373C235.156 138.694 235.831 139.29 236.252 140.057C236.673 140.824 236.813 141.714 236.648 142.573C236.484 143.432 236.025 144.207 235.351 144.764C234.677 145.321 233.83 145.624 232.956 145.622Z" fill="url(#paint125_linear_488_792)"/>
<path d="M369.299 232.139C368.554 232.138 367.825 231.913 367.208 231.495C366.59 231.077 366.11 230.484 365.831 229.792L345.207 178.749C344.986 178.286 344.862 177.784 344.842 177.271C344.822 176.759 344.908 176.248 345.093 175.77C345.277 175.292 345.558 174.857 345.917 174.492C346.276 174.127 346.706 173.839 347.18 173.646C347.655 173.454 348.163 173.361 348.675 173.372C349.186 173.384 349.69 173.501 350.155 173.715C350.62 173.929 351.037 174.236 351.379 174.617C351.721 174.999 351.981 175.446 352.144 175.932L372.768 226.975C372.998 227.544 373.085 228.162 373.021 228.773C372.958 229.384 372.745 229.97 372.403 230.48C372.061 230.989 371.599 231.407 371.057 231.697C370.516 231.986 369.913 232.138 369.299 232.139Z" fill="url(#paint126_linear_488_792)"/>
<path d="M254.243 163.294C263.413 157.097 265.832 144.627 259.645 135.442C253.457 126.257 241.008 123.834 231.837 130.032C222.667 136.229 220.249 148.699 226.436 157.884C232.623 167.069 245.073 169.492 254.243 163.294Z" fill="url(#paint127_radial_488_792)"/>
<g style="mix-blend-mode:lighten">
<path d="M252.53 128.701C255.872 130.831 258.508 133.906 260.105 137.537C261.702 141.168 262.187 145.191 261.501 149.099C260.814 153.006 258.986 156.622 256.248 159.488C253.509 162.355 249.984 164.344 246.117 165.203C242.25 166.062 238.215 165.753 234.524 164.316C230.832 162.878 227.649 160.376 225.377 157.126C223.105 153.876 221.847 150.024 221.761 146.057C221.675 142.091 222.765 138.188 224.894 134.842C227.751 130.363 232.264 127.201 237.445 126.049C242.626 124.898 248.051 125.852 252.53 128.701Z" fill="url(#paint128_linear_488_792)"/>
</g>
<path d="M341.551 181.998C341.551 220.909 318.433 252.44 289.897 252.44C261.361 252.44 238.244 220.909 238.244 181.998C238.244 143.087 261.361 131.443 289.897 131.443C318.433 131.443 341.551 143.105 341.551 181.998Z" fill="url(#paint129_radial_488_792)"/>
<g style="mix-blend-mode:lighten">
<path d="M341.551 181.998C341.551 220.909 318.433 252.44 289.897 252.44C261.361 252.44 238.244 220.909 238.244 181.998C238.244 143.087 261.361 131.443 289.897 131.443C318.433 131.443 341.551 143.105 341.551 181.998Z" fill="url(#paint130_linear_488_792)"/>
</g>
<path d="M314.833 166.768C301.053 174.73 278.742 174.73 264.961 166.768C251.18 158.805 251.199 145.903 264.961 137.941C278.723 129.978 301.053 129.978 314.833 137.941C328.614 145.903 328.595 158.824 314.833 166.768Z" fill="#393091"/>
<path d="M264.998 143.368C278.779 135.406 301.09 135.406 314.871 143.368C320.496 146.655 323.889 150.88 324.864 155.068C326.27 149.002 322.989 142.617 314.871 137.941C301.09 129.978 278.779 129.978 264.998 137.941C256.918 142.617 253.599 149.002 255.005 155.068C255.943 150.88 259.374 146.655 264.998 143.368Z" fill="url(#paint131_linear_488_792)"/>
<path d="M274.523 77.0202C274.244 82.1911 272.75 87.2231 270.164 91.7068C267.577 96.1904 263.97 99.9992 259.636 102.823C251.424 107.574 244.768 103.725 244.768 94.2223C244.768 84.7198 251.424 73.1704 259.636 68.438C267.848 63.7055 274.523 67.5366 274.523 77.0202Z" fill="#BCBEFF"/>
<path d="M291.96 156.476C321.057 156.476 344.644 132.85 344.644 103.706C344.644 74.5616 321.057 50.9355 291.96 50.9355C262.863 50.9355 239.275 74.5616 239.275 103.706C239.275 132.85 262.863 156.476 291.96 156.476Z" fill="url(#paint132_radial_488_792)"/>
<g style="mix-blend-mode:lighten">
<path d="M291.96 156.476C321.057 156.476 344.644 132.85 344.644 103.706C344.644 74.5616 321.057 50.9355 291.96 50.9355C262.863 50.9355 239.275 74.5616 239.275 103.706C239.275 132.85 262.863 156.476 291.96 156.476Z" fill="url(#paint133_linear_488_792)"/>
</g>
<path d="M275.517 128.683C274.167 139.068 266.348 142.335 258.043 135.969C249.737 129.603 244.112 116.044 245.443 105.678C246.774 95.3115 254.612 92.0251 262.917 98.3913C271.223 104.758 276.848 118.316 275.517 128.683Z" fill="#393091"/>
<path d="M268.748 119.706C268.261 123.462 265.411 124.664 262.392 122.354C260.818 121.01 259.583 119.313 258.788 117.401C257.993 115.488 257.661 113.415 257.818 111.349C258.305 107.593 261.155 106.391 264.174 108.701C265.748 110.045 266.983 111.742 267.778 113.654C268.573 115.567 268.905 117.64 268.748 119.706Z" fill="url(#paint134_linear_488_792)"/>
<path d="M262.036 134.467C253.73 128.1 248.087 114.542 249.437 104.157C249.542 102.437 249.991 100.756 250.757 99.2141C251.524 97.672 252.592 96.3001 253.899 95.18C249.568 95.5931 246.287 99.2739 245.443 105.678C244.112 116.044 249.737 129.622 258.043 135.969C262.955 139.725 267.698 140.119 271.036 137.659C267.742 137.764 264.529 136.625 262.036 134.467Z" fill="#453C9E"/>
<path d="M258.755 135.631C250.449 129.284 244.825 115.706 246.156 105.34C246.793 100.532 248.799 97.2457 251.612 95.7434C248.424 97.0579 246.118 100.476 245.443 105.678C244.112 116.044 249.737 129.622 258.043 135.969C262.505 139.387 266.817 140.025 270.061 138.279C266.873 139.612 262.899 138.805 258.755 135.631Z" fill="url(#paint135_linear_488_792)"/>
<path d="M357.155 195.433C367.163 190.744 371.48 178.817 366.799 168.793C362.117 158.769 350.209 154.444 340.202 159.133C330.194 163.822 325.876 175.75 330.558 185.774C335.239 195.798 347.147 200.122 357.155 195.433Z" fill="url(#paint136_radial_488_792)"/>
<g style="mix-blend-mode:lighten">
<path d="M357.155 195.433C367.163 190.744 371.48 178.817 366.799 168.793C362.117 158.769 350.209 154.444 340.202 159.133C330.194 163.822 325.876 175.75 330.558 185.774C335.239 195.798 347.147 200.122 357.155 195.433Z" fill="url(#paint137_linear_488_792)"/>
</g>
<path d="M380.586 243.745C379.461 253.266 371.062 271.313 363.45 270.393C355.837 269.473 351.938 249.98 353.063 240.458C354.188 230.937 361.275 223.951 368.887 224.853C376.499 225.754 381.73 234.224 380.586 243.745Z" fill="url(#paint138_radial_488_792)"/>
<path style="mix-blend-mode:lighten" d="M380.586 243.745C379.461 253.266 371.062 271.313 363.45 270.393C355.837 269.473 351.938 249.98 353.063 240.458C354.188 230.937 361.275 223.951 368.887 224.853C376.499 225.754 381.73 234.224 380.586 243.745Z" fill="url(#paint139_linear_488_792)"/>
<path d="M163.866 74.0155L116.525 46.6349V101.377L163.866 128.758L211.208 101.377V46.6349L163.866 74.0155Z" fill="url(#paint140_linear_488_792)"/>
<path d="M163.866 128.758L116.525 101.377V46.6349L163.866 74.0155V128.758Z" fill="url(#paint141_linear_488_792)"/>
<path d="M211.208 101.377L163.866 128.758V74.0155L211.208 46.6349V101.377Z" fill="url(#paint142_linear_488_792)"/>
<path d="M163.866 74.0155L116.525 46.635L163.866 19.2544L211.208 46.635L163.866 74.0155Z" fill="url(#paint143_linear_488_792)"/>
<path d="M163.848 93.3396C163.737 93.3674 163.621 93.3674 163.51 93.3396L160.267 91.4617C160.186 91.4168 160.115 91.3562 160.058 91.2834C160.001 91.2107 159.959 91.1273 159.934 91.0381C159.91 90.9489 159.903 90.8557 159.915 90.7639C159.927 90.6722 159.957 90.5838 160.004 90.5039C160.049 90.423 160.109 90.3519 160.182 90.2948C160.255 90.2376 160.338 90.1955 160.427 90.1711C160.516 90.1466 160.609 90.1401 160.701 90.1522C160.792 90.1642 160.88 90.1944 160.96 90.241L163.848 91.9124L166.754 90.241C166.833 90.1944 166.922 90.1642 167.013 90.1522C167.105 90.1401 167.198 90.1466 167.287 90.1711C167.376 90.1955 167.459 90.2376 167.532 90.2948C167.605 90.3519 167.665 90.423 167.71 90.5039C167.756 90.5838 167.787 90.6722 167.799 90.7639C167.811 90.8557 167.804 90.9489 167.78 91.0381C167.755 91.1273 167.713 91.2107 167.656 91.2834C167.599 91.3562 167.528 91.4168 167.447 91.4617L164.204 93.3396C164.087 93.3675 163.965 93.3675 163.848 93.3396Z" fill="white"/>
<path d="M153.967 87.6306C153.85 87.6586 153.728 87.6586 153.611 87.6306L146.973 83.8747C146.893 83.8298 146.822 83.7692 146.765 83.6965C146.708 83.6238 146.666 83.5403 146.641 83.4511C146.617 83.3619 146.61 83.2687 146.622 83.177C146.634 83.0853 146.664 82.9969 146.711 82.917C146.805 82.7573 146.957 82.6406 147.136 82.5916C147.314 82.5425 147.505 82.5649 147.667 82.654L154.379 86.3161C154.46 86.3606 154.532 86.4214 154.588 86.4947C154.645 86.5679 154.686 86.6521 154.709 86.7419C154.732 86.8317 154.736 86.9253 154.721 87.0168C154.706 87.1083 154.673 87.1958 154.623 87.2738C154.559 87.3898 154.463 87.485 154.347 87.5482C154.231 87.6114 154.099 87.64 153.967 87.6306ZM140.674 79.931C140.557 79.9649 140.434 79.9649 140.318 79.931L133.68 76.1751C133.586 76.1361 133.502 76.0774 133.432 76.003C133.363 75.9285 133.31 75.84 133.278 75.7434C133.245 75.6468 133.234 75.5444 133.244 75.443C133.255 75.3416 133.286 75.2436 133.338 75.1556C133.389 75.0676 133.459 74.9917 133.542 74.9329C133.625 74.8741 133.72 74.8338 133.82 74.8147C133.92 74.7957 134.023 74.7983 134.121 74.8224C134.22 74.8465 134.313 74.8915 134.393 74.9545L141.03 78.7104C141.146 78.8057 141.229 78.9343 141.269 79.0787C141.309 79.2231 141.305 79.3764 141.255 79.5179C141.203 79.6318 141.122 79.73 141.02 79.8025C140.918 79.875 140.798 79.9193 140.674 79.931ZM127.399 72.2502C127.283 72.2863 127.159 72.2863 127.043 72.2502L120.387 68.4943C120.23 68.3936 120.117 68.2362 120.071 68.0546C120.026 67.873 120.052 67.6809 120.144 67.5178C120.19 67.4384 120.252 67.3691 120.325 67.3139C120.398 67.2586 120.482 67.2184 120.571 67.1957C120.66 67.173 120.752 67.1682 120.843 67.1816C120.934 67.1949 121.021 67.2262 121.1 67.2736L127.737 71.0295C127.898 71.1273 128.015 71.2833 128.063 71.4651C128.112 71.647 128.089 71.8407 127.999 72.0061C127.928 72.0939 127.835 72.1622 127.731 72.2049C127.626 72.2476 127.512 72.2631 127.399 72.2502ZM114.106 64.4943C113.982 64.4923 113.86 64.4601 113.75 64.4004L107.113 60.6445C106.952 60.5467 106.835 60.3907 106.787 60.2089C106.738 60.027 106.761 59.8333 106.851 59.6679C106.948 59.5115 107.101 59.3987 107.28 59.3532C107.458 59.3077 107.647 59.333 107.807 59.4238L114.463 63.1797C114.542 63.2262 114.611 63.2879 114.666 63.3614C114.721 63.4348 114.762 63.5185 114.784 63.6076C114.807 63.6967 114.812 63.7894 114.798 63.8803C114.785 63.9713 114.754 64.0587 114.706 64.1374C114.647 64.2447 114.56 64.3342 114.454 64.3969C114.349 64.4596 114.229 64.4932 114.106 64.4943ZM100.813 56.9825C100.703 57.0103 100.587 57.0103 100.476 56.9825L93.82 53.1326C93.7393 53.0878 93.6682 53.0272 93.6112 52.9544C93.5541 52.8817 93.5122 52.7983 93.4877 52.7091C93.4633 52.6199 93.4568 52.5266 93.4688 52.4349C93.4808 52.3432 93.511 52.2548 93.5575 52.1749C93.6551 52.0139 93.8109 51.8968 93.9924 51.8478C94.174 51.7989 94.3673 51.8219 94.5324 51.912L101.17 55.6679C101.25 55.7128 101.321 55.7734 101.378 55.8461C101.435 55.9189 101.477 56.0023 101.502 56.0915C101.526 56.1807 101.533 56.2739 101.521 56.3656C101.509 56.4573 101.479 56.5457 101.432 56.6256C101.368 56.7331 101.277 56.8224 101.169 56.8848C101.061 56.9473 100.938 56.9809 100.813 56.9825Z" fill="white"/>
<path d="M87.5391 49.2077C87.422 49.2357 87.3 49.2357 87.1829 49.2077L83.9393 47.3298C83.8294 47.2685 83.7382 47.1785 83.6755 47.0693C83.6127 46.9602 83.5808 46.836 83.5831 46.7101C83.5822 46.5869 83.6149 46.4658 83.6776 46.3599C83.7404 46.254 83.8309 46.1673 83.9393 46.1091L87.1829 44.2312C87.2627 44.1845 87.3509 44.1543 87.4425 44.1423C87.5341 44.1303 87.6271 44.1367 87.7162 44.1612C87.8052 44.1857 87.8885 44.2278 87.9612 44.2849C88.0338 44.3421 88.0943 44.4132 88.1391 44.4941C88.1857 44.574 88.2158 44.6624 88.2278 44.7541C88.2398 44.8458 88.2334 44.939 88.2089 45.0282C88.1845 45.1174 88.1424 45.2009 88.0854 45.2736C88.0283 45.3463 87.9574 45.4069 87.8766 45.4518L85.6829 46.7101L87.8766 47.9871C88.0177 48.0585 88.1303 48.1761 88.1956 48.3203C88.2609 48.4646 88.275 48.6269 88.2356 48.7803C88.1962 48.9337 88.1057 49.069 87.979 49.1638C87.8524 49.2586 87.6972 49.3073 87.5391 49.3016V49.2077Z" fill="white"/>
<path d="M94.1763 41.602C94.0514 41.6005 93.9288 41.5669 93.8205 41.5044C93.7122 41.4419 93.6217 41.3527 93.5576 41.2452C93.4686 41.0827 93.4462 40.8919 93.4952 40.7131C93.5442 40.5343 93.6607 40.3817 93.8201 40.2875L100.457 36.5316C100.619 36.4349 100.812 36.4064 100.995 36.4521C101.178 36.4979 101.335 36.6142 101.432 36.7757C101.522 36.9411 101.545 37.1348 101.496 37.3166C101.447 37.4985 101.33 37.6545 101.17 37.7522L94.5325 41.5081C94.4256 41.5739 94.3017 41.6065 94.1763 41.602ZM107.507 33.9212C107.382 33.9197 107.259 33.8861 107.151 33.8236C107.043 33.7611 106.952 33.6719 106.888 33.5644C106.842 33.4845 106.811 33.3961 106.799 33.3044C106.787 33.2127 106.794 33.1194 106.818 33.0302C106.843 32.941 106.885 32.8576 106.942 32.7849C106.999 32.7121 107.07 32.6515 107.151 32.6066L113.788 28.8507C113.952 28.7561 114.147 28.7307 114.33 28.78C114.512 28.8293 114.668 28.9493 114.763 29.1137C114.857 29.278 114.883 29.4732 114.833 29.6564C114.784 29.8395 114.664 29.9956 114.5 30.0902L107.844 33.8461C107.739 33.8965 107.624 33.9222 107.507 33.9212ZM120.781 26.2404C120.629 26.2346 120.484 26.1804 120.365 26.0858C120.246 25.9911 120.161 25.8609 120.121 25.7142C120.081 25.5675 120.089 25.4119 120.144 25.2701C120.198 25.1283 120.297 25.0076 120.425 24.9258L127.081 21.076C127.243 20.9869 127.434 20.9645 127.612 21.0135C127.791 21.0626 127.943 21.1793 128.037 21.3389C128.084 21.4188 128.114 21.5072 128.126 21.599C128.138 21.6907 128.131 21.7839 128.107 21.8731C128.082 21.9623 128.04 22.0457 127.983 22.1185C127.926 22.1912 127.855 22.2518 127.775 22.2967L121.137 26.0526C121.027 26.1519 120.89 26.2172 120.744 26.2404H120.781ZM134.074 18.5596C133.949 18.558 133.827 18.5244 133.718 18.4619C133.61 18.3995 133.52 18.3102 133.455 18.2028C133.409 18.1229 133.379 18.0345 133.367 17.9427C133.355 17.851 133.361 17.7578 133.386 17.6686C133.41 17.5794 133.452 17.496 133.509 17.4232C133.566 17.3505 133.637 17.2899 133.718 17.245L140.355 13.3952C140.52 13.3051 140.714 13.2821 140.895 13.3311C141.077 13.38 141.232 13.4971 141.33 13.6581C141.377 13.738 141.407 13.8264 141.419 13.9181C141.431 14.0099 141.424 14.1031 141.4 14.1923C141.375 14.2815 141.333 14.3649 141.276 14.4376C141.219 14.5104 141.148 14.571 141.068 14.6159L134.43 18.4657C134.309 18.5285 134.174 18.5607 134.037 18.5596H134.074ZM147.367 10.8788C147.242 10.8772 147.12 10.8436 147.011 10.7811C146.903 10.7187 146.813 10.6294 146.749 10.5219C146.702 10.442 146.672 10.3536 146.66 10.2619C146.648 10.1702 146.654 10.077 146.679 9.98778C146.703 9.89857 146.745 9.81515 146.802 9.74241C146.859 9.66967 146.93 9.60908 147.011 9.56418L153.648 5.80828C153.728 5.76165 153.816 5.73145 153.908 5.71944C153.999 5.70743 154.092 5.71386 154.181 5.73835C154.271 5.76284 154.354 5.8049 154.426 5.86205C154.499 5.91921 154.56 5.99031 154.604 6.07119C154.654 6.14922 154.688 6.23671 154.702 6.32822C154.717 6.41972 154.713 6.51328 154.69 6.60311C154.667 6.69293 154.626 6.77708 154.57 6.85034C154.513 6.92359 154.442 6.98439 154.361 7.02895L147.705 10.7849C147.59 10.8476 147.461 10.88 147.33 10.8788H147.367Z" fill="white"/>
<path d="M167.11 3.19794C166.993 3.22588 166.871 3.22588 166.754 3.19794L163.848 1.50778L160.96 3.19794C160.881 3.24457 160.792 3.27477 160.701 3.28678C160.609 3.29879 160.516 3.29236 160.427 3.26787C160.338 3.24338 160.255 3.20133 160.182 3.14417C160.109 3.08701 160.049 3.01591 160.004 2.93503C159.954 2.857 159.921 2.76951 159.906 2.67801C159.891 2.5865 159.895 2.49294 159.918 2.40312C159.941 2.3133 159.982 2.22914 160.039 2.15588C160.095 2.08262 160.167 2.02183 160.248 1.97727L163.51 0.0993192C163.614 0.0344043 163.734 0 163.857 0C163.98 0 164.1 0.0344043 164.204 0.0993192L167.447 1.97727C167.528 2.02217 167.599 2.08276 167.656 2.1555C167.713 2.22824 167.755 2.31166 167.78 2.40087C167.804 2.49008 167.811 2.58327 167.799 2.675C167.787 2.76672 167.756 2.85513 167.71 2.93503C167.638 3.02372 167.546 3.09387 167.442 3.13962C167.337 3.18537 167.224 3.20537 167.11 3.19794Z" fill="white"/>
<path d="M233.538 41.602C233.422 41.6382 233.297 41.6382 233.181 41.602L226.544 37.8461C226.385 37.7519 226.268 37.5993 226.219 37.4205C226.17 37.2418 226.193 37.0509 226.282 36.8884C226.327 36.8075 226.387 36.7364 226.46 36.6792C226.532 36.6221 226.616 36.58 226.705 36.5555C226.794 36.5311 226.887 36.5246 226.978 36.5366C227.07 36.5486 227.158 36.5789 227.238 36.6255L233.894 40.3814C234.055 40.4788 234.171 40.6363 234.217 40.8193C234.263 41.0023 234.234 41.1959 234.138 41.3579C234.066 41.4457 233.974 41.5141 233.869 41.5568C233.764 41.5994 233.65 41.615 233.538 41.602ZM220.245 33.9212C220.128 33.9551 220.005 33.9551 219.888 33.9212L213.251 30.1653C213.157 30.1263 213.073 30.0676 213.003 29.9932C212.934 29.9187 212.881 29.8302 212.848 29.7336C212.816 29.637 212.805 29.5346 212.815 29.4332C212.825 29.3318 212.857 29.2338 212.909 29.1458C212.96 29.0578 213.03 28.9819 213.113 28.9231C213.196 28.8643 213.291 28.824 213.391 28.8049C213.49 28.7859 213.593 28.7885 213.692 28.8126C213.791 28.8367 213.884 28.8817 213.964 28.9447L220.601 32.7006C220.76 32.7948 220.877 32.9474 220.926 33.1262C220.975 33.3049 220.952 33.4958 220.863 33.6583C220.789 33.7485 220.694 33.8194 220.586 33.8652C220.478 33.9109 220.361 33.9302 220.245 33.9212ZM206.97 26.2404C206.853 26.2683 206.731 26.2683 206.614 26.2404L199.958 22.4845C199.877 22.4399 199.806 22.3792 199.749 22.3059C199.692 22.2326 199.651 22.1485 199.629 22.0587C199.606 21.9688 199.601 21.8753 199.616 21.7838C199.631 21.6923 199.664 21.6048 199.714 21.5267C199.759 21.4459 199.82 21.3748 199.892 21.3176C199.965 21.2604 200.048 21.2184 200.137 21.1939C200.226 21.1694 200.319 21.163 200.411 21.175C200.503 21.187 200.591 21.2172 200.671 21.2638L207.308 25.1136C207.389 25.1585 207.459 25.2191 207.517 25.2919C207.574 25.3646 207.616 25.448 207.64 25.5372C207.664 25.6264 207.671 25.7196 207.659 25.8114C207.647 25.9031 207.617 25.9915 207.57 26.0714C207.49 26.1433 207.394 26.1958 207.29 26.2251C207.186 26.2544 207.077 26.2596 206.97 26.2404ZM193.752 18.5596C193.635 18.5875 193.513 18.5875 193.396 18.5596L186.759 14.7098C186.678 14.6649 186.607 14.6043 186.55 14.5316C186.493 14.4588 186.451 14.3754 186.427 14.2862C186.402 14.197 186.396 14.1038 186.408 14.0121C186.42 13.9203 186.45 13.8319 186.496 13.752C186.59 13.5924 186.743 13.4757 186.921 13.4266C187.1 13.3775 187.29 13.4 187.453 13.4891L194.108 17.3389C194.19 17.3835 194.261 17.4443 194.317 17.5175C194.374 17.5908 194.415 17.6749 194.438 17.7648C194.461 17.8546 194.465 17.9481 194.45 18.0396C194.436 18.1312 194.402 18.2186 194.352 18.2967C194.282 18.3866 194.19 18.4576 194.085 18.5035C193.98 18.5494 193.866 18.5686 193.752 18.5596ZM180.459 10.8788C180.335 10.8741 180.213 10.8421 180.103 10.7849L173.466 7.02896C173.385 6.98407 173.314 6.92347 173.257 6.85074C173.2 6.778 173.158 6.69458 173.134 6.60537C173.109 6.51616 173.103 6.42296 173.115 6.33123C173.127 6.2395 173.157 6.1511 173.203 6.0712C173.301 5.91024 173.457 5.79311 173.638 5.74415C173.82 5.69519 174.013 5.71816 174.178 5.80829L180.815 9.5642C180.896 9.60909 180.967 9.66968 181.024 9.74242C181.081 9.81516 181.123 9.89858 181.148 9.98779C181.172 10.077 181.179 10.1702 181.167 10.2619C181.155 10.3536 181.124 10.442 181.078 10.5219C181.008 10.6409 180.905 10.7376 180.782 10.8007C180.66 10.8639 180.522 10.8909 180.384 10.8788H180.459Z" fill="white"/>
<path d="M240.175 49.2078C240.052 49.2067 239.932 49.1731 239.827 49.1104C239.721 49.0477 239.634 48.9582 239.575 48.8509C239.525 48.7729 239.492 48.6854 239.477 48.5939C239.462 48.5024 239.466 48.4089 239.489 48.319C239.512 48.2292 239.553 48.1451 239.61 48.0718C239.666 47.9985 239.737 47.9378 239.819 47.8932L242.012 46.6162L239.819 45.358C239.737 45.3134 239.666 45.2526 239.61 45.1793C239.553 45.1061 239.512 45.0219 239.489 44.9321C239.466 44.8423 239.462 44.7487 239.477 44.6572C239.492 44.5657 239.525 44.4782 239.575 44.4002C239.62 44.3193 239.68 44.2482 239.753 44.1911C239.825 44.1339 239.909 44.0919 239.998 44.0674C240.087 44.0429 240.18 44.0364 240.271 44.0485C240.363 44.0605 240.451 44.0907 240.531 44.1373L243.775 46.0152C243.882 46.075 243.971 46.162 244.034 46.2676C244.096 46.3731 244.13 46.4934 244.131 46.6162C244.133 46.7421 244.101 46.8663 244.038 46.9755C243.976 47.0846 243.885 47.1746 243.775 47.2359L240.531 49.1139C240.421 49.1711 240.299 49.2031 240.175 49.2078Z" fill="white"/>
<path d="M173.747 87.6306C173.622 87.6291 173.5 87.5955 173.391 87.533C173.283 87.4706 173.192 87.3813 173.128 87.2738C173.082 87.1939 173.052 87.1055 173.04 87.0138C173.028 86.9221 173.034 86.8289 173.059 86.7397C173.083 86.6505 173.125 86.567 173.182 86.4943C173.239 86.4216 173.31 86.361 173.391 86.3161L180.047 82.4663C180.209 82.3771 180.399 82.3547 180.578 82.4038C180.756 82.4529 180.909 82.5696 181.003 82.7292C181.049 82.8091 181.08 82.8975 181.092 82.9892C181.104 83.0809 181.097 83.1741 181.073 83.2634C181.048 83.3526 181.006 83.436 180.949 83.5087C180.892 83.5815 180.821 83.6421 180.74 83.687L174.103 87.4429C174.001 87.5333 173.879 87.5978 173.747 87.6306ZM187.04 79.931C186.917 79.9333 186.795 79.9033 186.686 79.844C186.578 79.7848 186.486 79.6983 186.421 79.593C186.331 79.4277 186.308 79.2339 186.357 79.0521C186.406 78.8702 186.523 78.7142 186.684 78.6165L193.321 74.8606C193.401 74.8139 193.489 74.7837 193.581 74.7717C193.672 74.7597 193.765 74.7662 193.854 74.7907C193.943 74.8151 194.027 74.8572 194.099 74.9143C194.172 74.9715 194.232 75.0426 194.277 75.1235C194.325 75.2023 194.356 75.2897 194.369 75.3806C194.382 75.4716 194.378 75.5643 194.355 75.6533C194.332 75.7424 194.292 75.8261 194.237 75.8996C194.182 75.973 194.113 76.0348 194.033 76.0812L187.378 79.8371C187.277 79.9025 187.16 79.9353 187.04 79.931ZM200.314 72.2502C200.193 72.253 200.074 72.2231 199.968 72.1636C199.863 72.1041 199.775 72.0173 199.714 71.9122C199.667 71.8309 199.637 71.741 199.625 71.6479C199.612 71.5547 199.619 71.46 199.643 71.3693C199.668 71.2786 199.71 71.1936 199.767 71.1192C199.824 71.0447 199.896 70.9824 199.977 70.9357L206.614 67.1798C206.774 67.089 206.963 67.0637 207.141 67.1092C207.319 67.1547 207.473 67.2674 207.57 67.4239C207.66 67.5892 207.683 67.783 207.634 67.9648C207.585 68.1467 207.468 68.3027 207.308 68.4004L200.671 72.1563C200.565 72.2243 200.44 72.2571 200.314 72.2502ZM213.607 64.4943C213.482 64.4927 213.36 64.4591 213.252 64.3967C213.143 64.3342 213.053 64.245 212.989 64.1375C212.942 64.0576 212.912 63.9692 212.9 63.8775C212.888 63.7857 212.894 63.6925 212.919 63.6033C212.943 63.5141 212.985 63.4307 213.042 63.3579C213.099 63.2852 213.17 63.2246 213.251 63.1797L219.907 59.4238C220.067 59.333 220.256 59.3077 220.434 59.3532C220.612 59.3987 220.766 59.5115 220.863 59.6679C220.953 59.8333 220.976 60.027 220.927 60.2089C220.878 60.3907 220.762 60.5467 220.601 60.6445L213.964 64.4004C213.853 64.4576 213.732 64.4896 213.607 64.4943ZM226.9 56.9825C226.775 56.9809 226.653 56.9473 226.545 56.8848C226.436 56.8224 226.346 56.7331 226.282 56.6257C226.235 56.5458 226.205 56.4574 226.193 56.3656C226.181 56.2739 226.188 56.1807 226.212 56.0915C226.236 56.0023 226.278 55.9189 226.335 55.8461C226.392 55.7734 226.463 55.7128 226.544 55.6679L233.181 51.912C233.261 51.8654 233.349 51.8352 233.441 51.8232C233.533 51.8112 233.626 51.8176 233.715 51.8421C233.804 51.8666 233.887 51.9086 233.96 51.9658C234.032 52.0229 234.093 52.094 234.138 52.1749C234.188 52.253 234.221 52.3404 234.236 52.4319C234.251 52.5234 234.246 52.617 234.223 52.7068C234.201 52.7967 234.16 52.8808 234.103 52.9541C234.046 53.0273 233.975 53.0881 233.894 53.1327L227.238 56.9825C227.127 57.0075 227.012 57.0075 226.9 56.9825Z" fill="white"/>
<path d="M163.866 74.0155L116.525 46.6349V49.0012L163.866 76.3817L211.208 49.0012V46.6349L163.866 74.0155Z" fill="white"/>
<path d="M84.2767 258.43C84.0942 258.426 83.9206 258.351 83.7915 258.222C83.6624 258.092 83.5878 257.918 83.583 257.735V256.59C83.5663 256.488 83.572 256.383 83.5997 256.284C83.6273 256.184 83.6762 256.091 83.7431 256.013C83.81 255.934 83.8932 255.87 83.987 255.827C84.0807 255.783 84.1828 255.761 84.2861 255.761C84.3894 255.761 84.4915 255.783 84.5853 255.827C84.679 255.87 84.7622 255.934 84.8291 256.013C84.896 256.091 84.945 256.184 84.9726 256.284C85.0003 256.383 85.0059 256.488 84.9892 256.59V257.735C84.9843 257.921 84.9071 258.098 84.774 258.228C84.6409 258.358 84.4625 258.43 84.2767 258.43ZM84.2767 249.773C84.0942 249.768 83.9206 249.693 83.7915 249.564C83.6624 249.435 83.5878 249.261 83.583 249.078V241.566C83.5663 241.464 83.572 241.36 83.5997 241.26C83.6273 241.16 83.6762 241.068 83.7431 240.989C83.81 240.91 83.8932 240.847 83.987 240.803C84.0807 240.76 84.1828 240.737 84.2861 240.737C84.3894 240.737 84.4915 240.76 84.5853 240.803C84.679 240.847 84.7622 240.91 84.8291 240.989C84.896 241.068 84.945 241.16 84.9726 241.26C85.0003 241.36 85.0059 241.464 84.9892 241.566V249.078C84.9843 249.264 84.9071 249.441 84.774 249.571C84.6409 249.7 84.4625 249.773 84.2767 249.773ZM84.2767 234.749C84.0942 234.745 83.9206 234.67 83.7915 234.541C83.6624 234.411 83.5878 234.237 83.583 234.055V226.543C83.5663 226.441 83.572 226.336 83.5997 226.236C83.6273 226.137 83.6762 226.044 83.7431 225.965C83.81 225.886 83.8932 225.823 83.987 225.78C84.0807 225.736 84.1828 225.714 84.2861 225.714C84.3894 225.714 84.4915 225.736 84.5853 225.78C84.679 225.823 84.7622 225.886 84.8291 225.965C84.896 226.044 84.945 226.137 84.9726 226.236C85.0003 226.336 85.0059 226.441 84.9892 226.543V234.055C84.9843 234.24 84.9071 234.417 84.774 234.547C84.6409 234.677 84.4625 234.749 84.2767 234.749ZM84.2767 219.726C84.0942 219.721 83.9206 219.646 83.7915 219.517C83.6624 219.388 83.5878 219.214 83.583 219.031V211.519C83.5663 211.417 83.572 211.312 83.5997 211.213C83.6273 211.113 83.6762 211.021 83.7431 210.942C83.81 210.863 83.8932 210.799 83.987 210.756C84.0807 210.713 84.1828 210.69 84.2861 210.69C84.3894 210.69 84.4915 210.713 84.5853 210.756C84.679 210.799 84.7622 210.863 84.8291 210.942C84.896 211.021 84.945 211.113 84.9726 211.213C85.0003 211.312 85.0059 211.417 84.9892 211.519V219.031C84.9843 219.217 84.9071 219.394 84.774 219.523C84.6409 219.653 84.4625 219.726 84.2767 219.726ZM84.2767 204.702C84.0942 204.697 83.9206 204.623 83.7915 204.493C83.6624 204.364 83.5878 204.19 83.583 204.007V196.495C83.5663 196.393 83.572 196.289 83.5997 196.189C83.6273 196.089 83.6762 195.997 83.7431 195.918C83.81 195.839 83.8932 195.776 83.987 195.732C84.0807 195.689 84.1828 195.666 84.2861 195.666C84.3894 195.666 84.4915 195.689 84.5853 195.732C84.679 195.776 84.7622 195.839 84.8291 195.918C84.896 195.997 84.945 196.089 84.9726 196.189C85.0003 196.289 85.0059 196.393 84.9892 196.495V204.007C84.9843 204.193 84.9071 204.37 84.774 204.5C84.6409 204.63 84.4625 204.702 84.2767 204.702ZM84.2767 189.679C84.0942 189.674 83.9206 189.599 83.7915 189.47C83.6624 189.34 83.5878 189.166 83.583 188.984V181.472C83.5663 181.37 83.572 181.265 83.5997 181.166C83.6273 181.066 83.6762 180.973 83.7431 180.894C83.81 180.816 83.8932 180.752 83.987 180.709C84.0807 180.665 84.1828 180.643 84.2861 180.643C84.3894 180.643 84.4915 180.665 84.5853 180.709C84.679 180.752 84.7622 180.816 84.8291 180.894C84.896 180.973 84.945 181.066 84.9726 181.166C85.0003 181.265 85.0059 181.37 84.9892 181.472V188.984C84.9843 189.17 84.9071 189.346 84.774 189.476C84.6409 189.606 84.4625 189.679 84.2767 189.679ZM84.2767 174.655C84.0942 174.65 83.9206 174.575 83.7915 174.446C83.6624 174.317 83.5878 174.143 83.583 173.96V166.448C83.5663 166.346 83.572 166.242 83.5997 166.142C83.6273 166.042 83.6762 165.95 83.7431 165.871C83.81 165.792 83.8932 165.729 83.987 165.685C84.0807 165.642 84.1828 165.619 84.2861 165.619C84.3894 165.619 84.4915 165.642 84.5853 165.685C84.679 165.729 84.7622 165.792 84.8291 165.871C84.896 165.95 84.945 166.042 84.9726 166.142C85.0003 166.242 85.0059 166.346 84.9892 166.448V173.96C84.9843 174.146 84.9071 174.323 84.774 174.453C84.6409 174.582 84.4625 174.655 84.2767 174.655ZM84.2767 159.631C84.0942 159.627 83.9206 159.552 83.7915 159.423C83.6624 159.293 83.5878 159.119 83.583 158.936V151.425C83.5663 151.323 83.572 151.218 83.5997 151.118C83.6273 151.019 83.6762 150.926 83.7431 150.847C83.81 150.768 83.8932 150.705 83.987 150.662C84.0807 150.618 84.1828 150.596 84.2861 150.596C84.3894 150.596 84.4915 150.618 84.5853 150.662C84.679 150.705 84.7622 150.768 84.8291 150.847C84.896 150.926 84.945 151.019 84.9726 151.118C85.0003 151.218 85.0059 151.323 84.9892 151.425V158.936C84.9843 159.122 84.9071 159.299 84.774 159.429C84.6409 159.559 84.4625 159.631 84.2767 159.631ZM84.2767 144.608C84.0942 144.603 83.9206 144.528 83.7915 144.399C83.6624 144.27 83.5878 144.096 83.583 143.913V136.401C83.5663 136.299 83.572 136.194 83.5997 136.095C83.6273 135.995 83.6762 135.903 83.7431 135.824C83.81 135.745 83.8932 135.681 83.987 135.638C84.0807 135.595 84.1828 135.572 84.2861 135.572C84.3894 135.572 84.4915 135.595 84.5853 135.638C84.679 135.681 84.7622 135.745 84.8291 135.824C84.896 135.903 84.945 135.995 84.9726 136.095C85.0003 136.194 85.0059 136.299 84.9892 136.401V143.913C84.9843 144.099 84.9071 144.276 84.774 144.405C84.6409 144.535 84.4625 144.608 84.2767 144.608ZM84.2767 129.584C84.0942 129.579 83.9206 129.505 83.7915 129.375C83.6624 129.246 83.5878 129.072 83.583 128.889V121.377C83.5663 121.275 83.572 121.171 83.5997 121.071C83.6273 120.971 83.6762 120.879 83.7431 120.8C83.81 120.721 83.8932 120.658 83.987 120.614C84.0807 120.571 84.1828 120.548 84.2861 120.548C84.3894 120.548 84.4915 120.571 84.5853 120.614C84.679 120.658 84.7622 120.721 84.8291 120.8C84.896 120.879 84.945 120.971 84.9726 121.071C85.0003 121.171 85.0059 121.275 84.9892 121.377V128.889C84.9843 129.075 84.9071 129.252 84.774 129.382C84.6409 129.512 84.4625 129.584 84.2767 129.584ZM84.2767 114.56C84.0942 114.556 83.9206 114.481 83.7915 114.352C83.6624 114.222 83.5878 114.048 83.583 113.866V106.354C83.5663 106.252 83.572 106.147 83.5997 106.047C83.6273 105.948 83.6762 105.855 83.7431 105.776C83.81 105.698 83.8932 105.634 83.987 105.591C84.0807 105.547 84.1828 105.525 84.2861 105.525C84.3894 105.525 84.4915 105.547 84.5853 105.591C84.679 105.634 84.7622 105.698 84.8291 105.776C84.896 105.855 84.945 105.948 84.9726 106.047C85.0003 106.147 85.0059 106.252 84.9892 106.354V113.866C84.9843 114.052 84.9071 114.228 84.774 114.358C84.6409 114.488 84.4625 114.561 84.2767 114.56ZM84.2767 99.5369C84.0942 99.5321 83.9206 99.4574 83.7915 99.3281C83.6624 99.1988 83.5878 99.0248 83.583 98.842V93.5274C83.5821 93.4042 83.6148 93.2832 83.6776 93.1773C83.7404 93.0713 83.8309 92.9846 83.9393 92.9265L85.8142 91.8372C85.8951 91.7913 85.9844 91.7622 86.0767 91.7516C86.1691 91.7409 86.2626 91.7489 86.3518 91.7752C86.441 91.8015 86.5241 91.8455 86.596 91.9045C86.6679 91.9636 86.7272 92.0365 86.7704 92.1189C86.8578 92.2837 86.8774 92.4763 86.8248 92.6553C86.7722 92.8343 86.6518 92.9856 86.4892 93.0767L84.933 93.9406V98.842C84.9289 99.0187 84.8595 99.1875 84.7383 99.3158C84.6171 99.4442 84.4526 99.523 84.2767 99.5369ZM92.7513 89.4898C92.6263 89.4883 92.5039 89.4546 92.3955 89.3922C92.2872 89.3297 92.1967 89.2405 92.1326 89.133C92.0451 88.9682 92.0256 88.7757 92.0782 88.5967C92.1307 88.4176 92.2513 88.2664 92.4139 88.1753L98.9572 84.4193C99.1194 84.3474 99.3025 84.3387 99.4708 84.3948C99.6391 84.4509 99.7804 84.5679 99.8672 84.7229C99.9539 84.8779 99.9798 85.0597 99.9398 85.2327C99.8999 85.4058 99.7968 85.5577 99.6509 85.6588L93.1076 89.4147C92.9957 89.4654 92.8741 89.491 92.7513 89.4898ZM105.876 82.147C105.751 82.1455 105.628 82.1119 105.52 82.0494C105.412 81.9869 105.321 81.8977 105.257 81.7902C105.169 81.6254 105.15 81.4329 105.202 81.2539C105.255 81.0749 105.376 80.9236 105.538 80.8325L112.082 77.0765C112.243 76.9844 112.435 76.9603 112.614 77.0097C112.793 77.059 112.946 77.1776 113.038 77.3395C113.13 77.5013 113.154 77.6932 113.105 77.8728C113.055 78.0524 112.937 78.2051 112.775 78.2972L106.232 81.9592C106.127 82.0662 105.987 82.1327 105.838 82.147H105.876ZM119 74.823C118.875 74.8244 118.751 74.7897 118.645 74.7232C118.539 74.6566 118.454 74.5609 118.4 74.4474C118.353 74.3675 118.323 74.2791 118.311 74.1874C118.299 74.0957 118.306 74.0025 118.33 73.9133C118.355 73.8241 118.397 73.7406 118.454 73.6679C118.511 73.5952 118.582 73.5346 118.662 73.4897L125.206 69.7338C125.367 69.6416 125.559 69.6176 125.738 69.6669C125.918 69.7162 126.07 69.8348 126.162 69.9967C126.254 70.1586 126.278 70.3504 126.229 70.53C126.18 70.7096 126.061 70.8623 125.9 70.9544L119.356 74.7103C119.227 74.7897 119.077 74.8289 118.925 74.823H119Z" fill="white"/>
<defs>
<linearGradient id="paint0_linear_488_792" x1="286.86" y1="246.712" x2="286.86" y2="328.853" gradientUnits="userSpaceOnUse">
<stop stop-color="#4579F5"/>
<stop offset="1" stop-color="#9C42F5"/>
</linearGradient>
<linearGradient id="paint1_linear_488_792" x1="263.189" y1="246.712" x2="263.189" y2="328.853" gradientUnits="userSpaceOnUse">
<stop stop-color="#4579F5"/>
<stop offset="1" stop-color="#9C42F5"/>
</linearGradient>
<linearGradient id="paint2_linear_488_792" x1="310.53" y1="246.712" x2="310.53" y2="328.853" gradientUnits="userSpaceOnUse">
<stop stop-color="#9C42F5"/>
<stop offset="1" stop-color="#00FFAA" stop-opacity="0.5"/>
</linearGradient>
<linearGradient id="paint3_linear_488_792" x1="286.86" y1="219.331" x2="286.86" y2="274.092" gradientUnits="userSpaceOnUse">
<stop stop-color="#4579F5"/>
<stop offset="1" stop-color="#9C42F5"/>
</linearGradient>
<linearGradient id="paint4_linear_488_792" x1="348.357" y1="281.867" x2="348.357" y2="363.99" gradientUnits="userSpaceOnUse">
<stop stop-color="#4579F5"/>
<stop offset="1" stop-color="#9C42F5"/>
</linearGradient>
<linearGradient id="paint5_linear_488_792" x1="324.686" y1="281.867" x2="324.686" y2="363.99" gradientUnits="userSpaceOnUse">
<stop stop-color="#4579F5"/>
<stop offset="1" stop-color="#9C42F5"/>
</linearGradient>
<linearGradient id="paint6_linear_488_792" x1="372.027" y1="281.867" x2="372.027" y2="363.99" gradientUnits="userSpaceOnUse">
<stop stop-color="#9C42F5"/>
<stop offset="1" stop-color="#00FFAA" stop-opacity="0.5"/>
</linearGradient>
<linearGradient id="paint7_linear_488_792" x1="348.357" y1="254.487" x2="348.357" y2="309.248" gradientUnits="userSpaceOnUse">
<stop stop-color="#4579F5"/>
<stop offset="1" stop-color="#9C42F5"/>
</linearGradient>
<linearGradient id="paint8_linear_488_792" x1="409.853" y1="317.004" x2="409.853" y2="399.145" gradientUnits="userSpaceOnUse">
<stop stop-color="#4579F5"/>
<stop offset="1" stop-color="#9C42F5"/>
</linearGradient>
<linearGradient id="paint9_linear_488_792" x1="386.183" y1="317.004" x2="386.183" y2="399.145" gradientUnits="userSpaceOnUse">
<stop stop-color="#4579F5"/>
<stop offset="1" stop-color="#9C42F5"/>
</linearGradient>
<linearGradient id="paint10_linear_488_792" x1="433.524" y1="317.004" x2="433.524" y2="399.145" gradientUnits="userSpaceOnUse">
<stop stop-color="#9C42F5"/>
<stop offset="1" stop-color="#00FFAA" stop-opacity="0.5"/>
</linearGradient>
<linearGradient id="paint11_linear_488_792" x1="409.853" y1="289.623" x2="409.853" y2="344.384" gradientUnits="userSpaceOnUse">
<stop stop-color="#4579F5"/>
<stop offset="1" stop-color="#9C42F5"/>
</linearGradient>
<linearGradient id="paint12_linear_488_792" x1="225.363" y1="284.233" x2="225.363" y2="366.375" gradientUnits="userSpaceOnUse">
<stop stop-color="#4579F5"/>
<stop offset="1" stop-color="#9C42F5"/>
</linearGradient>
<linearGradient id="paint13_linear_488_792" x1="201.692" y1="284.233" x2="201.692" y2="366.375" gradientUnits="userSpaceOnUse">
<stop stop-color="#4579F5"/>
<stop offset="1" stop-color="#9C42F5"/>
</linearGradient>
<linearGradient id="paint14_linear_488_792" x1="249.034" y1="284.233" x2="249.034" y2="366.375" gradientUnits="userSpaceOnUse">
<stop stop-color="#9C42F5"/>
<stop offset="1" stop-color="#00FFAA" stop-opacity="0.5"/>
</linearGradient>
<linearGradient id="paint15_linear_488_792" x1="225.363" y1="256.853" x2="225.363" y2="311.614" gradientUnits="userSpaceOnUse">
<stop stop-color="#4579F5"/>
<stop offset="1" stop-color="#9C42F5"/>
</linearGradient>
<linearGradient id="paint16_linear_488_792" x1="286.86" y1="319.389" x2="286.86" y2="401.511" gradientUnits="userSpaceOnUse">
<stop stop-color="#4579F5"/>
<stop offset="1" stop-color="#9C42F5"/>
</linearGradient>
<linearGradient id="paint17_linear_488_792" x1="263.189" y1="319.389" x2="263.189" y2="401.511" gradientUnits="userSpaceOnUse">
<stop stop-color="#4579F5"/>
<stop offset="1" stop-color="#9C42F5"/>
</linearGradient>
<linearGradient id="paint18_linear_488_792" x1="310.53" y1="319.389" x2="310.53" y2="401.511" gradientUnits="userSpaceOnUse">
<stop stop-color="#9C42F5"/>
<stop offset="1" stop-color="#00FFAA" stop-opacity="0.5"/>
</linearGradient>
<linearGradient id="paint19_linear_488_792" x1="286.86" y1="292.008" x2="286.86" y2="346.75" gradientUnits="userSpaceOnUse">
<stop stop-color="#4579F5"/>
<stop offset="1" stop-color="#9C42F5"/>
</linearGradient>
<linearGradient id="paint20_linear_488_792" x1="348.357" y1="354.525" x2="348.357" y2="436.648" gradientUnits="userSpaceOnUse">
<stop stop-color="#4579F5"/>
<stop offset="1" stop-color="#9C42F5"/>
</linearGradient>
<linearGradient id="paint21_linear_488_792" x1="324.686" y1="354.525" x2="324.686" y2="436.648" gradientUnits="userSpaceOnUse">
<stop stop-color="#4579F5"/>
<stop offset="1" stop-color="#9C42F5"/>
</linearGradient>
<linearGradient id="paint22_linear_488_792" x1="372.027" y1="354.525" x2="372.027" y2="436.648" gradientUnits="userSpaceOnUse">
<stop stop-color="#9C42F5"/>
<stop offset="1" stop-color="#00FFAA" stop-opacity="0.5"/>
</linearGradient>
<linearGradient id="paint23_linear_488_792" x1="348.357" y1="327.145" x2="348.357" y2="381.906" gradientUnits="userSpaceOnUse">
<stop stop-color="#4579F5"/>
<stop offset="1" stop-color="#9C42F5"/>
</linearGradient>
<linearGradient id="paint24_linear_488_792" x1="163.866" y1="321.755" x2="163.866" y2="403.896" gradientUnits="userSpaceOnUse">
<stop stop-color="#4579F5"/>
<stop offset="1" stop-color="#9C42F5"/>
</linearGradient>
<linearGradient id="paint25_linear_488_792" x1="140.196" y1="321.755" x2="140.196" y2="403.896" gradientUnits="userSpaceOnUse">
<stop stop-color="#4579F5"/>
<stop offset="1" stop-color="#9C42F5"/>
</linearGradient>
<linearGradient id="paint26_linear_488_792" x1="187.537" y1="321.755" x2="187.537" y2="403.896" gradientUnits="userSpaceOnUse">
<stop stop-color="#9C42F5"/>
<stop offset="1" stop-color="#00FFAA" stop-opacity="0.5"/>
</linearGradient>
<linearGradient id="paint27_linear_488_792" x1="163.866" y1="294.374" x2="163.866" y2="349.135" gradientUnits="userSpaceOnUse">
<stop stop-color="#4579F5"/>
<stop offset="1" stop-color="#9C42F5"/>
</linearGradient>
<linearGradient id="paint28_linear_488_792" x1="225.363" y1="356.891" x2="225.363" y2="439.033" gradientUnits="userSpaceOnUse">
<stop stop-color="#4579F5"/>
<stop offset="1" stop-color="#9C42F5"/>
</linearGradient>
<linearGradient id="paint29_linear_488_792" x1="201.692" y1="356.891" x2="201.692" y2="439.033" gradientUnits="userSpaceOnUse">
<stop stop-color="#4579F5"/>
<stop offset="1" stop-color="#9C42F5"/>
</linearGradient>
<linearGradient id="paint30_linear_488_792" x1="249.034" y1="356.891" x2="249.034" y2="439.033" gradientUnits="userSpaceOnUse">
<stop stop-color="#9C42F5"/>
<stop offset="1" stop-color="#00FFAA" stop-opacity="0.5"/>
</linearGradient>
<linearGradient id="paint31_linear_488_792" x1="225.363" y1="329.53" x2="225.363" y2="384.272" gradientUnits="userSpaceOnUse">
<stop stop-color="#4579F5"/>
<stop offset="1" stop-color="#9C42F5"/>
</linearGradient>
<linearGradient id="paint32_linear_488_792" x1="286.86" y1="392.047" x2="286.86" y2="474.169" gradientUnits="userSpaceOnUse">
<stop stop-color="#4579F5"/>
<stop offset="1" stop-color="#9C42F5"/>
</linearGradient>
<linearGradient id="paint33_linear_488_792" x1="263.189" y1="392.047" x2="263.189" y2="474.169" gradientUnits="userSpaceOnUse">
<stop stop-color="#4579F5"/>
<stop offset="1" stop-color="#9C42F5"/>
</linearGradient>
<linearGradient id="paint34_linear_488_792" x1="310.53" y1="392.047" x2="310.53" y2="474.169" gradientUnits="userSpaceOnUse">
<stop stop-color="#9C42F5"/>
<stop offset="1" stop-color="#00FFAA" stop-opacity="0.5"/>
</linearGradient>
<linearGradient id="paint35_linear_488_792" x1="286.86" y1="364.666" x2="286.86" y2="419.427" gradientUnits="userSpaceOnUse">
<stop stop-color="#4579F5"/>
<stop offset="1" stop-color="#9C42F5"/>
</linearGradient>
<linearGradient id="paint36_linear_488_792" x1="286.86" y1="174.054" x2="286.86" y2="256.177" gradientUnits="userSpaceOnUse">
<stop stop-color="#4579F5"/>
<stop offset="1" stop-color="#9C42F5"/>
</linearGradient>
<linearGradient id="paint37_linear_488_792" x1="263.189" y1="174.054" x2="263.189" y2="256.177" gradientUnits="userSpaceOnUse">
<stop stop-color="#4579F5"/>
<stop offset="1" stop-color="#9C42F5"/>
</linearGradient>
<linearGradient id="paint38_linear_488_792" x1="310.53" y1="174.054" x2="310.53" y2="256.177" gradientUnits="userSpaceOnUse">
<stop stop-color="#9C42F5"/>
<stop offset="1" stop-color="#00FFAA" stop-opacity="0.5"/>
</linearGradient>
<linearGradient id="paint39_linear_488_792" x1="286.86" y1="146.673" x2="286.86" y2="201.434" gradientUnits="userSpaceOnUse">
<stop stop-color="#4579F5"/>
<stop offset="1" stop-color="#9C42F5"/>
</linearGradient>
<linearGradient id="paint40_linear_488_792" x1="286.85" y1="373.154" x2="286.85" y2="410.507" gradientUnits="userSpaceOnUse">
<stop stop-color="#4579F5"/>
<stop offset="1" stop-color="#9C42F5"/>
</linearGradient>
<linearGradient id="paint41_linear_488_792" x1="225.354" y1="337.999" x2="225.354" y2="375.37" gradientUnits="userSpaceOnUse">
<stop stop-color="#4579F5"/>
<stop offset="1" stop-color="#9C42F5"/>
</linearGradient>
<linearGradient id="paint42_linear_488_792" x1="348.347" y1="335.633" x2="348.347" y2="372.985" gradientUnits="userSpaceOnUse">
<stop stop-color="#4579F5"/>
<stop offset="1" stop-color="#9C42F5"/>
</linearGradient>
<linearGradient id="paint43_linear_488_792" x1="409.966" y1="298.543" x2="409.966" y2="335.896" gradientUnits="userSpaceOnUse">
<stop stop-color="#4579F5"/>
<stop offset="1" stop-color="#9C42F5"/>
</linearGradient>
<linearGradient id="paint44_linear_488_792" x1="163.857" y1="302.863" x2="163.857" y2="340.215" gradientUnits="userSpaceOnUse">
<stop stop-color="#4579F5"/>
<stop offset="1" stop-color="#9C42F5"/>
</linearGradient>
<linearGradient id="paint45_linear_488_792" x1="348.357" y1="209.19" x2="348.357" y2="291.332" gradientUnits="userSpaceOnUse">
<stop stop-color="#4579F5"/>
<stop offset="1" stop-color="#9C42F5"/>
</linearGradient>
<linearGradient id="paint46_linear_488_792" x1="324.686" y1="209.19" x2="324.686" y2="291.332" gradientUnits="userSpaceOnUse">
<stop stop-color="#4579F5"/>
<stop offset="1" stop-color="#9C42F5"/>
</linearGradient>
<linearGradient id="paint47_linear_488_792" x1="372.027" y1="209.19" x2="372.027" y2="291.332" gradientUnits="userSpaceOnUse">
<stop stop-color="#9C42F5"/>
<stop offset="1" stop-color="#00FFAA" stop-opacity="0.5"/>
</linearGradient>
<linearGradient id="paint48_linear_488_792" x1="348.357" y1="181.81" x2="348.357" y2="236.571" gradientUnits="userSpaceOnUse">
<stop stop-color="#4579F5"/>
<stop offset="1" stop-color="#9C42F5"/>
</linearGradient>
<linearGradient id="paint49_linear_488_792" x1="409.853" y1="244.346" x2="409.853" y2="326.468" gradientUnits="userSpaceOnUse">
<stop stop-color="#4579F5"/>
<stop offset="1" stop-color="#9C42F5"/>
</linearGradient>
<linearGradient id="paint50_linear_488_792" x1="386.183" y1="244.346" x2="386.183" y2="326.468" gradientUnits="userSpaceOnUse">
<stop stop-color="#4579F5"/>
<stop offset="1" stop-color="#9C42F5"/>
</linearGradient>
<linearGradient id="paint51_linear_488_792" x1="433.524" y1="244.346" x2="433.524" y2="326.468" gradientUnits="userSpaceOnUse">
<stop stop-color="#9C42F5"/>
<stop offset="1" stop-color="#00FFAA" stop-opacity="0.5"/>
</linearGradient>
<linearGradient id="paint52_linear_488_792" x1="409.853" y1="216.965" x2="409.853" y2="271.726" gradientUnits="userSpaceOnUse">
<stop stop-color="#4579F5"/>
<stop offset="1" stop-color="#9C42F5"/>
</linearGradient>
<linearGradient id="paint53_linear_488_792" x1="225.363" y1="211.575" x2="225.363" y2="293.698" gradientUnits="userSpaceOnUse">
<stop stop-color="#4579F5"/>
<stop offset="1" stop-color="#9C42F5"/>
</linearGradient>
<linearGradient id="paint54_linear_488_792" x1="201.692" y1="211.575" x2="201.692" y2="293.698" gradientUnits="userSpaceOnUse">
<stop stop-color="#4579F5"/>
<stop offset="1" stop-color="#9C42F5"/>
</linearGradient>
<linearGradient id="paint55_linear_488_792" x1="249.034" y1="211.575" x2="249.034" y2="293.698" gradientUnits="userSpaceOnUse">
<stop stop-color="#9C42F5"/>
<stop offset="1" stop-color="#00FFAA" stop-opacity="0.5"/>
</linearGradient>
<linearGradient id="paint56_linear_488_792" x1="225.363" y1="184.195" x2="225.363" y2="238.956" gradientUnits="userSpaceOnUse">
<stop stop-color="#4579F5"/>
<stop offset="1" stop-color="#9C42F5"/>
</linearGradient>
<linearGradient id="paint57_linear_488_792" x1="286.86" y1="246.712" x2="286.86" y2="328.853" gradientUnits="userSpaceOnUse">
<stop stop-color="#4579F5"/>
<stop offset="1" stop-color="#9C42F5"/>
</linearGradient>
<linearGradient id="paint58_linear_488_792" x1="263.189" y1="246.712" x2="263.189" y2="328.853" gradientUnits="userSpaceOnUse">
<stop stop-color="#4579F5"/>
<stop offset="1" stop-color="#9C42F5"/>
</linearGradient>
<linearGradient id="paint59_linear_488_792" x1="310.53" y1="246.712" x2="310.53" y2="328.853" gradientUnits="userSpaceOnUse">
<stop stop-color="#9C42F5"/>
<stop offset="1" stop-color="#00FFAA" stop-opacity="0.5"/>
</linearGradient>
<linearGradient id="paint60_linear_488_792" x1="286.86" y1="219.331" x2="286.86" y2="274.092" gradientUnits="userSpaceOnUse">
<stop stop-color="#4579F5"/>
<stop offset="1" stop-color="#9C42F5"/>
</linearGradient>
<linearGradient id="paint61_linear_488_792" x1="348.357" y1="281.867" x2="348.357" y2="363.99" gradientUnits="userSpaceOnUse">
<stop stop-color="#4579F5"/>
<stop offset="1" stop-color="#9C42F5"/>
</linearGradient>
<linearGradient id="paint62_linear_488_792" x1="324.686" y1="281.867" x2="324.686" y2="363.99" gradientUnits="userSpaceOnUse">
<stop stop-color="#4579F5"/>
<stop offset="1" stop-color="#9C42F5"/>
</linearGradient>
<linearGradient id="paint63_linear_488_792" x1="372.027" y1="281.867" x2="372.027" y2="363.99" gradientUnits="userSpaceOnUse">
<stop stop-color="#9C42F5"/>
<stop offset="1" stop-color="#00FFAA" stop-opacity="0.5"/>
</linearGradient>
<linearGradient id="paint64_linear_488_792" x1="348.357" y1="254.487" x2="348.357" y2="309.248" gradientUnits="userSpaceOnUse">
<stop stop-color="#4579F5"/>
<stop offset="1" stop-color="#9C42F5"/>
</linearGradient>
<linearGradient id="paint65_linear_488_792" x1="163.866" y1="249.097" x2="163.866" y2="331.22" gradientUnits="userSpaceOnUse">
<stop stop-color="#4579F5"/>
<stop offset="1" stop-color="#9C42F5"/>
</linearGradient>
<linearGradient id="paint66_linear_488_792" x1="140.196" y1="249.097" x2="140.196" y2="331.22" gradientUnits="userSpaceOnUse">
<stop stop-color="#4579F5"/>
<stop offset="1" stop-color="#9C42F5"/>
</linearGradient>
<linearGradient id="paint67_linear_488_792" x1="187.537" y1="249.097" x2="187.537" y2="331.22" gradientUnits="userSpaceOnUse">
<stop stop-color="#9C42F5"/>
<stop offset="1" stop-color="#00FFAA" stop-opacity="0.5"/>
</linearGradient>
<linearGradient id="paint68_linear_488_792" x1="163.866" y1="221.716" x2="163.866" y2="276.459" gradientUnits="userSpaceOnUse">
<stop stop-color="#4579F5"/>
<stop offset="1" stop-color="#9C42F5"/>
</linearGradient>
<linearGradient id="paint69_linear_488_792" x1="225.363" y1="284.233" x2="225.363" y2="366.375" gradientUnits="userSpaceOnUse">
<stop stop-color="#4579F5"/>
<stop offset="1" stop-color="#9C42F5"/>
</linearGradient>
<linearGradient id="paint70_linear_488_792" x1="201.692" y1="284.233" x2="201.692" y2="366.375" gradientUnits="userSpaceOnUse">
<stop stop-color="#4579F5"/>
<stop offset="1" stop-color="#9C42F5"/>
</linearGradient>
<linearGradient id="paint71_linear_488_792" x1="249.034" y1="284.233" x2="249.034" y2="366.375" gradientUnits="userSpaceOnUse">
<stop stop-color="#9C42F5"/>
<stop offset="1" stop-color="#00FFAA" stop-opacity="0.5"/>
</linearGradient>
<linearGradient id="paint72_linear_488_792" x1="225.363" y1="256.853" x2="225.363" y2="311.614" gradientUnits="userSpaceOnUse">
<stop stop-color="#4579F5"/>
<stop offset="1" stop-color="#9C42F5"/>
</linearGradient>
<linearGradient id="paint73_linear_488_792" x1="286.86" y1="319.389" x2="286.86" y2="401.511" gradientUnits="userSpaceOnUse">
<stop stop-color="#4579F5"/>
<stop offset="1" stop-color="#9C42F5"/>
</linearGradient>
<linearGradient id="paint74_linear_488_792" x1="263.189" y1="319.389" x2="263.189" y2="401.511" gradientUnits="userSpaceOnUse">
<stop stop-color="#4579F5"/>
<stop offset="1" stop-color="#9C42F5"/>
</linearGradient>
<linearGradient id="paint75_linear_488_792" x1="310.53" y1="319.389" x2="310.53" y2="401.511" gradientUnits="userSpaceOnUse">
<stop stop-color="#9C42F5"/>
<stop offset="1" stop-color="#00FFAA" stop-opacity="0.5"/>
</linearGradient>
<linearGradient id="paint76_linear_488_792" x1="286.86" y1="292.008" x2="286.86" y2="346.75" gradientUnits="userSpaceOnUse">
<stop stop-color="#4579F5"/>
<stop offset="1" stop-color="#9C42F5"/>
</linearGradient>
<linearGradient id="paint77_linear_488_792" x1="409.966" y1="226.205" x2="409.966" y2="263.557" gradientUnits="userSpaceOnUse">
<stop stop-color="#4579F5"/>
<stop offset="1" stop-color="#9C42F5"/>
</linearGradient>
<linearGradient id="paint78_linear_488_792" x1="163.857" y1="230.524" x2="163.857" y2="267.876" gradientUnits="userSpaceOnUse">
<stop stop-color="#4579F5"/>
<stop offset="1" stop-color="#9C42F5"/>
</linearGradient>
<linearGradient id="paint79_linear_488_792" x1="286.86" y1="101.377" x2="286.86" y2="183.519" gradientUnits="userSpaceOnUse">
<stop stop-color="#4579F5"/>
<stop offset="1" stop-color="#9C42F5"/>
</linearGradient>
<linearGradient id="paint80_linear_488_792" x1="263.189" y1="101.377" x2="263.189" y2="183.519" gradientUnits="userSpaceOnUse">
<stop stop-color="#4579F5"/>
<stop offset="1" stop-color="#9C42F5"/>
</linearGradient>
<linearGradient id="paint81_linear_488_792" x1="310.53" y1="101.377" x2="310.53" y2="183.519" gradientUnits="userSpaceOnUse">
<stop stop-color="#9C42F5"/>
<stop offset="1" stop-color="#00FFAA" stop-opacity="0.5"/>
</linearGradient>
<linearGradient id="paint82_linear_488_792" x1="286.86" y1="74.0155" x2="286.86" y2="128.758" gradientUnits="userSpaceOnUse">
<stop stop-color="#4579F5"/>
<stop offset="1" stop-color="#9C42F5"/>
</linearGradient>
<linearGradient id="paint83_linear_488_792" x1="348.357" y1="136.532" x2="348.357" y2="218.655" gradientUnits="userSpaceOnUse">
<stop stop-color="#4579F5"/>
<stop offset="1" stop-color="#9C42F5"/>
</linearGradient>
<linearGradient id="paint84_linear_488_792" x1="324.686" y1="136.532" x2="324.686" y2="218.655" gradientUnits="userSpaceOnUse">
<stop stop-color="#4579F5"/>
<stop offset="1" stop-color="#9C42F5"/>
</linearGradient>
<linearGradient id="paint85_linear_488_792" x1="372.027" y1="136.532" x2="372.027" y2="218.655" gradientUnits="userSpaceOnUse">
<stop stop-color="#9C42F5"/>
<stop offset="1" stop-color="#00FFAA" stop-opacity="0.5"/>
</linearGradient>
<linearGradient id="paint86_linear_488_792" x1="348.357" y1="109.152" x2="348.357" y2="163.913" gradientUnits="userSpaceOnUse">
<stop stop-color="#4579F5"/>
<stop offset="1" stop-color="#9C42F5"/>
</linearGradient>
<linearGradient id="paint87_linear_488_792" x1="409.853" y1="171.669" x2="409.853" y2="253.811" gradientUnits="userSpaceOnUse">
<stop stop-color="#4579F5"/>
<stop offset="1" stop-color="#9C42F5"/>
</linearGradient>
<linearGradient id="paint88_linear_488_792" x1="386.183" y1="171.669" x2="386.183" y2="253.811" gradientUnits="userSpaceOnUse">
<stop stop-color="#4579F5"/>
<stop offset="1" stop-color="#9C42F5"/>
</linearGradient>
<linearGradient id="paint89_linear_488_792" x1="433.524" y1="171.669" x2="433.524" y2="253.811" gradientUnits="userSpaceOnUse">
<stop stop-color="#9C42F5"/>
<stop offset="1" stop-color="#00FFAA" stop-opacity="0.5"/>
</linearGradient>
<linearGradient id="paint90_linear_488_792" x1="409.853" y1="144.307" x2="409.853" y2="199.049" gradientUnits="userSpaceOnUse">
<stop stop-color="#4579F5"/>
<stop offset="1" stop-color="#9C42F5"/>
</linearGradient>
<linearGradient id="paint91_linear_488_792" x1="225.363" y1="138.899" x2="225.363" y2="221.04" gradientUnits="userSpaceOnUse">
<stop stop-color="#4579F5"/>
<stop offset="1" stop-color="#9C42F5"/>
</linearGradient>
<linearGradient id="paint92_linear_488_792" x1="201.692" y1="138.899" x2="201.692" y2="221.04" gradientUnits="userSpaceOnUse">
<stop stop-color="#4579F5"/>
<stop offset="1" stop-color="#9C42F5"/>
</linearGradient>
<linearGradient id="paint93_linear_488_792" x1="249.034" y1="138.899" x2="249.034" y2="221.04" gradientUnits="userSpaceOnUse">
<stop stop-color="#9C42F5"/>
<stop offset="1" stop-color="#00FFAA" stop-opacity="0.5"/>
</linearGradient>
<linearGradient id="paint94_linear_488_792" x1="225.363" y1="111.537" x2="225.363" y2="166.279" gradientUnits="userSpaceOnUse">
<stop stop-color="#4579F5"/>
<stop offset="1" stop-color="#9C42F5"/>
</linearGradient>
<linearGradient id="paint95_linear_488_792" x1="163.866" y1="176.42" x2="163.866" y2="258.562" gradientUnits="userSpaceOnUse">
<stop stop-color="#4579F5"/>
<stop offset="1" stop-color="#9C42F5"/>
</linearGradient>
<linearGradient id="paint96_linear_488_792" x1="140.196" y1="176.42" x2="140.196" y2="258.562" gradientUnits="userSpaceOnUse">
<stop stop-color="#4579F5"/>
<stop offset="1" stop-color="#9C42F5"/>
</linearGradient>
<linearGradient id="paint97_linear_488_792" x1="187.537" y1="176.42" x2="187.537" y2="258.562" gradientUnits="userSpaceOnUse">
<stop stop-color="#9C42F5"/>
<stop offset="1" stop-color="#00FFAA" stop-opacity="0.5"/>
</linearGradient>
<linearGradient id="paint98_linear_488_792" x1="163.866" y1="149.058" x2="163.866" y2="203.801" gradientUnits="userSpaceOnUse">
<stop stop-color="#4579F5"/>
<stop offset="1" stop-color="#9C42F5"/>
</linearGradient>
<linearGradient id="paint99_linear_488_792" x1="553.677" y1="359.746" x2="553.677" y2="426.225" gradientUnits="userSpaceOnUse">
<stop stop-color="#4579F5"/>
<stop offset="1" stop-color="#9C42F5"/>
</linearGradient>
<linearGradient id="paint100_linear_488_792" x1="534.516" y1="359.746" x2="534.516" y2="426.225" gradientUnits="userSpaceOnUse">
<stop stop-color="#4579F5"/>
<stop offset="1" stop-color="#9C42F5"/>
</linearGradient>
<linearGradient id="paint101_linear_488_792" x1="572.838" y1="359.746" x2="572.838" y2="426.225" gradientUnits="userSpaceOnUse">
<stop stop-color="#9C42F5"/>
<stop offset="1" stop-color="#00FFAA" stop-opacity="0.5"/>
</linearGradient>
<linearGradient id="paint102_linear_488_792" x1="553.677" y1="337.586" x2="553.677" y2="381.906" gradientUnits="userSpaceOnUse">
<stop stop-color="#4579F5"/>
<stop offset="1" stop-color="#9C42F5"/>
</linearGradient>
<linearGradient id="paint103_linear_488_792" x1="553.677" y1="256.684" x2="553.677" y2="323.163" gradientUnits="userSpaceOnUse">
<stop stop-color="#4579F5"/>
<stop offset="1" stop-color="#9C42F5"/>
</linearGradient>
<linearGradient id="paint104_linear_488_792" x1="534.516" y1="256.684" x2="534.516" y2="323.163" gradientUnits="userSpaceOnUse">
<stop stop-color="#4579F5"/>
<stop offset="1" stop-color="#9C42F5"/>
</linearGradient>
<linearGradient id="paint105_linear_488_792" x1="572.838" y1="256.684" x2="572.838" y2="323.163" gradientUnits="userSpaceOnUse">
<stop stop-color="#9C42F5"/>
<stop offset="1" stop-color="#00FFAA" stop-opacity="0.5"/>
</linearGradient>
<linearGradient id="paint106_linear_488_792" x1="553.677" y1="234.524" x2="553.677" y2="278.844" gradientUnits="userSpaceOnUse">
<stop stop-color="#4579F5"/>
<stop offset="1" stop-color="#9C42F5"/>
</linearGradient>
<linearGradient id="paint107_linear_488_792" x1="36.9449" y1="100.589" x2="36.9449" y2="145.434" gradientUnits="userSpaceOnUse">
<stop stop-color="#4579F5"/>
<stop offset="1" stop-color="#9C42F5"/>
</linearGradient>
<linearGradient id="paint108_linear_488_792" x1="24.0269" y1="100.589" x2="24.0269" y2="145.434" gradientUnits="userSpaceOnUse">
<stop stop-color="#4579F5"/>
<stop offset="1" stop-color="#9C42F5"/>
</linearGradient>
<linearGradient id="paint109_linear_488_792" x1="49.8724" y1="100.589" x2="49.8724" y2="145.434" gradientUnits="userSpaceOnUse">
<stop stop-color="#9C42F5"/>
<stop offset="1" stop-color="#00FFAA" stop-opacity="0.5"/>
</linearGradient>
<linearGradient id="paint110_linear_488_792" x1="36.9449" y1="85.64" x2="36.9449" y2="115.537" gradientUnits="userSpaceOnUse">
<stop stop-color="#4579F5"/>
<stop offset="1" stop-color="#9C42F5"/>
</linearGradient>
<linearGradient id="paint111_linear_488_792" x1="36.9449" y1="224.007" x2="36.9449" y2="268.853" gradientUnits="userSpaceOnUse">
<stop stop-color="#4579F5"/>
<stop offset="1" stop-color="#9C42F5"/>
</linearGradient>
<linearGradient id="paint112_linear_488_792" x1="24.0269" y1="224.007" x2="24.0269" y2="268.853" gradientUnits="userSpaceOnUse">
<stop stop-color="#4579F5"/>
<stop offset="1" stop-color="#9C42F5"/>
</linearGradient>
<linearGradient id="paint113_linear_488_792" x1="49.8724" y1="224.007" x2="49.8724" y2="268.853" gradientUnits="userSpaceOnUse">
<stop stop-color="#9C42F5"/>
<stop offset="1" stop-color="#00FFAA" stop-opacity="0.5"/>
</linearGradient>
<linearGradient id="paint114_linear_488_792" x1="36.9449" y1="209.059" x2="36.9449" y2="238.956" gradientUnits="userSpaceOnUse">
<stop stop-color="#4579F5"/>
<stop offset="1" stop-color="#9C42F5"/>
</linearGradient>
<linearGradient id="paint115_linear_488_792" x1="36.9543" y1="452.817" x2="36.9543" y2="516.912" gradientUnits="userSpaceOnUse">
<stop stop-color="#4579F5"/>
<stop offset="1" stop-color="#9C42F5"/>
</linearGradient>
<linearGradient id="paint116_linear_488_792" x1="18.4771" y1="452.817" x2="18.4771" y2="516.912" gradientUnits="userSpaceOnUse">
<stop stop-color="#4579F5"/>
<stop offset="1" stop-color="#9C42F5"/>
</linearGradient>
<linearGradient id="paint117_linear_488_792" x1="55.4314" y1="452.817" x2="55.4314" y2="516.912" gradientUnits="userSpaceOnUse">
<stop stop-color="#9C42F5"/>
<stop offset="1" stop-color="#00FFAA" stop-opacity="0.5"/>
</linearGradient>
<linearGradient id="paint118_linear_488_792" x1="36.9449" y1="431.446" x2="36.9449" y2="474.169" gradientUnits="userSpaceOnUse">
<stop stop-color="#4579F5"/>
<stop offset="1" stop-color="#9C42F5"/>
</linearGradient>
<linearGradient id="paint119_linear_488_792" x1="36.9543" y1="372.197" x2="36.9543" y2="436.31" gradientUnits="userSpaceOnUse">
<stop stop-color="#4579F5"/>
<stop offset="1" stop-color="#9C42F5"/>
</linearGradient>
<linearGradient id="paint120_linear_488_792" x1="18.4771" y1="372.197" x2="18.4771" y2="436.31" gradientUnits="userSpaceOnUse">
<stop stop-color="#4579F5"/>
<stop offset="1" stop-color="#9C42F5"/>
</linearGradient>
<linearGradient id="paint121_linear_488_792" x1="55.4314" y1="372.197" x2="55.4314" y2="436.31" gradientUnits="userSpaceOnUse">
<stop stop-color="#9C42F5"/>
<stop offset="1" stop-color="#00FFAA" stop-opacity="0.5"/>
</linearGradient>
<linearGradient id="paint122_linear_488_792" x1="36.9449" y1="350.826" x2="36.9449" y2="393.568" gradientUnits="userSpaceOnUse">
<stop stop-color="#4579F5"/>
<stop offset="1" stop-color="#9C42F5"/>
</linearGradient>
<radialGradient id="paint123_radial_488_792" cx="0" cy="0" r="1" gradientUnits="userSpaceOnUse" gradientTransform="translate(185.536 135.858) rotate(122.955) scale(35.5519 58.3863)">
<stop stop-color="#C0BFF6"/>
<stop offset="1" stop-color="#393091"/>
</radialGradient>
<linearGradient id="paint124_linear_488_792" x1="172.643" y1="118.744" x2="165.085" y2="87.9216" gradientUnits="userSpaceOnUse">
<stop stop-color="#42E6DF"/>
<stop offset="0.14" stop-color="#40B6CB"/>
<stop offset="0.27" stop-color="#3E8DB9"/>
<stop offset="0.41" stop-color="#3C6BAA"/>
<stop offset="0.55" stop-color="#3B519F"/>
<stop offset="0.69" stop-color="#3A3F97"/>
<stop offset="0.84" stop-color="#393493"/>
<stop offset="1" stop-color="#393091"/>
</linearGradient>
<linearGradient id="paint125_linear_488_792" x1="216.459" y1="124.973" x2="216.459" y2="145.622" gradientUnits="userSpaceOnUse">
<stop stop-color="#9C42F5"/>
<stop offset="1" stop-color="#00FFAA" stop-opacity="0.5"/>
</linearGradient>
<linearGradient id="paint126_linear_488_792" x1="358.94" y1="173.371" x2="358.94" y2="232.139" gradientUnits="userSpaceOnUse">
<stop stop-color="#9C42F5"/>
<stop offset="1" stop-color="#00FFAA" stop-opacity="0.5"/>
</linearGradient>
<radialGradient id="paint127_radial_488_792" cx="0" cy="0" r="1" gradientUnits="userSpaceOnUse" gradientTransform="translate(339.526 84.2955) rotate(11.4169) scale(115.304 115.477)">
<stop stop-color="#C0BFF6"/>
<stop offset="1" stop-color="#393091"/>
</radialGradient>
<linearGradient id="paint128_linear_488_792" x1="231.139" y1="162.51" x2="252.681" y2="128.739" gradientUnits="userSpaceOnUse">
<stop stop-color="#42E6DF"/>
<stop offset="0.14" stop-color="#40B6CB"/>
<stop offset="0.27" stop-color="#3E8DB9"/>
<stop offset="0.41" stop-color="#3C6BAA"/>
<stop offset="0.55" stop-color="#3B519F"/>
<stop offset="0.69" stop-color="#3A3F97"/>
<stop offset="0.84" stop-color="#393493"/>
<stop offset="1" stop-color="#393091"/>
</linearGradient>
<radialGradient id="paint129_radial_488_792" cx="0" cy="0" r="1" gradientUnits="userSpaceOnUse" gradientTransform="translate(324.053 171.815) scale(89.003 121.15)">
<stop stop-color="#C0BFF6"/>
<stop offset="1" stop-color="#393091"/>
</radialGradient>
<linearGradient id="paint130_linear_488_792" x1="293.503" y1="252.873" x2="293.503" y2="131.783" gradientUnits="userSpaceOnUse">
<stop stop-color="#42E6DF"/>
<stop offset="0.14" stop-color="#40B6CB"/>
<stop offset="0.27" stop-color="#3E8DB9"/>
<stop offset="0.41" stop-color="#3C6BAA"/>
<stop offset="0.55" stop-color="#3B519F"/>
<stop offset="0.69" stop-color="#3A3F97"/>
<stop offset="0.84" stop-color="#393493"/>
<stop offset="1" stop-color="#393091"/>
</linearGradient>
<linearGradient id="paint131_linear_488_792" x1="289.936" y1="131.969" x2="289.936" y2="155.068" gradientUnits="userSpaceOnUse">
<stop stop-color="#4579F5"/>
<stop offset="1" stop-color="#9C42F5"/>
</linearGradient>
<radialGradient id="paint132_radial_488_792" cx="0" cy="0" r="1" gradientUnits="userSpaceOnUse" gradientTransform="translate(324.827 95.8936) scale(89.0578 89.2027)">
<stop stop-color="#C0BFF6"/>
<stop offset="1" stop-color="#393091"/>
</radialGradient>
<linearGradient id="paint133_linear_488_792" x1="284.629" y1="155.969" x2="299.337" y2="51.4491" gradientUnits="userSpaceOnUse">
<stop stop-color="#42E6DF"/>
<stop offset="0.14" stop-color="#40B6CB"/>
<stop offset="0.27" stop-color="#3E8DB9"/>
<stop offset="0.41" stop-color="#3C6BAA"/>
<stop offset="0.55" stop-color="#3B519F"/>
<stop offset="0.69" stop-color="#3A3F97"/>
<stop offset="0.84" stop-color="#393493"/>
<stop offset="1" stop-color="#393091"/>
</linearGradient>
<linearGradient id="paint134_linear_488_792" x1="263.283" y1="107.525" x2="263.283" y2="123.53" gradientUnits="userSpaceOnUse">
<stop stop-color="#4579F5"/>
<stop offset="1" stop-color="#9C42F5"/>
</linearGradient>
<linearGradient id="paint135_linear_488_792" x1="257.655" y1="95.7434" x2="257.655" y2="139.22" gradientUnits="userSpaceOnUse">
<stop stop-color="#4579F5"/>
<stop offset="1" stop-color="#9C42F5"/>
</linearGradient>
<radialGradient id="paint136_radial_488_792" cx="0" cy="0" r="1" gradientUnits="userSpaceOnUse" gradientTransform="translate(359.454 163.018) rotate(11.0169) scale(41.8253 41.8884)">
<stop stop-color="#C0BFF6"/>
<stop offset="1" stop-color="#393091"/>
</radialGradient>
<linearGradient id="paint137_linear_488_792" x1="331.442" y1="188.027" x2="363.835" y2="164.354" gradientUnits="userSpaceOnUse">
<stop stop-color="#42E6DF"/>
<stop offset="0.14" stop-color="#40B6CB"/>
<stop offset="0.27" stop-color="#3E8DB9"/>
<stop offset="0.41" stop-color="#3C6BAA"/>
<stop offset="0.55" stop-color="#3B519F"/>
<stop offset="0.69" stop-color="#3A3F97"/>
<stop offset="0.84" stop-color="#393493"/>
<stop offset="1" stop-color="#393091"/>
</linearGradient>
<radialGradient id="paint138_radial_488_792" cx="0" cy="0" r="1" gradientUnits="userSpaceOnUse" gradientTransform="translate(387.86 232.825) rotate(6.90353) scale(35.4551 58.5287)">
<stop stop-color="#C0BFF6"/>
<stop offset="1" stop-color="#393091"/>
</radialGradient>
<linearGradient id="paint139_linear_488_792" x1="349.844" y1="246.762" x2="377.308" y2="250.129" gradientUnits="userSpaceOnUse">
<stop stop-color="#42E6DF"/>
<stop offset="0.14" stop-color="#40B6CB"/>
<stop offset="0.27" stop-color="#3E8DB9"/>
<stop offset="0.41" stop-color="#3C6BAA"/>
<stop offset="0.55" stop-color="#3B519F"/>
<stop offset="0.69" stop-color="#3A3F97"/>
<stop offset="0.84" stop-color="#393493"/>
<stop offset="1" stop-color="#393091"/>
</linearGradient>
<linearGradient id="paint140_linear_488_792" x1="163.866" y1="46.6349" x2="163.866" y2="128.758" gradientUnits="userSpaceOnUse">
<stop stop-color="#4579F5"/>
<stop offset="1" stop-color="#9C42F5"/>
</linearGradient>
<linearGradient id="paint141_linear_488_792" x1="140.196" y1="46.6349" x2="140.196" y2="128.758" gradientUnits="userSpaceOnUse">
<stop stop-color="#4579F5"/>
<stop offset="1" stop-color="#9C42F5"/>
</linearGradient>
<linearGradient id="paint142_linear_488_792" x1="187.537" y1="46.6349" x2="187.537" y2="128.758" gradientUnits="userSpaceOnUse">
<stop stop-color="#9C42F5"/>
<stop offset="1" stop-color="#00FFAA" stop-opacity="0.5"/>
</linearGradient>
<linearGradient id="paint143_linear_488_792" x1="163.866" y1="19.2544" x2="163.866" y2="74.0155" gradientUnits="userSpaceOnUse">
<stop stop-color="#4579F5"/>
<stop offset="1" stop-color="#9C42F5"/>
</linearGradient>
</defs>
</svg>
